<svg width="1089" height="740" viewBox="0 0 1089 740" fill="none" xmlns="http://www.w3.org/2000/svg">
  <path
    d="M268.303 66.4067V383.083H302.724V465.695H268.303V551H147.379V465.695H3.70709V383.083L108.169 66.4067H268.303ZM147.379 383.083V176.854L94.1006 383.083H147.379ZM686.975 230.432V392.063C686.975 428.779 684.979 455.518 680.988 472.28C676.997 489.042 668.716 504.706 656.145 519.272C643.574 533.839 628.408 544.315 610.649 550.701C592.889 557.086 573.035 560.279 551.085 560.279C522.151 560.279 498.106 556.986 478.95 550.401C459.793 543.617 444.528 533.141 433.154 518.973C421.78 504.806 413.699 489.939 408.91 474.375C404.121 458.611 401.726 433.668 401.726 399.546V230.432C401.726 185.934 405.517 152.61 413.1 130.46C420.882 108.311 436.147 90.5516 458.896 77.1821C481.843 63.8127 509.58 57.1279 542.105 57.1279C568.645 57.1279 592.391 61.8172 613.343 71.1958C634.295 80.3748 649.959 91.6491 660.335 105.019C670.712 118.388 677.696 133.454 681.288 150.215C685.079 166.977 686.975 193.716 686.975 230.432ZM566.051 189.725C566.051 163.984 564.754 147.921 562.16 141.535C559.765 134.95 553.978 131.658 544.799 131.658C535.82 131.658 529.833 135.15 526.84 142.134C524.047 148.918 522.65 164.782 522.65 189.725V426.185C522.65 454.321 523.947 471.282 526.541 477.069C529.335 482.856 535.221 485.749 544.201 485.749C553.18 485.749 559.067 482.357 561.86 475.572C564.654 468.788 566.051 453.523 566.051 429.777V189.725ZM1050.57 66.4067V383.083H1084.99V465.695H1050.57V551H929.648V465.695H785.977V383.083L890.438 66.4067H1050.57ZM929.648 383.083V176.854L876.37 383.083H929.648Z"
    fill="white"/>
  <path
    d="M301.5 590.211V708H274.654L258.721 654.453V708H233.111V590.211H258.721L275.891 643.249V590.211H301.5ZM395.882 645.359V669.004C395.882 677.686 395.446 684.064 394.573 688.138C393.7 692.164 391.832 695.947 388.971 699.488C386.109 702.98 382.423 705.575 377.912 707.272C373.45 708.922 368.308 709.746 362.488 709.746C355.989 709.746 350.484 709.043 345.973 707.636C341.462 706.181 337.946 704.023 335.424 701.161C332.95 698.251 331.18 694.759 330.113 690.685C329.046 686.562 328.512 680.402 328.512 672.205V647.469C328.512 638.496 329.482 631.487 331.422 626.443C333.362 621.399 336.855 617.349 341.899 614.293C346.943 611.237 353.394 609.709 361.251 609.709C367.848 609.709 373.498 610.704 378.203 612.692C382.956 614.632 386.618 617.179 389.189 620.332C391.759 623.484 393.506 626.734 394.427 630.081C395.397 633.427 395.882 638.52 395.882 645.359ZM366.49 638.083C366.49 633.136 366.223 630.032 365.689 628.771C365.156 627.461 364.016 626.807 362.27 626.807C360.524 626.807 359.36 627.461 358.778 628.771C358.196 630.032 357.905 633.136 357.905 638.083V681.663C357.905 686.222 358.196 689.205 358.778 690.612C359.36 691.97 360.5 692.649 362.197 692.649C363.943 692.649 365.083 692.018 365.617 690.757C366.199 689.496 366.49 686.78 366.49 682.609V638.083ZM453.014 598.578V613.784H460.945V629.062H453.014V680.717C453.014 687.071 453.33 690.612 453.96 691.339C454.639 692.067 457.38 692.431 462.181 692.431V708H450.322C443.629 708 438.852 707.733 435.99 707.2C433.128 706.618 430.606 705.332 428.424 703.344C426.241 701.307 424.883 699.003 424.349 696.432C423.816 693.813 423.549 687.702 423.549 678.098V629.062H417.219V613.784H423.549V598.578H453.014ZM527.41 590.211H579.283V613.784H558.039V636.119H576.955V658.527H558.039V708H527.41V590.211ZM668.791 645.359V669.004C668.791 677.686 668.354 684.064 667.481 688.138C666.608 692.164 664.741 695.947 661.879 699.488C659.018 702.98 655.331 705.575 650.821 707.272C646.358 708.922 641.217 709.746 635.397 709.746C628.897 709.746 623.392 709.043 618.882 707.636C614.371 706.181 610.854 704.023 608.332 701.161C605.859 698.251 604.088 694.759 603.021 690.685C601.954 686.562 601.421 680.402 601.421 672.205V647.469C601.421 638.496 602.391 631.487 604.331 626.443C606.271 621.399 609.763 617.349 614.807 614.293C619.852 611.237 626.303 609.709 634.16 609.709C640.756 609.709 646.407 610.704 651.112 612.692C655.865 614.632 659.527 617.179 662.097 620.332C664.668 623.484 666.414 626.734 667.336 630.081C668.306 633.427 668.791 638.52 668.791 645.359ZM639.398 638.083C639.398 633.136 639.131 630.032 638.598 628.771C638.064 627.461 636.925 626.807 635.179 626.807C633.432 626.807 632.268 627.461 631.686 628.771C631.104 630.032 630.813 633.136 630.813 638.083V681.663C630.813 686.222 631.104 689.205 631.686 690.612C632.268 691.97 633.408 692.649 635.106 692.649C636.852 692.649 637.992 692.018 638.525 690.757C639.107 689.496 639.398 686.78 639.398 682.609V638.083ZM762.227 611.456V708H732.325L732.835 699.997C730.798 703.247 728.275 705.696 725.268 707.345C722.31 708.946 718.89 709.746 715.01 709.746C710.596 709.746 706.934 708.97 704.024 707.418C701.114 705.866 698.956 703.805 697.549 701.234C696.191 698.663 695.342 695.996 695.003 693.231C694.663 690.418 694.493 684.864 694.493 676.57V611.456H723.886V677.152C723.886 684.67 724.104 689.132 724.541 690.539C725.026 691.946 726.287 692.649 728.324 692.649C730.507 692.649 731.792 691.921 732.18 690.466C732.616 689.011 732.835 684.331 732.835 676.425V611.456H762.227ZM819.068 611.456L818.559 620.332C820.693 616.791 823.288 614.147 826.344 612.401C829.448 610.607 833.013 609.709 837.039 609.709C842.083 609.709 846.206 610.898 849.407 613.274C852.608 615.651 854.669 618.658 855.591 622.296C856.512 625.885 856.973 631.899 856.973 640.339V708H827.581V641.139C827.581 634.494 827.362 630.444 826.926 628.989C826.489 627.534 825.277 626.807 823.288 626.807C821.202 626.807 819.893 627.655 819.359 629.353C818.826 631.002 818.559 635.464 818.559 642.74V708H789.167V611.456H819.068ZM950.41 590.211V708H921.017V701.016C918.204 703.926 915.245 706.108 912.141 707.563C909.037 709.019 905.787 709.746 902.392 709.746C897.833 709.746 893.88 708.558 890.533 706.181C887.186 703.756 885.028 700.967 884.058 697.814C883.136 694.662 882.676 689.521 882.676 682.391V637.21C882.676 629.79 883.136 624.527 884.058 621.423C885.028 618.319 887.211 615.603 890.606 613.274C894.001 610.898 898.051 609.709 902.756 609.709C906.393 609.709 909.716 610.364 912.723 611.674C915.779 612.983 918.543 614.948 921.017 617.567V590.211H950.41ZM921.017 635.755C921.017 632.215 920.702 629.838 920.071 628.625C919.489 627.413 918.301 626.807 916.506 626.807C914.76 626.807 913.572 627.364 912.941 628.48C912.359 629.547 912.068 631.972 912.068 635.755V683.045C912.068 686.974 912.359 689.569 912.941 690.83C913.523 692.043 914.639 692.649 916.288 692.649C918.18 692.649 919.441 691.97 920.071 690.612C920.702 689.205 921.017 685.81 921.017 680.426V635.755Z"
    fill="white"/>
</svg>
