<svg width="145" height="66" viewBox="0 0 145 66" fill="none" xmlns="http://www.w3.org/2000/svg">
  <path
    d="M17.9308 54.4922H15.1311C15.0799 54.13 14.9755 53.8082 14.8179 53.527C14.6602 53.2415 14.4578 52.9986 14.2106 52.7983C13.9635 52.598 13.6779 52.4446 13.3541 52.3381C13.0345 52.2315 12.6872 52.1783 12.3122 52.1783C11.6346 52.1783 11.0444 52.3466 10.5416 52.6832C10.0387 53.0156 9.64883 53.5014 9.37184 54.1406C9.09485 54.7756 8.95636 55.5469 8.95636 56.4545C8.95636 57.3878 9.09485 58.1719 9.37184 58.8068C9.65309 59.4418 10.0451 59.9212 10.548 60.245C11.0508 60.5689 11.6325 60.7308 12.293 60.7308C12.6637 60.7308 13.0068 60.6818 13.3221 60.5838C13.6417 60.4858 13.9251 60.343 14.1723 60.1555C14.4194 59.9638 14.624 59.7315 14.7859 59.4588C14.9521 59.1861 15.0672 58.875 15.1311 58.5256L17.9308 58.5384C17.8583 59.1392 17.6772 59.7188 17.3875 60.277C17.102 60.831 16.7163 61.3274 16.2305 61.7663C15.749 62.201 15.1737 62.5462 14.5047 62.8018C13.8399 63.0533 13.0877 63.179 12.2483 63.179C11.0806 63.179 10.0366 62.9148 9.11616 62.3864C8.19996 61.858 7.47553 61.093 6.94286 60.0916C6.41445 59.0902 6.15025 57.8778 6.15025 56.4545C6.15025 55.027 6.41871 53.8125 6.95564 52.8111C7.49258 51.8097 8.22127 51.0469 9.14172 50.5227C10.0622 49.9943 11.0977 49.7301 12.2483 49.7301C13.0068 49.7301 13.7099 49.8366 14.3576 50.0497C15.0096 50.2628 15.587 50.5739 16.0899 50.983C16.5927 51.3878 17.0018 51.8842 17.3172 52.4723C17.6368 53.0604 17.8413 53.7337 17.9308 54.4922ZM25.5258 63H22.5599L27.0791 49.9091H30.6458L35.1586 63H32.1927L28.9136 52.9006H28.8113L25.5258 63ZM25.3404 57.8544H32.3461V60.0149H25.3404V57.8544ZM40.3343 49.9091H43.7476L47.3527 58.7045H47.5061L51.1113 49.9091H54.5246V63H51.84V54.4794H51.7313L48.3435 62.9361H46.5154L43.1276 54.4474H43.0189V63H40.3343V49.9091ZM60.405 63V49.9091H65.5697C66.5626 49.9091 67.4085 50.0987 68.1074 50.478C68.8062 50.853 69.3389 51.375 69.7054 52.044C70.0761 52.7088 70.2615 53.4759 70.2615 54.3452C70.2615 55.2145 70.074 55.9815 69.699 56.6463C69.324 57.3111 68.7807 57.8288 68.069 58.1996C67.3616 58.5703 66.5051 58.7557 65.4994 58.7557H62.2075V56.5376H65.052C65.5847 56.5376 66.0236 56.446 66.3687 56.2628C66.7182 56.0753 66.9781 55.8175 67.1486 55.4893C67.3233 55.157 67.4107 54.7756 67.4107 54.3452C67.4107 53.9105 67.3233 53.5312 67.1486 53.2074C66.9781 52.8793 66.7182 52.6257 66.3687 52.4467C66.0193 52.2635 65.5761 52.1719 65.0392 52.1719H63.1727V63H60.405ZM83.3486 63V61.0057L88.0084 56.6911C88.4047 56.3075 88.7371 55.9624 89.0055 55.6555C89.2783 55.3487 89.4849 55.0483 89.6256 54.7543C89.7662 54.456 89.8365 54.1342 89.8365 53.7891C89.8365 53.4055 89.7491 53.0753 89.5744 52.7983C89.3997 52.517 89.1611 52.3018 88.8585 52.1527C88.556 51.9993 88.2129 51.9226 87.8294 51.9226C87.4288 51.9226 87.0794 52.0036 86.7811 52.1655C86.4828 52.3274 86.2527 52.5597 86.0908 52.8622C85.9288 53.1648 85.8479 53.5249 85.8479 53.9425H83.2207C83.2207 53.0859 83.4146 52.3423 83.8024 51.7116C84.1902 51.081 84.7335 50.593 85.4324 50.2479C86.1312 49.9027 86.9366 49.7301 87.8486 49.7301C88.7861 49.7301 89.6021 49.8963 90.2967 50.2287C90.9956 50.5568 91.5389 51.0128 91.9267 51.5966C92.3145 52.1804 92.5084 52.8494 92.5084 53.6037C92.5084 54.098 92.4104 54.5859 92.2143 55.0675C92.0226 55.549 91.6795 56.0838 91.1852 56.6719C90.6909 57.2557 89.9942 57.9567 89.095 58.7749L87.1838 60.6477V60.7372H92.681V63H83.3486ZM103.419 63.2876C102.32 63.2834 101.374 63.0128 100.581 62.4759C99.7929 61.9389 99.1856 61.1612 98.7595 60.1428C98.3376 59.1243 98.1288 57.8991 98.1331 56.4673C98.1331 55.0398 98.344 53.8232 98.7659 52.8175C99.192 51.8118 99.7993 51.0469 100.588 50.5227C101.38 49.9943 102.324 49.7301 103.419 49.7301C104.514 49.7301 105.456 49.9943 106.245 50.5227C107.037 51.0511 107.647 51.8182 108.073 52.8239C108.499 53.8253 108.71 55.0398 108.706 56.4673C108.706 57.9034 108.492 59.1307 108.066 60.1491C107.644 61.1676 107.039 61.9453 106.251 62.4822C105.463 63.0192 104.519 63.2876 103.419 63.2876ZM103.419 60.9929C104.169 60.9929 104.768 60.6158 105.215 59.8615C105.663 59.1072 105.884 57.9759 105.88 56.4673C105.88 55.4744 105.778 54.6477 105.573 53.9872C105.373 53.3267 105.088 52.8303 104.717 52.4979C104.35 52.1655 103.918 51.9993 103.419 51.9993C102.674 51.9993 102.077 52.3722 101.63 53.1179C101.182 53.8636 100.956 54.9801 100.952 56.4673C100.952 57.473 101.052 58.3125 101.252 58.9858C101.457 59.6548 101.745 60.1577 102.115 60.4943C102.486 60.8267 102.921 60.9929 103.419 60.9929ZM114.279 63V61.0057L118.939 56.6911C119.335 56.3075 119.668 55.9624 119.936 55.6555C120.209 55.3487 120.415 55.0483 120.556 54.7543C120.697 54.456 120.767 54.1342 120.767 53.7891C120.767 53.4055 120.68 53.0753 120.505 52.7983C120.33 52.517 120.092 52.3018 119.789 52.1527C119.486 51.9993 119.143 51.9226 118.76 51.9226C118.359 51.9226 118.01 52.0036 117.712 52.1655C117.413 52.3274 117.183 52.5597 117.021 52.8622C116.859 53.1648 116.778 53.5249 116.778 53.9425H114.151C114.151 53.0859 114.345 52.3423 114.733 51.7116C115.121 51.081 115.664 50.593 116.363 50.2479C117.062 49.9027 117.867 49.7301 118.779 49.7301C119.717 49.7301 120.533 49.8963 121.227 50.2287C121.926 50.5568 122.469 51.0128 122.857 51.5966C123.245 52.1804 123.439 52.8494 123.439 53.6037C123.439 54.098 123.341 54.5859 123.145 55.0675C122.953 55.549 122.61 56.0838 122.116 56.6719C121.621 57.2557 120.925 57.9567 120.025 58.7749L118.114 60.6477V60.7372H123.611V63H114.279ZM133.998 63.179C133.095 63.179 132.289 63.0128 131.582 62.6804C130.879 62.348 130.321 61.8899 129.907 61.3061C129.494 60.7223 129.279 60.0533 129.262 59.299H131.946C131.976 59.8061 132.189 60.2173 132.586 60.5327C132.982 60.848 133.453 61.0057 133.998 61.0057C134.433 61.0057 134.816 60.9098 135.149 60.718C135.485 60.522 135.747 60.2514 135.935 59.9062C136.127 59.5568 136.223 59.1562 136.223 58.7045C136.223 58.2443 136.125 57.8395 135.929 57.4901C135.737 57.1406 135.47 56.8679 135.13 56.6719C134.789 56.4759 134.399 56.3757 133.96 56.3714C133.576 56.3714 133.203 56.4503 132.841 56.608C132.483 56.7656 132.204 56.9808 132.004 57.2536L129.543 56.8125L130.163 49.9091H138.166V52.1719H132.445L132.106 55.451H132.183C132.413 55.1271 132.76 54.8587 133.225 54.6456C133.689 54.4325 134.209 54.326 134.784 54.326C135.573 54.326 136.276 54.5114 136.894 54.8821C137.512 55.2528 138 55.7621 138.358 56.4098C138.716 57.0533 138.892 57.7947 138.888 58.6342C138.892 59.5163 138.688 60.3004 138.274 60.9865C137.865 61.6683 137.292 62.2053 136.555 62.5973C135.822 62.9851 134.97 63.179 133.998 63.179Z"
    fill="#C8E7FF"/>
  <path
    d="M18.4533 21.5183C18.028 17.8203 15.6982 16.0082 11.39 16.0082C7.59949 16.0082 5.17727 17.5429 5.17727 19.8727C5.17727 21.8327 6.65649 22.9975 10.2806 23.7741L14.8847 24.7171C18.2499 25.4383 19.9325 26.1224 21.3008 27.2873C22.78 28.5261 23.5936 30.3382 23.5936 32.4276C23.5936 37.4939 19.2668 40.6187 12.37 40.6187C5.01086 40.6187 0.591688 37.0871 0 30.6525H4.21578C4.64105 34.9053 7.61798 37.272 12.4994 37.272C16.5858 37.272 19.4702 35.386 19.4702 32.6864C19.4702 30.671 17.9355 29.3582 14.9586 28.674L8.59797 27.2503C3.4207 26.0854 1.07243 23.9221 1.07243 20.298C1.07243 15.6014 5.19576 12.6245 11.7043 12.6245C18.2129 12.6245 21.6891 15.472 22.5766 21.4998H18.4533V21.5183Z"
    fill="#C8E7FF"/>
  <path d="M32.9496 40.027H28.9187V13.2346H32.9496V40.027Z" fill="#C8E7FF"/>
  <path d="M49.8128 40.027H45.7819V16.5629H36.9436V13.2346H58.6512V16.5629H49.8128V40.027Z" fill="#C8E7FF"/>
  <path
    d="M81.3016 21.6293C80.451 18.0976 77.6035 15.9712 73.7021 15.9712C68.266 15.9712 64.6973 20.15 64.6973 26.4552C64.6973 32.9268 68.266 37.2905 73.5727 37.2905C77.9918 37.2905 81.0612 34.48 81.6899 29.8204H85.7762C85.4434 32.4646 84.7962 34.1656 83.354 36.0517C81.0242 39.1025 77.7515 40.6372 73.4987 40.6372C69.2829 40.6372 65.9362 39.1025 63.5509 36.0517C61.517 33.4445 60.4446 30.1902 60.4446 26.5292C60.4446 18.375 65.9177 12.6245 73.7021 12.6245C79.7299 12.6245 84.0197 15.8418 85.2585 21.2595L81.3016 21.6293Z"
    fill="#C8E7FF"/>
  <path
    d="M140.711 40.027L129.117 23.1269C127.712 21.0375 126.862 19.7062 126.178 18.5043C126.27 19.7062 126.307 22.2394 126.307 23.5707V40.0455H122.479V13.2346H126.603L137.734 29.543C138.788 31.0777 140.249 33.4814 141.099 35.0901C141.007 33.6109 140.97 31.9652 140.97 30.0607V13.401H144.797V40.027H140.711Z"
    fill="#C8E7FF"/>
  <path
    d="M108.704 1.27157C111.09 -0.558965 113.937 0.125175 113.937 0.125175C113.937 0.125175 113.456 3.50889 111.071 5.33943C108.686 7.16996 105.265 6.72619 105.265 6.72619C105.265 6.72619 106.005 5.61678 106.744 4.15605C107.188 3.3055 107.817 1.93722 108.704 1.27157Z"
    fill="#C8E7FF"/>
  <path
    d="M102.954 4.02659C101.844 3.17604 100.513 3.49037 100.513 3.49037C100.513 3.49037 100.735 5.08053 101.844 5.93108C102.954 6.78163 104.544 6.57824 104.544 6.57824C104.544 6.57824 104.193 6.06051 103.86 5.37637C103.656 4.96959 103.36 4.34092 102.954 4.02659Z"
    fill="#C8E7FF"/>
  <path
    d="M103.231 12.1069C103.564 12.1069 103.878 12.1254 104.211 12.1439C103.915 10.4058 103.971 8.61226 104.877 7.05908C103.305 8.31642 102.547 10.2394 102.159 12.1624C102.51 12.1254 102.861 12.1069 103.231 12.1069Z"
    fill="#C8E7FF"/>
  <path
    d="M103.231 12.6802C95.3912 12.6802 89.0305 19.0223 89.0305 26.8252C89.0305 34.6466 95.3912 40.9703 103.231 40.9703C111.071 40.9703 117.432 34.6281 117.432 26.8252C117.413 19.0223 111.071 12.6802 103.231 12.6802ZM109.018 32.6127L103.213 28.6373L97.4066 32.6127L101.401 26.8252L97.4066 21.0378L103.213 25.0132L109.018 21.0378L105.025 26.8252L109.018 32.6127Z"
    fill="#C8E7FF"/>
</svg>
