<svg width="930" height="636" viewBox="0 0 930 636" fill="none" xmlns="http://www.w3.org/2000/svg">
<mask id="mask0_583_384" style="mask-type:alpha" maskUnits="userSpaceOnUse" x="0" y="0" width="930" height="636">
<clipPath id="myClip">
<path fill-rule="evenodd" clip-rule="evenodd" d="M49.551 187.876C48.507 188.234 48.456 188.718 49.051 189.876L126.551 216.876C100.21 251.424 87.6449 273.265 71.551 305.876C53.551 338.876 44.051 357.376 44.051 357.376C37.3828 366.977 35.8663 372.916 40.551 385.376C43.1305 396.779 44.751 403.158 49.551 414.376L0.551004 439.376C-0.22506 440.431 -0.141077 440.831 0.551004 441.376L89.051 397.876L373.051 611.376L357.551 632.376C357.397 633.484 358.173 633.534 360.551 632.876L405.551 573.876C407.558 572.098 408.762 571.763 411.051 572.376L634.551 598.876L636.051 634.376C637.093 636.011 637.406 635.23 638.051 634.376L637.051 571.876L775.051 494.376L889.051 596.376C890.551 597.376 892.051 596.376 890.551 594.376L757.051 474.376C754.467 471.888 754.337 470.379 756.051 467.376C798.488 411.947 823.551 347.876 816.051 308.876C815.971 301.35 818.102 298.468 826.051 295.876L929.051 252.376C930.17 250.893 929.531 250.652 928.051 250.376L891.051 265.876L884.051 250.376C889.429 236.892 890.31 229.256 889.551 217.376C886.962 208.796 886.957 203.989 890.051 195.376C890.535 192.216 889.686 191.662 887.551 191.376L778.051 189.376C766.386 188.867 764.286 186.844 764.051 181.876C785.051 142.876 808.551 94.8763 804.551 75.8763L881.051 23.3763C881.516 22.2503 881.45 21.7843 879.551 21.8763L752.051 107.876C749.37 108.824 748.093 108.573 746.051 107.376C726.809 90.0866 716.025 80.4045 701.551 78.8763C653.551 73.8083 629.023 70.9265 581.551 78.3763C555.761 82.5959 543.371 82.152 525.551 75.3763C514.632 71.8395 510.79 69.5419 508.051 64.8763L504.551 0.876308C503.443 -0.347736 502.91 -0.235113 502.051 0.876308L502.551 21.3763L428.051 65.8763C422.314 69.2176 419.156 69.1115 413.551 64.8763L375.051 33.3763C373.832 33.3933 373.244 33.6273 372.551 34.8763C372.518 35.4382 372.772 35.7686 373.551 36.3763C335.507 53.0512 317.635 62.6463 283.051 77.8763L266.551 26.3763C265.177 25.7598 264.45 25.5031 264.051 26.8763L293.551 123.876C296.515 130.492 295.419 132.131 292.551 134.376L161.051 224.876C108.5 206.973 88.9203 200.727 49.551 187.876Z" fill="#FBA729"/>
</clipPath>
<path fill-rule="evenodd" clip-rule="evenodd" d="M49.551 187.876C48.507 188.234 48.456 188.718 49.051 189.876L126.551 216.876C100.21 251.424 87.6449 273.265 71.551 305.876C53.551 338.876 44.051 357.376 44.051 357.376C37.3828 366.977 35.8663 372.916 40.551 385.376C43.1305 396.779 44.751 403.158 49.551 414.376L0.551004 439.376C-0.22506 440.431 -0.141077 440.831 0.551004 441.376L89.051 397.876L373.051 611.376L357.551 632.376C357.397 633.484 358.173 633.534 360.551 632.876L405.551 573.876C407.558 572.098 408.762 571.763 411.051 572.376L634.551 598.876L636.051 634.376C637.093 636.011 637.406 635.23 638.051 634.376L637.051 571.876L775.051 494.376L889.051 596.376C890.551 597.376 892.051 596.376 890.551 594.376L757.051 474.376C754.467 471.888 754.337 470.379 756.051 467.376C798.488 411.947 823.551 347.876 816.051 308.876C815.971 301.35 818.102 298.468 826.051 295.876L929.051 252.376C930.17 250.893 929.531 250.652 928.051 250.376L891.051 265.876L884.051 250.376C889.429 236.892 890.31 229.256 889.551 217.376C886.962 208.796 886.957 203.989 890.051 195.376C890.535 192.216 889.686 191.662 887.551 191.376L778.051 189.376C766.386 188.867 764.286 186.844 764.051 181.876C785.051 142.876 808.551 94.8763 804.551 75.8763L881.051 23.3763C881.516 22.2503 881.45 21.7843 879.551 21.8763L752.051 107.876C749.37 108.824 748.093 108.573 746.051 107.376C726.809 90.0866 716.025 80.4045 701.551 78.8763C653.551 73.8083 629.023 70.9265 581.551 78.3763C555.761 82.5959 543.371 82.152 525.551 75.3763C514.632 71.8395 510.79 69.5419 508.051 64.8763L504.551 0.876308C503.443 -0.347736 502.91 -0.235113 502.051 0.876308L502.551 21.3763L428.051 65.8763C422.314 69.2176 419.156 69.1115 413.551 64.8763L375.051 33.3763C373.832 33.3933 373.244 33.6273 372.551 34.8763C372.518 35.4382 372.772 35.7686 373.551 36.3763C335.507 53.0512 317.635 62.6463 283.051 77.8763L266.551 26.3763C265.177 25.7598 264.45 25.5031 264.051 26.8763L293.551 123.876C296.515 130.492 295.419 132.131 292.551 134.376L161.051 224.876C108.5 206.973 88.9203 200.727 49.551 187.876Z" fill="#FBA729"/>
</mask>
<g mask="url(#mask0_583_384)">
<g filter="url(#filter0_f_583_384)">
<path fill-rule="evenodd" clip-rule="evenodd" d="M49.551 187.876C48.507 188.234 48.456 188.718 49.051 189.876L126.551 216.876C100.21 251.424 87.6449 273.265 71.551 305.876C53.551 338.876 44.051 357.376 44.051 357.376C37.3828 366.977 35.8663 372.916 40.551 385.376C43.1305 396.779 44.751 403.158 49.551 414.376L0.551004 439.376C-0.22506 440.431 -0.141077 440.831 0.551004 441.376L89.051 397.876L373.051 611.376L357.551 632.376C357.397 633.484 358.173 633.534 360.551 632.876L405.551 573.876C407.558 572.098 408.762 571.763 411.051 572.376L634.551 598.876L636.051 634.376C637.093 636.011 637.406 635.23 638.051 634.376L637.051 571.876L775.051 494.376L889.051 596.376C890.551 597.376 892.051 596.376 890.551 594.376L757.051 474.376C754.467 471.888 754.337 470.379 756.051 467.376C798.488 411.947 823.551 347.876 816.051 308.876C815.971 301.35 818.102 298.468 826.051 295.876L929.051 252.376C930.17 250.893 929.531 250.652 928.051 250.376L891.051 265.876L884.051 250.376C889.429 236.892 890.31 229.256 889.551 217.376C886.962 208.796 886.957 203.989 890.051 195.376C890.535 192.216 889.686 191.662 887.551 191.376L778.051 189.376C766.386 188.867 764.286 186.844 764.051 181.876C785.051 142.876 808.551 94.8763 804.551 75.8763L881.051 23.3763C881.516 22.2503 881.45 21.7843 879.551 21.8763L752.051 107.876C749.37 108.824 748.093 108.573 746.051 107.376C726.809 90.0866 716.025 80.4045 701.551 78.8763C653.551 73.8083 629.023 70.9265 581.551 78.3763C555.761 82.5959 543.371 82.152 525.551 75.3763C514.632 71.8395 510.79 69.5419 508.051 64.8763L504.551 0.876308C503.443 -0.347736 502.91 -0.235113 502.051 0.876308L502.551 21.3763L428.051 65.8763C422.314 69.2176 419.156 69.1115 413.551 64.8763L375.051 33.3763C373.832 33.3933 373.244 33.6273 372.551 34.8763C372.518 35.4382 372.772 35.7686 373.551 36.3763C335.507 53.0512 317.635 62.6463 283.051 77.8763L266.551 26.3763C265.177 25.7598 264.45 25.5031 264.051 26.8763L293.551 123.876C296.515 130.492 295.419 132.131 292.551 134.376L161.051 224.876C108.5 206.973 88.9203 200.727 49.551 187.876Z" fill="#FDED63"/>
<path fill-rule="evenodd" clip-rule="evenodd" d="M49.551 187.876C48.507 188.234 48.456 188.718 49.051 189.876L126.551 216.876C100.21 251.424 87.6449 273.265 71.551 305.876C53.551 338.876 44.051 357.376 44.051 357.376C37.3828 366.977 35.8663 372.916 40.551 385.376C43.1305 396.779 44.751 403.158 49.551 414.376L0.551004 439.376C-0.22506 440.431 -0.141077 440.831 0.551004 441.376L89.051 397.876L373.051 611.376L357.551 632.376C357.397 633.484 358.173 633.534 360.551 632.876L405.551 573.876C407.558 572.098 408.762 571.763 411.051 572.376L634.551 598.876L636.051 634.376C637.093 636.011 637.406 635.23 638.051 634.376L637.051 571.876L775.051 494.376L889.051 596.376C890.551 597.376 892.051 596.376 890.551 594.376L757.051 474.376C754.467 471.888 754.337 470.379 756.051 467.376C798.488 411.947 823.551 347.876 816.051 308.876C815.971 301.35 818.102 298.468 826.051 295.876L929.051 252.376C930.17 250.893 929.531 250.652 928.051 250.376L891.051 265.876L884.051 250.376C889.429 236.892 890.31 229.256 889.551 217.376C886.962 208.796 886.957 203.989 890.051 195.376C890.535 192.216 889.686 191.662 887.551 191.376L778.051 189.376C766.386 188.867 764.286 186.844 764.051 181.876C785.051 142.876 808.551 94.8763 804.551 75.8763L881.051 23.3763C881.516 22.2503 881.45 21.7843 879.551 21.8763L752.051 107.876C749.37 108.824 748.093 108.573 746.051 107.376C726.809 90.0866 716.025 80.4045 701.551 78.8763C653.551 73.8083 629.023 70.9265 581.551 78.3763C555.761 82.5959 543.371 82.152 525.551 75.3763C514.632 71.8395 510.79 69.5419 508.051 64.8763L504.551 0.876308C503.443 -0.347736 502.91 -0.235113 502.051 0.876308L502.551 21.3763L428.051 65.8763C422.314 69.2176 419.156 69.1115 413.551 64.8763L375.051 33.3763C373.832 33.3933 373.244 33.6273 372.551 34.8763C372.518 35.4382 372.772 35.7686 373.551 36.3763C335.507 53.0512 317.635 62.6463 283.051 77.8763L266.551 26.3763C265.177 25.7598 264.45 25.5031 264.051 26.8763L293.551 123.876C296.515 130.492 295.419 132.131 292.551 134.376L161.051 224.876C108.5 206.973 88.9203 200.727 49.551 187.876Z" stroke="#FBA729" stroke-width="128"/>
</g>
</g>
<defs>
<filter id="filter0_f_583_384" x="-151.4" y="-151.401" width="1232.39" height="938.192" filterUnits="userSpaceOnUse" color-interpolation-filters="sRGB">
<feFlood flood-opacity="0" result="BackgroundImageFix"/>
<feBlend mode="normal" in="SourceGraphic" in2="BackgroundImageFix" result="shape"/>
<feGaussianBlur stdDeviation="43.7" result="effect1_foregroundBlur_583_384"/>
</filter>
</defs>
</svg>
