<svg width="2950" height="2016" viewBox="0 0 2950 2016" fill="none" xmlns="http://www.w3.org/2000/svg">
<mask id="mask0_611_690" style="mask-type:alpha" maskUnits="userSpaceOnUse" x="0" y="0" width="2950" height="2016">
<path fill-rule="evenodd" clip-rule="evenodd" d="M157.242 596.159C153.929 597.294 153.767 598.829 155.656 602.505L401.59 688.18C317.999 797.805 278.127 867.111 227.056 970.59C169.936 1075.3 139.789 1134.01 139.789 1134.01C118.628 1164.47 113.816 1183.32 128.682 1222.86C136.868 1259.04 142.01 1279.28 157.242 1314.88L1.74853 1394.21C-0.714193 1397.55 -0.447686 1398.82 1.74853 1400.55L282.589 1262.52L1183.82 1939.99L1134.63 2006.62C1134.14 2010.14 1136.6 2010.3 1144.15 2008.21L1286.95 1820.99C1293.32 1815.35 1297.14 1814.29 1304.41 1816.23L2013.65 1900.32L2018.41 2012.97C2021.71 2018.16 2022.71 2015.68 2024.75 2012.97L2021.58 1814.65L2459.5 1568.73L2821.26 1892.39C2826.02 1895.56 2830.78 1892.39 2826.02 1886.04L2402.38 1505.27C2394.18 1497.37 2393.77 1492.58 2399.21 1483.05C2533.88 1307.17 2613.41 1103.86 2589.61 980.11C2589.36 956.228 2596.12 947.083 2621.34 938.859L2948.2 800.827C2951.75 796.122 2949.72 795.356 2945.02 794.481L2827.61 843.664L2805.4 794.481C2822.46 751.693 2825.26 727.463 2822.85 689.767C2814.63 662.539 2814.62 647.285 2824.44 619.958C2825.97 609.928 2823.28 608.171 2816.5 607.265L2469.02 600.919C2432.01 599.304 2425.34 592.882 2424.6 577.12C2491.24 453.367 2565.81 301.056 2553.12 240.767L2795.88 74.1764C2797.35 70.6034 2797.14 69.1248 2791.12 69.4167L2386.52 342.307C2378.01 345.314 2373.95 344.518 2367.48 340.721C2306.41 285.858 2272.19 255.135 2226.26 250.286C2073.94 234.205 1996.1 225.06 1845.46 248.699C1763.62 262.089 1724.3 260.68 1667.75 239.18C1633.1 227.957 1620.91 220.667 1612.22 205.862L1601.11 2.78065C1597.6 -1.10342 1595.91 -0.746047 1593.18 2.78065L1594.77 67.8302L1358.35 209.035C1340.15 219.638 1330.12 219.301 1312.34 205.862L1190.17 105.908C1186.3 105.962 1184.43 106.704 1182.23 110.668C1182.13 112.451 1182.93 113.499 1185.41 115.427C1064.68 168.339 1007.96 198.786 898.218 247.113L845.858 83.6959C841.498 81.7396 839.191 80.925 837.924 85.2825L931.538 393.078C940.944 414.071 937.467 419.272 928.365 426.396L511.07 713.565C344.308 656.757 282.174 636.937 157.242 596.159Z" fill="#FDED63"/>
</mask>
<g mask="url(#mask0_611_690)">
<path d="M1243.58 1794C1341.57 1757.5 1333.58 1717 1333.58 1717L1812.07 1838C1811.67 1855.98 1815.71 1867.7 1833.07 1892.5C1864.18 1904.22 1871.39 1911.99 1865.57 1928.5L1939.57 2101.5C1947.32 2124.72 1949.65 2146.27 1939.57 2187.5C1901.51 2164.58 1886.14 2166.66 1865.57 2187.5L1833.07 2158L1126.57 2098C1123.87 2078.99 1121.77 2069.33 1104.07 2076C1054.57 2093.5 1062.07 2086 1054.57 2045.5C1044.21 2014.17 1049.92 1990.32 1073.57 1940.5C1090.29 1924.09 1093.68 1914.71 1109.07 1878.5C1116.99 1833.69 1133.84 1821.77 1243.58 1794Z" fill="#3E0070"/>
<path d="M1946.6 2100.44C1954.5 2124.65 1956.55 2147.5 1946.37 2189.16L1946.26 2189.56C1945.65 2191.54 1944.19 2193.16 1942.26 2193.96C1940.34 2194.76 1938.16 2194.66 1936.32 2193.7L1935.96 2193.5C1917.05 2182.11 1905.19 2177.88 1896.18 2178.09C1887.73 2178.29 1880.39 2182.45 1870.56 2192.42C1867.92 2195.09 1863.65 2195.2 1860.87 2192.68L1830.12 2164.77L1125.98 2104.98C1122.73 2104.7 1120.1 2102.21 1119.64 2098.99C1118.96 2094.2 1118.37 2090.36 1117.61 2087.27C1116.83 2084.11 1116.05 2082.48 1115.42 2081.67C1115.04 2081.18 1114.78 2080.99 1114 2080.92C1112.89 2080.81 1110.82 2081.01 1107.27 2082.28L1106.54 2082.55L1106.41 2082.6L1104.13 2083.4C1092.94 2087.32 1084.32 2090.04 1077.73 2091.21C1070.86 2092.42 1064.03 2092.35 1058.88 2087.69C1054.27 2083.52 1052.71 2076.98 1051.63 2071.08C1051.04 2067.87 1050.5 2064.17 1049.9 2060.2C1049.31 2056.29 1048.65 2051.98 1047.77 2047.21C1042.38 2030.69 1041.15 2015.81 1044.45 1998.62C1047.71 1981.58 1055.4 1962.47 1067.25 1937.5C1067.6 1936.76 1068.08 1936.08 1068.67 1935.51C1084.12 1920.33 1087.09 1912.32 1102.33 1876.48C1104.34 1865.32 1107.04 1855.53 1111.89 1846.87C1116.95 1837.87 1124.09 1830.51 1134.38 1823.95C1154.38 1811.21 1187.1 1801.08 1241.48 1787.31C1289.48 1769.38 1310.46 1750.87 1319.58 1737.81C1324.14 1731.29 1325.8 1726.03 1326.4 1722.67C1326.71 1720.97 1326.75 1719.72 1326.73 1718.97C1326.72 1718.6 1326.7 1718.36 1326.69 1718.25C1326.68 1718.2 1326.68 1718.18 1326.68 1718.2C1326.68 1718.21 1326.68 1718.22 1326.69 1718.25C1326.69 1718.26 1326.69 1718.28 1326.7 1718.3C1326.7 1718.31 1326.7 1718.32 1326.7 1718.33C1326.7 1718.33 1326.71 1718.34 1326.71 1718.34L1326.71 1718.34C1326.25 1715.99 1327.02 1713.57 1328.76 1711.92C1330.5 1710.27 1332.97 1709.63 1335.29 1710.22L1813.79 1831.21L1814.08 1831.29C1817.09 1832.19 1819.14 1835 1819.07 1838.16C1818.88 1846.48 1819.72 1852.97 1822.46 1860.22C1825.14 1867.31 1829.75 1875.4 1837.59 1886.73C1851.93 1892.23 1862.38 1897.42 1868.35 1904C1871.73 1907.72 1873.77 1911.96 1874.28 1916.82C1874.69 1920.59 1874.13 1924.38 1873.04 1928.15L1946.01 2098.75L1946.12 2099.01C1946.15 2099.1 1946.18 2099.19 1946.21 2099.29L1946.6 2100.44ZM1934.87 2176.69C1942.14 2142.64 1939.65 2123.95 1933.02 2103.96L1859.14 1931.25C1858.45 1929.64 1858.39 1927.83 1858.97 1926.17C1860.24 1922.56 1860.55 1920.1 1860.36 1918.3C1860.19 1916.69 1859.57 1915.16 1857.98 1913.41C1854.31 1909.36 1846.32 1904.97 1830.61 1899.05C1829.29 1898.55 1828.15 1897.67 1827.34 1896.52C1818.56 1883.98 1812.8 1874.28 1809.36 1865.17C1806.54 1857.71 1805.35 1850.86 1805.1 1843.46L1340.05 1725.86C1339 1731.14 1336.51 1738.02 1331.07 1745.82C1319.88 1761.84 1296.51 1781.41 1248.33 1799.69L1246.02 1800.56L1245.66 1800.68C1245.54 1800.72 1245.42 1800.76 1245.29 1800.79L1240.2 1802.08C1188.27 1815.34 1159.14 1824.78 1141.9 1835.76C1133.27 1841.26 1127.87 1847.01 1124.1 1853.72C1120.5 1860.14 1118.2 1867.79 1116.33 1877.7L1115.97 1879.72L1115.89 1880.11C1115.79 1880.49 1115.67 1880.87 1115.52 1881.24C1100.48 1916.59 1096.49 1927.57 1079.38 1944.6C1067.9 1968.87 1061.06 1986.31 1058.2 2001.25C1055.35 2016.1 1056.39 2028.69 1061.22 2043.3L1061.29 2043.53C1061.36 2043.76 1061.41 2043.99 1061.46 2044.23L1061.8 2046.14C1062.59 2050.56 1063.21 2054.56 1063.75 2058.11C1064.37 2062.23 1064.86 2065.63 1065.4 2068.55C1066.56 2074.89 1067.62 2076.73 1068.27 2077.31C1068.37 2077.4 1069.41 2078.46 1075.29 2077.42C1081.01 2076.41 1089.3 2073.8 1101.74 2069.4L1101.74 2069.4C1106.54 2067.61 1111.11 2066.57 1115.35 2066.98C1120.03 2067.44 1123.77 2069.6 1126.47 2073.07C1128.92 2076.22 1130.27 2080.15 1131.2 2083.93C1131.77 2086.25 1132.25 2088.8 1132.68 2091.49L1833.67 2151.03L1833.95 2151.05C1835.38 2151.23 1836.71 2151.85 1837.78 2152.82L1865.44 2177.93C1874.6 2169.67 1884.05 2164.37 1895.85 2164.09C1907.18 2163.83 1919.62 2168.27 1934.87 2176.69Z" fill="black"/>
<path d="M1727.22 1866.94C1727.22 1866.94 1724.7 1868.8 1720.32 1870.5C1715.95 1872.2 1715.25 1866.15 1718.11 1864.41C1720.98 1862.66 1726.05 1861.19 1726.05 1861.19C1726.05 1861.19 1723.04 1857.52 1721.81 1853.09C1720.59 1848.67 1723.58 1846.52 1725.74 1848.12C1727.89 1849.71 1729.84 1856.61 1729.84 1856.61C1729.84 1856.61 1730.68 1852.86 1733.01 1846.92C1735.34 1840.97 1739.4 1841.4 1737.84 1848.5C1736.28 1855.59 1735.01 1858.31 1735.01 1858.31C1735.01 1858.31 1739.1 1855.17 1744.38 1854.21C1749.66 1853.26 1747.57 1861.97 1744.42 1862.28C1741.26 1862.59 1735.98 1863.54 1735.98 1863.54C1735.98 1863.54 1736.19 1864.06 1739.22 1869.97C1742.26 1875.88 1739.26 1878.03 1735.7 1873.74C1732.47 1869.85 1731.82 1868.48 1731.82 1868.1C1731.1 1871.62 1730.73 1872.6 1729.97 1877.23C1729.21 1881.9 1724.88 1882.28 1725.35 1876.17C1725.82 1870.06 1727.22 1866.94 1727.22 1866.94Z" fill="#FFE600"/>
<path d="M1793.8 1933.5C1793.8 1933.5 1790.49 1935.58 1784.65 1937.35C1778.81 1939.12 1777.51 1931.85 1781.29 1929.94C1785.08 1928.02 1791.87 1926.56 1791.87 1926.56C1791.87 1926.56 1787.57 1921.99 1785.64 1916.63C1783.72 1911.26 1787.66 1908.87 1790.67 1910.91C1793.69 1912.95 1796.74 1921.31 1796.74 1921.31C1796.74 1921.31 1797.66 1916.88 1800.47 1909.9C1803.28 1902.93 1808.81 1903.69 1807.12 1912.08C1805.43 1920.47 1803.87 1923.64 1803.87 1923.64C1803.87 1923.64 1809.22 1920.13 1816.33 1919.3C1823.44 1918.47 1821.13 1928.76 1816.86 1928.95C1812.59 1929.13 1805.48 1929.96 1805.48 1929.96C1805.48 1929.96 1805.8 1930.59 1810.27 1937.84C1814.74 1945.09 1810.8 1947.48 1805.71 1942.13C1801.1 1937.29 1800.14 1935.62 1800.12 1935.16C1799.35 1939.33 1798.89 1940.48 1798.14 1945.97C1797.38 1951.51 1791.53 1951.7 1791.81 1944.42C1792.08 1937.15 1793.8 1933.5 1793.8 1933.5Z" fill="#FFE600"/>
<path d="M1328.73 1815.52C1328.73 1815.52 1325.42 1817.59 1319.58 1819.37C1313.74 1821.14 1312.43 1813.87 1316.22 1811.95C1320 1810.04 1326.79 1808.57 1326.79 1808.57C1326.79 1808.57 1322.5 1804.01 1320.57 1798.65C1318.64 1793.28 1322.58 1790.89 1325.6 1792.93C1328.61 1794.97 1331.66 1803.33 1331.66 1803.33C1331.66 1803.33 1332.59 1798.9 1335.39 1791.92C1338.2 1784.95 1343.74 1785.71 1342.05 1794.1C1340.36 1802.49 1338.79 1805.66 1338.79 1805.66C1338.79 1805.66 1344.15 1802.15 1351.26 1801.32C1358.37 1800.49 1356.06 1810.78 1351.79 1810.96C1347.52 1811.15 1340.41 1811.98 1340.41 1811.98C1340.41 1811.98 1340.73 1812.61 1345.2 1819.86C1349.66 1827.1 1345.72 1829.5 1340.63 1824.15C1336.03 1819.31 1335.07 1817.64 1335.04 1817.17C1334.27 1821.35 1333.82 1822.5 1333.07 1827.99C1332.31 1833.53 1326.46 1833.72 1326.73 1826.44C1327.01 1819.17 1328.73 1815.52 1328.73 1815.52Z" fill="#FFE600"/>
<path d="M1212.68 1839.57C1212.68 1839.57 1209.15 1837.91 1204.49 1833.97C1199.83 1830.02 1205.23 1824.98 1208.89 1827.12C1212.56 1829.26 1217.47 1834.17 1217.47 1834.17C1217.47 1834.17 1218.97 1828.09 1222.43 1823.56C1225.89 1819.03 1230.04 1821.04 1229.96 1824.68C1229.89 1828.32 1224.52 1835.42 1224.52 1835.42C1224.52 1835.42 1228.74 1833.79 1236.12 1832.37C1243.5 1830.94 1245.87 1836.01 1237.9 1839.14C1229.94 1842.27 1226.43 1842.67 1226.43 1842.67C1226.43 1842.67 1232.28 1845.27 1236.83 1850.79C1241.39 1856.31 1231.49 1859.95 1229.02 1856.47C1226.55 1852.98 1222 1847.46 1222 1847.46C1222 1847.46 1221.64 1848.07 1217.98 1855.75C1214.31 1863.44 1210.16 1861.43 1211.89 1854.25C1213.46 1847.75 1214.34 1846.04 1214.72 1845.77C1210.8 1847.39 1209.59 1847.63 1204.56 1849.98C1199.5 1852.34 1196.17 1847.53 1202.43 1843.82C1208.69 1840.1 1212.68 1839.57 1212.68 1839.57Z" fill="#FFE600"/>
<path d="M1295.29 1933.82C1295.29 1933.82 1291.39 1933.85 1285.49 1932.29C1279.59 1930.74 1282.29 1923.87 1286.51 1924.22C1290.74 1924.57 1297.29 1926.89 1297.29 1926.89C1297.29 1926.89 1296.03 1920.75 1297.2 1915.18C1298.38 1909.6 1302.99 1909.63 1304.48 1912.94C1305.98 1916.26 1304.19 1924.98 1304.19 1924.98C1304.19 1924.98 1307.3 1921.69 1313.35 1917.23C1319.4 1912.77 1323.72 1916.32 1317.87 1922.57C1312.03 1928.83 1309.03 1930.71 1309.03 1930.71C1309.03 1930.71 1315.44 1930.53 1321.92 1933.56C1328.41 1936.58 1321.04 1944.13 1317.31 1942.04C1313.59 1939.96 1307.1 1936.93 1307.1 1936.93C1307.1 1936.93 1307.04 1937.64 1307.04 1946.15C1307.04 1954.67 1302.43 1954.64 1300.9 1947.41C1299.52 1940.87 1299.58 1938.95 1299.8 1938.54C1296.96 1941.69 1295.97 1942.43 1292.45 1946.71C1288.89 1951.03 1283.81 1948.12 1287.86 1942.07C1291.92 1936.02 1295.29 1933.82 1295.29 1933.82Z" fill="#FFE600"/>
<path d="M1134.86 2045.07C1134.86 2045.07 1131.73 2047.4 1126.04 2049.63C1120.36 2051.85 1118.49 2044.71 1122.11 2042.5C1125.73 2040.29 1132.38 2038.3 1132.38 2038.3C1132.38 2038.3 1127.74 2034.09 1125.4 2028.9C1123.06 2023.7 1126.8 2021 1129.96 2022.8C1133.13 2024.59 1136.83 2032.69 1136.83 2032.69C1136.83 2032.69 1137.4 2028.2 1139.65 2021.03C1141.9 2013.85 1147.48 2014.18 1146.46 2022.67C1145.43 2031.17 1144.12 2034.45 1144.12 2034.45C1144.12 2034.45 1149.18 2030.53 1156.21 2029.15C1163.23 2027.76 1161.73 2038.2 1157.49 2038.72C1153.25 2039.24 1146.23 2040.62 1146.23 2040.62C1146.23 2040.62 1146.6 2041.23 1151.62 2048.1C1156.64 2054.98 1152.91 2057.67 1147.41 2052.74C1142.43 2048.28 1141.35 2046.69 1141.29 2046.23C1140.85 2050.45 1140.49 2051.63 1140.17 2057.16C1139.85 2062.74 1134.03 2063.39 1133.73 2056.12C1133.44 2048.85 1134.86 2045.07 1134.86 2045.07Z" fill="#FFE600"/>
<path d="M1121.13 1950.65C1121.13 1950.65 1117.24 1950.32 1111.51 1948.22C1105.77 1946.13 1109.1 1939.54 1113.27 1940.28C1117.45 1941.02 1123.76 1943.93 1123.76 1943.93C1123.76 1943.93 1123.07 1937.71 1124.75 1932.26C1126.43 1926.81 1131.02 1927.27 1132.21 1930.71C1133.39 1934.15 1130.8 1942.67 1130.8 1942.67C1130.8 1942.67 1134.21 1939.68 1140.64 1935.79C1147.07 1931.91 1151.04 1935.84 1144.65 1941.53C1138.26 1947.22 1135.1 1948.82 1135.1 1948.82C1135.1 1948.82 1141.49 1949.23 1147.67 1952.84C1153.85 1956.45 1145.82 1963.28 1142.3 1960.86C1138.78 1958.45 1132.6 1954.84 1132.6 1954.84C1132.6 1954.84 1132.47 1955.53 1131.69 1964.01C1130.9 1972.49 1126.32 1972.03 1125.46 1964.7C1124.69 1958.06 1124.92 1956.15 1125.18 1955.76C1122.06 1958.64 1121.01 1959.28 1117.11 1963.22C1113.17 1967.19 1108.38 1963.83 1112.97 1958.18C1117.57 1952.53 1121.13 1950.65 1121.13 1950.65Z" fill="#FFE600"/>
<path d="M1218.63 1924.16C1218.63 1924.16 1218.77 1920.25 1220.58 1914.43C1222.4 1908.6 1229.14 1911.6 1228.61 1915.8C1228.07 1920.01 1225.47 1926.45 1225.47 1926.45C1225.47 1926.45 1231.65 1925.46 1237.17 1926.88C1242.7 1928.29 1242.47 1932.9 1239.09 1934.25C1235.71 1935.6 1227.07 1933.43 1227.07 1933.43C1227.07 1933.43 1230.22 1936.68 1234.42 1942.92C1238.61 1949.16 1234.87 1953.31 1228.88 1947.2C1222.89 1941.09 1221.14 1938.02 1221.14 1938.02C1221.14 1938.02 1221.04 1944.42 1217.73 1950.77C1214.43 1957.12 1207.21 1949.43 1209.46 1945.8C1211.7 1942.16 1215.01 1935.81 1215.01 1935.81C1215.01 1935.81 1214.31 1935.72 1205.8 1935.35C1197.29 1934.98 1197.52 1930.38 1204.81 1929.17C1211.4 1928.07 1213.32 1928.21 1213.72 1928.45C1210.69 1925.47 1210 1924.45 1205.88 1920.75C1201.72 1917.01 1204.85 1912.06 1210.71 1916.37C1216.58 1920.69 1218.63 1924.16 1218.63 1924.16Z" fill="#FFE600"/>
<path d="M1756.49 2026.56C1756.49 2026.56 1754.29 2029.78 1749.65 2033.75C1745.01 2037.71 1740.9 2031.57 1743.6 2028.3C1746.3 2025.03 1751.94 2020.97 1751.94 2020.97C1751.94 2020.97 1746.17 2018.51 1742.26 2014.37C1738.34 2010.22 1740.99 2006.45 1744.57 2007.11C1748.15 2007.77 1754.3 2014.21 1754.3 2014.21C1754.3 2014.21 1753.37 2009.78 1753.15 2002.27C1752.93 1994.75 1758.31 1993.23 1760.12 2001.59C1761.93 2009.96 1761.76 2013.49 1761.76 2013.49C1761.76 2013.49 1765.27 2008.13 1771.45 2004.52C1777.63 2000.91 1779.63 2011.27 1775.8 2013.15C1771.96 2015.02 1765.78 2018.63 1765.78 2018.63C1765.78 2018.63 1766.32 2019.08 1773.32 2023.93C1780.32 2028.78 1777.66 2032.56 1770.86 2029.69C1764.7 2027.1 1763.15 2025.96 1762.94 2025.54C1763.91 2029.68 1763.95 2030.91 1765.46 2036.24C1766.98 2041.62 1761.7 2044.14 1759.04 2037.36C1756.38 2030.59 1756.49 2026.56 1756.49 2026.56Z" fill="#FFE600"/>
<path d="M1708.26 1920.69C1703.76 1920.19 1704.26 1914.19 1708.26 1913.69C1711.68 1913.26 1712.54 1913.57 1712.72 1913.66C1712.61 1913.54 1712.35 1912.88 1712.76 1909.19C1713.26 1904.69 1718.26 1905.19 1718.76 1909.19C1719.22 1912.89 1718.83 1914.02 1718.77 1914.17C1718.83 1914.09 1719.34 1913.75 1723.76 1914.19C1728.76 1914.69 1729.26 1919.69 1723.76 1920.69C1720.63 1921.26 1719.44 1921.18 1719 1921.01C1719.22 1921.48 1719.41 1922.6 1718.76 1925.19C1717.76 1929.19 1713.26 1928.69 1712.76 1925.19C1712.3 1921.98 1712.68 1920.87 1712.75 1920.71C1712.69 1920.8 1712.18 1921.13 1708.26 1920.69Z" fill="#FFE600"/>
<path d="M1330.26 1764.69C1325.76 1764.19 1326.26 1758.19 1330.26 1757.69C1333.68 1757.26 1334.54 1757.57 1334.72 1757.66C1334.61 1757.54 1334.35 1756.88 1334.76 1753.19C1335.26 1748.69 1340.26 1749.19 1340.76 1753.19C1341.22 1756.89 1340.83 1758.02 1340.77 1758.17C1340.83 1758.09 1341.34 1757.75 1345.76 1758.19C1350.76 1758.69 1351.26 1763.69 1345.76 1764.69C1342.63 1765.26 1341.44 1765.18 1341 1765.01C1341.22 1765.48 1341.41 1766.6 1340.76 1769.19C1339.76 1773.19 1335.26 1772.69 1334.76 1769.19C1334.3 1765.98 1334.68 1764.87 1334.75 1764.71C1334.69 1764.8 1334.18 1765.13 1330.26 1764.69Z" fill="#FFE600"/>
<path d="M1266.9 1818.22C1263.24 1820.89 1259.55 1816.13 1262.16 1813.06C1264.39 1810.43 1265.23 1810.07 1265.43 1810.02C1265.26 1810.01 1264.62 1809.69 1262.43 1806.7C1259.75 1803.05 1263.77 1800.04 1266.85 1802.64C1269.69 1805.05 1270.17 1806.15 1270.22 1806.31C1270.21 1806.2 1270.36 1805.6 1273.91 1802.94C1277.93 1799.93 1281.68 1803.27 1278.31 1807.73C1276.39 1810.27 1275.46 1811.01 1275.02 1811.18C1275.49 1811.38 1276.4 1812.08 1277.67 1814.43C1279.64 1818.05 1275.99 1820.72 1273.25 1818.48C1270.74 1816.43 1270.28 1815.36 1270.22 1815.19C1270.23 1815.3 1270.08 1815.88 1266.9 1818.22Z" fill="#FFE600"/>
<path d="M1322.87 1866.15C1322.02 1870.6 1316.08 1869.62 1315.9 1865.59C1315.74 1862.15 1316.11 1861.31 1316.22 1861.14C1316.1 1861.24 1315.41 1861.45 1311.77 1860.75C1307.32 1859.89 1308.22 1854.95 1312.25 1854.77C1315.97 1854.6 1317.07 1855.08 1317.21 1855.16C1317.13 1855.09 1316.84 1854.55 1317.63 1850.18C1318.53 1845.24 1323.55 1845.14 1324.11 1850.7C1324.43 1853.87 1324.25 1855.04 1324.05 1855.47C1324.53 1855.29 1325.66 1855.19 1328.2 1856.04C1332.1 1857.36 1331.25 1861.8 1327.72 1862.02C1324.48 1862.22 1323.41 1861.75 1323.25 1861.68C1323.34 1861.75 1323.62 1862.27 1322.87 1866.15Z" fill="#FFE600"/>
<path d="M1245.97 1890.55C1245.11 1894.99 1239.17 1894.02 1238.99 1889.99C1238.84 1886.55 1239.21 1885.71 1239.32 1885.54C1239.19 1885.64 1238.5 1885.85 1234.86 1885.15C1230.42 1884.29 1231.31 1879.35 1235.34 1879.17C1239.06 1879 1240.16 1879.48 1240.31 1879.55C1240.23 1879.49 1239.93 1878.95 1240.72 1874.58C1241.62 1869.64 1246.64 1869.54 1247.2 1875.1C1247.52 1878.27 1247.35 1879.44 1247.14 1879.87C1247.62 1879.69 1248.76 1879.59 1251.29 1880.44C1255.2 1881.76 1254.34 1886.2 1250.81 1886.42C1247.57 1886.62 1246.5 1886.15 1246.35 1886.07C1246.43 1886.15 1246.71 1886.67 1245.97 1890.55Z" fill="#FFE600"/>
<path d="M1272.97 2017.55C1272.11 2021.99 1266.17 2021.02 1265.99 2016.99C1265.84 2013.55 1266.21 2012.71 1266.32 2012.54C1266.19 2012.64 1265.5 2012.85 1261.86 2012.15C1257.42 2011.29 1258.31 2006.35 1262.34 2006.17C1266.06 2006 1267.16 2006.48 1267.31 2006.55C1267.23 2006.49 1266.93 2005.95 1267.72 2001.58C1268.62 1996.64 1273.64 1996.54 1274.2 2002.1C1274.52 2005.27 1274.35 2006.44 1274.14 2006.87C1274.62 2006.69 1275.76 2006.59 1278.29 2007.44C1282.2 2008.76 1281.34 2013.2 1277.81 2013.42C1274.57 2013.62 1273.5 2013.15 1273.35 2013.07C1273.43 2013.15 1273.71 2013.67 1272.97 2017.55Z" fill="#FFE600"/>
<path d="M1151.97 1905.55C1151.11 1909.99 1145.17 1909.02 1144.99 1904.99C1144.84 1901.55 1145.21 1900.71 1145.32 1900.54C1145.19 1900.64 1144.5 1900.85 1140.86 1900.15C1136.42 1899.29 1137.31 1894.35 1141.34 1894.17C1145.06 1894 1146.16 1894.48 1146.31 1894.55C1146.23 1894.49 1145.93 1893.95 1146.72 1889.58C1147.62 1884.64 1152.64 1884.54 1153.2 1890.1C1153.52 1893.27 1153.35 1894.44 1153.14 1894.87C1153.62 1894.69 1154.76 1894.59 1157.29 1895.44C1161.2 1896.76 1160.34 1901.2 1156.81 1901.42C1153.57 1901.62 1152.5 1901.15 1152.35 1901.07C1152.43 1901.15 1152.71 1901.67 1151.97 1905.55Z" fill="#FFE600"/>
<path d="M1089.97 2007.55C1089.11 2011.99 1083.17 2011.02 1082.99 2006.99C1082.84 2003.55 1083.21 2002.71 1083.32 2002.54C1083.19 2002.64 1082.5 2002.85 1078.86 2002.15C1074.42 2001.29 1075.31 1996.35 1079.34 1996.17C1083.06 1996 1084.16 1996.48 1084.31 1996.55C1084.23 1996.49 1083.93 1995.95 1084.72 1991.58C1085.62 1986.64 1090.64 1986.54 1091.2 1992.1C1091.52 1995.27 1091.35 1996.44 1091.14 1996.87C1091.62 1996.69 1092.76 1996.59 1095.29 1997.44C1099.2 1998.76 1098.34 2003.2 1094.81 2003.42C1091.57 2003.62 1090.5 2003.15 1090.35 2003.07C1090.43 2003.15 1090.71 2003.67 1089.97 2007.55Z" fill="#FFE600"/>
<path d="M1195.97 1988.55C1195.11 1992.99 1189.17 1992.02 1188.99 1987.99C1188.84 1984.55 1189.21 1983.71 1189.32 1983.54C1189.19 1983.64 1188.5 1983.85 1184.86 1983.15C1180.42 1982.29 1181.31 1977.35 1185.34 1977.17C1189.06 1977 1190.16 1977.48 1190.31 1977.55C1190.23 1977.49 1189.93 1976.95 1190.72 1972.58C1191.62 1967.64 1196.64 1967.54 1197.2 1973.1C1197.52 1976.27 1197.35 1977.44 1197.14 1977.87C1197.62 1977.69 1198.76 1977.59 1201.29 1978.44C1205.2 1979.76 1204.34 1984.2 1200.81 1984.42C1197.57 1984.62 1196.5 1984.15 1196.35 1984.07C1196.43 1984.15 1196.71 1984.67 1195.97 1988.55Z" fill="#FFE600"/>
<path d="M1778.26 1858.31C1775.67 1854.6 1780.52 1851.02 1783.53 1853.71C1786.1 1856 1786.44 1856.85 1786.48 1857.05C1786.5 1856.88 1786.83 1856.25 1789.88 1854.13C1793.59 1851.54 1796.51 1855.64 1793.83 1858.65C1791.35 1861.43 1790.24 1861.88 1790.08 1861.93C1790.19 1861.92 1790.78 1862.09 1793.36 1865.7C1796.27 1869.8 1792.84 1873.46 1788.46 1869.98C1785.97 1868 1785.25 1867.05 1785.09 1866.61C1784.88 1867.08 1784.16 1867.96 1781.78 1869.18C1778.11 1871.06 1775.53 1867.34 1777.83 1864.66C1779.95 1862.21 1781.03 1861.76 1781.2 1861.71C1781.09 1861.72 1780.51 1861.56 1778.26 1858.31Z" fill="#FFE600"/>
<path d="M1755.31 1895.72C1754.75 1891.23 1760.7 1890.31 1762.12 1894.09C1763.34 1897.31 1763.24 1898.22 1763.19 1898.42C1763.28 1898.28 1763.87 1897.87 1767.55 1897.41C1772.04 1896.84 1772.72 1901.82 1768.95 1903.24C1765.46 1904.56 1764.27 1904.44 1764.11 1904.42C1764.21 1904.45 1764.66 1904.88 1765.26 1909.27C1765.94 1914.25 1761.2 1915.91 1758.94 1910.79C1757.65 1907.88 1757.45 1906.71 1757.52 1906.24C1757.11 1906.56 1756.07 1907.01 1753.4 1906.98C1749.27 1906.95 1748.71 1902.46 1751.99 1901.15C1755.01 1899.95 1756.17 1900.07 1756.34 1900.09C1756.24 1900.05 1755.81 1899.64 1755.31 1895.72Z" fill="#FFE600"/>
<path d="M1720.1 1968.75C1721.81 1964.56 1727.45 1966.69 1726.83 1970.67C1726.3 1974.08 1725.77 1974.82 1725.63 1974.97C1725.78 1974.9 1726.49 1974.83 1729.92 1976.23C1734.11 1977.95 1732.26 1982.62 1728.27 1982C1724.59 1981.43 1723.61 1980.74 1723.48 1980.64C1723.55 1980.72 1723.73 1981.31 1722.09 1985.44C1720.24 1990.11 1715.29 1989.22 1715.84 1983.65C1716.15 1980.49 1716.56 1979.37 1716.84 1978.99C1716.33 1979.07 1715.2 1978.95 1712.89 1977.61C1709.32 1975.55 1711.03 1971.36 1714.54 1971.84C1717.75 1972.28 1718.71 1972.95 1718.84 1973.06C1718.78 1972.97 1718.6 1972.4 1720.1 1968.75Z" fill="#FFE600"/>
<path d="M1765.44 1955.08C1767.16 1950.89 1772.79 1953.01 1772.17 1957C1771.64 1960.41 1771.11 1961.15 1770.97 1961.29C1771.12 1961.22 1771.83 1961.16 1775.26 1962.56C1779.45 1964.28 1777.6 1968.95 1773.62 1968.33C1769.93 1967.76 1768.95 1967.07 1768.82 1966.97C1768.89 1967.05 1769.07 1967.64 1767.44 1971.76C1765.58 1976.44 1760.64 1975.54 1761.19 1969.98C1761.5 1966.81 1761.9 1965.69 1762.19 1965.32C1761.68 1965.4 1760.55 1965.27 1758.23 1963.94C1754.66 1961.88 1756.38 1957.69 1759.88 1958.17C1763.09 1958.61 1764.05 1959.28 1764.19 1959.39C1764.12 1959.3 1763.94 1958.73 1765.44 1955.08Z" fill="#FFE600"/>
<path d="M1823.44 1993.08C1825.16 1988.89 1830.79 1991.01 1830.17 1995C1829.64 1998.41 1829.11 1999.15 1828.97 1999.29C1829.12 1999.22 1829.83 1999.16 1833.26 2000.56C1837.45 2002.28 1835.6 2006.95 1831.62 2006.33C1827.93 2005.76 1826.95 2005.07 1826.82 2004.97C1826.89 2005.05 1827.07 2005.64 1825.44 2009.76C1823.58 2014.44 1818.64 2013.54 1819.19 2007.98C1819.5 2004.81 1819.9 2003.69 1820.19 2003.32C1819.68 2003.4 1818.55 2003.27 1816.23 2001.94C1812.66 1999.88 1814.38 1995.69 1817.88 1996.17C1821.09 1996.61 1822.05 1997.28 1822.19 1997.39C1822.12 1997.3 1821.94 1996.73 1823.44 1993.08Z" fill="#FFE600"/>
<path d="M1909.57 1926.5C2061.57 1975 1909.57 2217.5 1763.57 2148.5L1754.57 2081C1811.07 2139.5 1913.3 2059.76 1865.57 2007C1817.7 1967.66 1830.97 1915.85 1909.57 1926.5Z" fill="#2E313D"/>
<path d="M1833.72 1945.22C1842.72 1924.42 1869.6 1914.45 1908.64 1919.32L1910.51 1919.56L1910.81 1919.61C1911.11 1919.66 1911.41 1919.74 1911.7 1919.83C1951.97 1932.68 1973 1958.89 1978.32 1990.18C1983.54 2020.89 1973.45 2055.36 1954.22 2085.34C1916.24 2144.53 1839.26 2190.71 1762.4 2155.67L1760.58 2154.83C1758.57 2153.88 1757.14 2152.03 1756.71 2149.86L1756.63 2149.43L1747.63 2081.93C1747.23 2078.93 1748.8 2076.01 1751.52 2074.7C1754.24 2073.38 1757.5 2073.96 1759.6 2076.14L1760.19 2076.74C1785.23 2102.03 1820.44 2097.8 1845.06 2080.05C1857.4 2071.15 1866.3 2059.31 1869.55 2047.23C1872.68 2035.6 1870.71 2023.33 1860.7 2012.05C1836.21 1991.74 1824.72 1966.01 1833.72 1945.22ZM1908.02 1933.36C1869.88 1928.33 1851.71 1938.9 1846.57 1950.78C1841.38 1962.76 1846.75 1982 1868.95 2000.7L1870.02 2001.59L1870.21 2001.76C1870.41 2001.93 1870.59 2002.11 1870.76 2002.3L1871.39 2003.01C1884.44 2017.85 1887.36 2034.91 1883.07 2050.86C1878.8 2066.75 1867.56 2081.08 1853.25 2091.4C1828.87 2108.98 1793.29 2116.24 1763.84 2097.6L1770 2143.73C1837.47 2173.21 1906.81 2133.31 1942.43 2077.78C1960.44 2049.71 1968.98 2018.76 1964.52 1992.53C1960.17 1967 1943.36 1944.81 1908.02 1933.36Z" fill="black"/>
<path d="M1504.57 1270L1592.57 1388.04C1602.55 1388.94 1612.59 1390.44 1622.57 1392.5C1589.92 1335.44 1562.16 1309.95 1504.57 1270Z" fill="#565A70"/>
<path d="M1704.57 1423.33L1827.07 1367.5C1762.01 1379.16 1728.27 1387.41 1688.24 1414.71C1693.82 1417.41 1699.27 1420.29 1704.57 1423.33Z" fill="#979EC4"/>
<path d="M1827.07 1367.5L1704.57 1423.33C1740.05 1443.7 1768.74 1471.63 1782.48 1504.5C1831.96 1462.93 1842.91 1433.37 1827.07 1367.5Z" fill="#FF9865"/>
<path d="M1504.57 1270C1474.49 1316.49 1463.92 1346.11 1473.07 1414.71C1504.85 1391.8 1548.15 1384.02 1592.57 1388.04L1504.57 1270Z" fill="#FFBA89"/>
<path d="M1424.07 1552C1474.58 1675.28 1663.26 1690.61 1744.57 1649.5C1793.62 1609.35 1800.43 1556.11 1782.48 1504.5C1768.74 1471.63 1740.05 1443.7 1704.57 1423.33C1699.27 1420.29 1693.82 1417.41 1688.24 1414.71C1667.59 1404.72 1645.24 1397.17 1622.57 1392.5C1612.59 1390.44 1602.55 1388.94 1592.57 1388.04C1548.15 1384.02 1504.85 1391.8 1473.07 1414.71C1430.29 1444.96 1406.25 1491.08 1424.07 1552Z" fill="#565A70"/>
<path d="M1424.07 1552C1474.58 1675.28 1663.26 1690.61 1744.57 1649.5C1777.93 1799.47 1407.34 1703.8 1406.09 1593.28C1405.94 1579.6 1411.44 1565.7 1424.07 1552Z" fill="#3E0070"/>
<path d="M1322.57 2246.5C1322.57 2246.5 1444.95 2189.75 1511.07 2128C1543.61 2198.51 1572.61 2256.99 1625.07 2268C1620.99 2300.13 1616.06 2315.77 1595.07 2324.5C1574.08 2333.23 1572.72 2414.19 1606.07 2398C1612.61 2417.19 1619.47 2412.52 1633.07 2406.5C1644.36 2419.82 1654.17 2417.99 1672.07 2406.5C1699.43 2396.87 1708.39 2371.6 1711.07 2329.5C1717.66 2310.48 1718.88 2298.6 1736.07 2278C1753.27 2241.9 1758.92 2220.67 1745.62 2177C1775.31 2108.31 1745.62 2019.4 1699.57 1991.5C1674.07 1985 1668.34 1850.84 1735.07 1809C1756.57 1841 1904.57 1852.5 1926.07 1836.5C1946.07 1840 1976.07 1832.5 1973.07 1815.5C1993.75 1808.32 1988.21 1803.13 1980.36 1795.77L1980.07 1795.5C1993.57 1788 1984.07 1774.5 1973.07 1774.5C1978.57 1750 1958.57 1745 1935.07 1756.5C1792.83 1740.07 1765.07 1705 1744.57 1649.5C1777.93 1799.47 1407.34 1703.8 1406.09 1593.28C1361.05 1572.62 1371.11 1483.18 1388.07 1436C1392.8 1405.26 1406.62 1398.96 1379.57 1390.5C1378.22 1378.39 1369.55 1377.56 1353.07 1378.5C1340.49 1370.77 1337.07 1374.5 1325.07 1383C1301.71 1376.41 1288.94 1406.66 1285.57 1455C1252.27 1609.62 1274.47 1679.56 1370.07 1737C1345.16 1823.65 1336.14 1874.32 1335.57 1970C1294.99 2023.1 1280.64 2056.21 1263.57 2122.5C1257.46 2114.33 1246.57 2104 1236.07 2095C1236.07 2064 1225.57 2045 1201.57 2064C1193.46 2047.13 1179.57 2049.5 1171.07 2066.5C1154.37 2071.12 1143.49 2077.04 1142.57 2095C1110.94 2119.74 1121 2134.45 1150.57 2174C1174.32 2192.41 1185.1 2202.69 1203.07 2224.5C1228.09 2252.29 1248.46 2264.95 1291.57 2262.5C1312.66 2263.29 1320.93 2245.18 1322.57 2219.86V2198C1322.97 2205.66 1323.01 2213.02 1322.57 2219.86V2246.5Z" fill="#3A3D4C"/>
<path d="M1503.21 1263.13C1505.07 1262.77 1507 1263.17 1508.56 1264.25C1565.79 1303.94 1594.41 1329.96 1627.08 1386.3C1647.92 1390.84 1668.44 1397.74 1687.64 1406.68C1727.56 1380.28 1762.42 1371.98 1825.84 1360.61L1826.18 1360.56C1829.7 1360.1 1833.04 1362.37 1833.88 1365.86C1841.91 1399.25 1843.47 1424.65 1835.91 1447.33C1828.73 1468.88 1813.63 1486.94 1790.61 1506.77C1798.71 1532.08 1801.08 1558.01 1795.48 1582.84C1789.82 1607.9 1776.15 1631.39 1752.87 1651.65C1762.5 1676.59 1773.98 1696.16 1797.99 1711.78C1823.63 1728.48 1864.28 1741.12 1933.89 1749.31C1945.71 1743.9 1958.04 1741.73 1967.52 1745.49C1972.83 1747.6 1977.05 1751.52 1979.27 1757.17C1980.68 1760.75 1981.18 1764.74 1980.92 1769.03C1985.81 1770.98 1989.91 1774.64 1992.07 1779.17C1993.78 1782.75 1994.37 1787.09 1992.8 1791.43C1992.22 1793.04 1991.39 1794.53 1990.34 1795.89C1990.54 1796.12 1990.73 1796.35 1990.92 1796.59C1992.52 1798.61 1994.69 1801.94 1994.4 1806.19C1994.08 1810.74 1991.16 1813.95 1988.09 1816.13C1985.99 1817.63 1983.32 1819 1980.12 1820.32C1979.58 1824.44 1977.72 1828.08 1975.03 1831.1C1971.29 1835.3 1966.04 1838.25 1960.62 1840.25C1950.65 1843.95 1938.19 1845.16 1927.56 1843.8C1923.75 1845.82 1918.9 1847.16 1913.86 1848.1C1907.27 1849.34 1899.27 1850.1 1890.45 1850.45C1872.79 1851.14 1851.24 1850.17 1829.77 1847.7C1808.31 1845.24 1786.67 1841.23 1768.89 1835.73C1760.01 1832.99 1751.91 1829.81 1745.22 1826.17C1740.99 1823.87 1737.1 1821.26 1733.9 1818.27C1706.63 1838.6 1693.16 1877.41 1689.7 1914.16C1687.89 1933.37 1688.91 1951.32 1691.81 1964.64C1693.27 1971.32 1695.13 1976.52 1697.13 1980.07C1699.11 1983.58 1700.66 1984.49 1701.2 1984.69L1701.3 1984.72L1701.55 1984.79C1702.13 1984.96 1702.68 1985.2 1703.2 1985.51C1728.26 2000.7 1747.99 2031.74 1757.74 2067.09C1767.33 2101.82 1767.63 2141.88 1753.04 2177.4C1759.29 2198.63 1761.21 2215.24 1759.23 2231.2C1757.31 2246.63 1751.8 2260.94 1743.98 2277.64L1742.39 2281.01C1742.14 2281.54 1741.82 2282.04 1741.44 2282.49C1725.53 2301.55 1724.53 2311.8 1717.99 2330.89C1716.61 2351.76 1713.63 2369.35 1707.16 2383.15C1700.54 2397.28 1690.3 2407.29 1675.17 2412.83C1666.47 2418.35 1658.34 2422.5 1650.36 2422.8C1642.99 2423.08 1636.87 2420.12 1631.39 2414.92C1629.69 2415.68 1628.01 2416.4 1626.46 2416.97C1623.52 2418.06 1619.92 2419.09 1616.14 2418.66C1609.41 2417.9 1605.14 2413.2 1602.04 2406.72C1599.21 2407.27 1596.41 2407.29 1593.66 2406.68C1588.6 2405.58 1584.68 2402.57 1581.8 2398.87C1576.28 2391.76 1573.84 2381.18 1573.2 2371.03C1572.56 2360.63 1573.72 2349.37 1576.53 2339.94C1577.94 2335.22 1579.83 2330.73 1582.29 2326.99C1584.73 2323.28 1588.02 2319.85 1592.38 2318.04C1601.43 2314.28 1606.55 2309.33 1610.11 2301.98C1613.41 2295.15 1615.47 2286.06 1617.3 2273.28C1591.77 2265.96 1571.93 2248.02 1554.92 2224.4C1538.1 2201.05 1523.54 2171.45 1508.71 2139.57C1475.64 2168.65 1431.76 2196.04 1395.46 2216.5C1375.92 2227.52 1358.45 2236.6 1345.87 2242.92C1339.58 2246.08 1334.5 2248.56 1330.99 2250.25C1329.24 2251.09 1327.88 2251.74 1326.95 2252.18C1326.48 2252.4 1326.13 2252.56 1325.89 2252.68C1325.77 2252.73 1325.68 2252.78 1325.61 2252.8C1325.58 2252.82 1325.56 2252.83 1325.54 2252.84C1325.53 2252.84 1325.53 2252.84 1325.52 2252.85C1325.52 2252.85 1325.52 2252.85 1325.52 2252.85C1325.52 2252.85 1325.52 2252.85 1323.54 2248.59L1323.54 2248.6L1325.51 2252.85C1324.12 2253.5 1322.58 2253.65 1321.12 2253.34C1320.83 2253.83 1320.54 2254.31 1320.24 2254.77C1314.07 2264.31 1304.53 2269.89 1291.64 2269.5C1269.48 2270.73 1252.47 2268.11 1237.58 2261.18C1223.17 2254.48 1211.36 2244.01 1199.06 2230.5L1197.87 2229.18C1197.8 2229.11 1197.73 2229.03 1197.67 2228.95C1180.61 2208.24 1170.32 2198.29 1148.44 2181.21L1146.28 2179.53C1145.84 2179.19 1145.45 2178.81 1145.11 2178.38L1144.96 2178.19C1137.61 2168.35 1131.26 2159.79 1126.47 2152.18C1121.71 2144.6 1118.12 2137.41 1116.75 2130.27C1115.31 2122.82 1116.35 2115.75 1120.2 2108.82C1123.53 2102.82 1128.83 2097.17 1135.85 2091.42C1136.91 2082.47 1140.4 2075.63 1146.29 2070.48C1151.78 2065.68 1158.86 2062.81 1166.31 2060.58C1170.96 2052.58 1177.57 2046.48 1185.7 2045.59C1192.94 2044.8 1199.04 2048.28 1203.62 2054.07C1207.95 2051.5 1212.22 2049.89 1216.43 2049.5C1223.15 2048.87 1228.84 2051.42 1233.02 2056.07C1236.95 2060.43 1239.38 2066.41 1240.87 2072.82C1242.18 2078.46 1242.87 2084.88 1243.03 2091.77C1248.94 2096.91 1254.97 2102.5 1260.18 2107.92C1275.91 2049.88 1291.1 2016.98 1328.58 1967.62C1329.28 1874.61 1338.12 1823.59 1361.87 1740.2C1315.78 1711.6 1286.34 1679.19 1272.78 1634.47C1258.94 1588.82 1262 1531.38 1278.62 1454.01C1280.35 1429.78 1284.45 1409.18 1291.59 1395.21C1295.21 1388.14 1299.88 1382.21 1305.97 1378.64C1311.32 1375.49 1317.28 1374.45 1323.54 1375.49C1325.45 1374.12 1327.28 1372.81 1328.94 1371.74C1331.37 1370.17 1334.05 1368.68 1337.08 1367.89C1343.17 1366.3 1348.75 1367.96 1354.81 1371.4C1362.01 1371.04 1368.94 1371.04 1374.39 1373.03C1377.68 1374.23 1380.65 1376.21 1382.87 1379.32C1384.14 1381.09 1385.03 1383.06 1385.63 1385.15C1390.67 1386.95 1394.8 1389 1397.74 1391.72C1399.73 1393.57 1401.22 1395.77 1402.05 1398.35C1402.87 1400.87 1402.93 1403.35 1402.7 1405.61C1402.28 1409.72 1400.63 1414.59 1399.24 1419.15C1397.74 1424.08 1396.1 1429.87 1394.99 1437.07C1394.94 1437.4 1394.86 1437.73 1394.76 1438.05L1394.66 1438.37C1386.43 1461.25 1379.86 1494.52 1380.82 1524.36C1381.64 1549.59 1387.7 1570.07 1400.28 1581.21C1402.48 1570.64 1407.76 1560.25 1416.3 1550.21C1408.19 1519.92 1409.96 1492.82 1419.34 1469.26C1428.57 1446.09 1444.97 1426.82 1465.6 1411.49C1461.53 1378.83 1461.99 1354.45 1467.31 1332.42C1472.84 1309.48 1483.51 1289.66 1498.69 1266.2L1498.89 1265.91C1499.93 1264.47 1501.47 1263.48 1503.21 1263.13ZM1349.4 1384.46C1343.65 1380.93 1341.75 1381.14 1340.63 1381.43C1339.73 1381.67 1338.51 1382.23 1336.53 1383.5C1334.5 1384.82 1332.3 1386.45 1329.11 1388.71C1327.39 1389.93 1325.2 1390.31 1323.17 1389.74C1319 1388.56 1315.81 1389.09 1313.06 1390.71C1310.08 1392.46 1306.98 1395.88 1304.06 1401.59C1298.18 1413.09 1294.22 1431.6 1292.55 1455.49C1292.53 1455.82 1292.48 1456.15 1292.41 1456.47C1275.83 1533.48 1273.37 1588.17 1286.18 1630.41C1298.26 1670.24 1324.2 1699.92 1367.16 1726.99C1367.92 1725.59 1368.69 1724.21 1369.41 1722.93C1371.84 1718.59 1373.77 1715.09 1374.49 1713.11C1375.81 1709.47 1379.83 1707.6 1383.46 1708.92C1387.09 1710.24 1388.97 1714.26 1387.65 1717.89C1386.44 1721.21 1383.77 1725.94 1381.63 1729.76C1379.26 1734 1377.42 1737.33 1376.72 1739.19C1352.4 1823.81 1343.42 1873.6 1342.6 1965.62L1342.57 1970.04C1342.56 1971.47 1342.11 1972.86 1341.3 1974.02L1341.13 1974.25C1301.86 2025.63 1287.69 2057.65 1271.17 2121.07C1278.25 2131.21 1280.32 2138.34 1285.07 2151.61L1286.14 2154.6L1286.26 2154.95C1287.35 2158.48 1285.48 2162.3 1281.96 2163.58C1278.44 2164.86 1274.56 2163.14 1273.12 2159.73L1272.99 2159.4L1271.86 2156.28C1266.69 2141.87 1265.34 2136.79 1258.67 2127.65L1257.96 2126.69C1252.35 2119.18 1241.97 2109.27 1231.51 2100.32C1229.96 2098.99 1229.07 2097.04 1229.07 2095C1229.07 2087.6 1228.44 2081.17 1227.23 2075.99C1226.01 2070.72 1224.31 2067.32 1222.61 2065.43C1221.17 2063.83 1219.73 2063.25 1217.73 2063.44C1215.29 2063.67 1211.41 2065.14 1205.91 2069.49C1204.24 2070.81 1202.07 2071.3 1200 2070.82C1197.92 2070.34 1196.18 2068.95 1195.26 2067.03C1191.82 2059.88 1188.54 2059.37 1187.23 2059.51C1185.18 2059.73 1181.16 2061.97 1177.33 2069.63C1176.44 2071.4 1174.84 2072.72 1172.93 2073.25C1164.73 2075.52 1159.16 2077.82 1155.51 2081.02C1152.24 2083.87 1149.94 2087.94 1149.56 2095.36C1149.45 2097.38 1148.48 2099.26 1146.88 2100.51C1139.28 2106.46 1134.82 2111.33 1132.44 2115.62C1130.2 2119.64 1129.67 2123.36 1130.49 2127.62C1131.38 2132.2 1133.87 2137.64 1138.32 2144.72C1142.64 2151.59 1148.44 2159.46 1155.61 2169.05C1179.17 2187.36 1190.29 2197.99 1208.36 2219.92C1220.6 2233.5 1231.17 2242.76 1243.49 2248.49C1255.74 2254.19 1270.38 2256.69 1291.17 2255.51L1291.5 2255.5C1291.61 2255.5 1291.72 2255.5 1291.83 2255.5C1299.86 2255.81 1304.89 2252.73 1308.48 2247.17C1312.41 2241.11 1314.76 2231.75 1315.57 2219.62V2198L1315.58 2197.65C1315.76 2194.01 1318.71 2191.1 1322.39 2191C1326.18 2190.9 1329.36 2193.84 1329.56 2197.63C1329.97 2205.4 1330.02 2212.96 1329.57 2220.07V2235.38C1332.39 2234 1335.76 2232.33 1339.58 2230.41C1352.01 2224.17 1369.28 2215.2 1388.59 2204.31C1426.02 2183.21 1470.71 2155.16 1502.93 2125.97C1489.9 2088.43 1483.2 2053.31 1479.6 2014.14L1493.54 2012.86C1497.19 2052.49 1504.04 2087.55 1517.55 2125.34C1533.82 2160.59 1548.91 2192.11 1566.28 2216.22C1583.63 2240.3 1602.67 2256.15 1626.51 2261.15L1626.86 2261.22C1628.66 2261.55 1630.58 2261.58 1633.01 2261.45C1635.33 2261.33 1638.8 2261 1642.07 2261C1645.94 2261 1649.07 2264.13 1649.07 2268C1649.07 2271.87 1645.94 2275 1642.07 2275C1639.24 2275 1637 2275.26 1633.74 2275.43C1632.9 2275.47 1632.02 2275.51 1631.12 2275.52C1629.26 2288.54 1626.94 2299.35 1622.71 2308.08C1617.54 2318.76 1609.7 2326 1597.76 2330.96C1596.87 2331.33 1595.53 2332.34 1594 2334.67C1592.5 2336.96 1591.1 2340.1 1589.95 2343.95C1587.65 2351.65 1586.62 2361.25 1587.18 2370.16C1587.75 2379.31 1589.91 2386.48 1592.86 2390.28C1594.21 2392.02 1595.49 2392.75 1596.66 2393.01C1597.85 2393.27 1599.86 2393.23 1603.01 2391.7L1603.35 2391.55C1605.08 2390.82 1607.03 2390.82 1608.76 2391.54C1610.62 2392.31 1612.05 2393.84 1612.69 2395.74C1614.23 2400.23 1615.55 2402.62 1616.55 2403.83C1617.35 2404.81 1617.67 2404.74 1617.71 2404.75C1618.16 2404.8 1619.23 2404.72 1621.6 2403.85C1623.99 2402.96 1626.56 2401.73 1630.24 2400.1L1630.5 2399.99C1633.28 2398.89 1636.46 2399.68 1638.41 2401.97C1643.28 2407.72 1646.68 2408.93 1649.83 2408.81C1653.85 2408.66 1659.34 2406.35 1668.29 2400.61L1668.64 2400.4C1668.99 2400.2 1669.36 2400.03 1669.74 2399.9L1670.84 2399.5C1682.02 2395.28 1689.4 2388.05 1694.49 2377.2C1699.91 2365.64 1702.76 2349.87 1704.08 2329.06L1704.1 2328.82C1704.16 2328.27 1704.28 2327.73 1704.46 2327.21C1710.75 2309.05 1712.43 2295.65 1730.12 2274.21C1738.44 2256.67 1743.61 2243.37 1745.34 2229.48C1746.56 2219.61 1746.09 2209.13 1743.42 2196.35C1741.33 2199.75 1739.07 2203.05 1736.63 2206.25C1734.29 2209.32 1729.9 2209.91 1726.82 2207.57C1723.75 2205.22 1723.16 2200.83 1725.5 2197.75C1731.03 2190.52 1735.56 2182.61 1739.19 2174.22L1739.84 2172.69C1753.28 2140.45 1753.24 2103.39 1744.25 2070.81C1735.18 2037.94 1717.34 2010.83 1696.66 1997.93C1691.35 1996.11 1687.57 1991.61 1684.94 1986.95C1682.01 1981.75 1679.76 1975.08 1678.13 1967.62C1674.87 1952.64 1673.85 1933.21 1675.76 1912.85C1679.55 1872.55 1695.18 1825.75 1731.35 1803.07L1731.65 1802.89C1734.81 1801.12 1738.84 1802.06 1740.88 1805.1C1742.66 1807.75 1746.21 1810.77 1751.91 1813.88C1757.52 1816.93 1764.68 1819.78 1773.03 1822.36C1789.72 1827.52 1810.45 1831.39 1831.37 1833.8C1852.27 1836.2 1873.09 1837.11 1889.91 1836.46C1898.32 1836.13 1905.58 1835.41 1911.28 1834.34C1917.25 1833.22 1920.56 1831.88 1921.89 1830.88L1922.18 1830.68C1923.68 1829.68 1925.5 1829.29 1927.28 1829.6C1936.11 1831.15 1947.35 1830.24 1955.76 1827.12C1959.97 1825.57 1962.91 1823.67 1964.57 1821.79C1966.05 1820.13 1966.51 1818.58 1966.18 1816.72C1965.58 1813.33 1967.53 1810.01 1970.78 1808.89C1975.39 1807.29 1978.13 1805.95 1979.66 1804.94C1979 1804.17 1978.14 1803.31 1977.01 1802.23L1975.57 1800.88L1975.28 1800.61L1975.28 1800.61C1973.65 1799.08 1972.85 1796.86 1973.12 1794.64C1973.4 1792.42 1974.71 1790.47 1976.67 1789.38C1978.97 1788.1 1979.51 1787.02 1979.63 1786.68C1979.74 1786.38 1979.79 1785.94 1979.44 1785.21C1978.57 1783.39 1975.95 1781.5 1973.07 1781.5C1970.94 1781.5 1968.93 1780.53 1967.6 1778.87C1966.28 1777.21 1965.77 1775.04 1966.24 1772.97C1967.42 1767.69 1967.04 1764.31 1966.24 1762.3C1965.53 1760.48 1964.31 1759.28 1962.36 1758.51C1957.86 1756.72 1949.26 1757.35 1938.15 1762.79C1936.94 1763.38 1935.6 1763.61 1934.27 1763.45C1862.85 1755.2 1819.02 1742.18 1790.35 1723.52C1772.46 1711.88 1760.75 1698.22 1751.95 1682.84C1750.61 1688.41 1748.5 1693.56 1745.65 1698.29C1737.61 1711.63 1724.27 1720.6 1708.22 1726.14C1676.37 1737.15 1631.64 1735.51 1586.84 1725.92C1541.85 1716.28 1495.63 1698.37 1460.4 1675.67C1442.79 1664.31 1427.68 1651.61 1416.87 1637.92C1407.04 1625.47 1400.54 1611.92 1399.3 1597.66C1375.82 1584.32 1367.79 1554.43 1366.83 1524.81C1365.81 1493.24 1372.63 1458.53 1381.26 1434.25C1382.52 1426.4 1384.31 1420.1 1385.85 1415.07C1387.53 1409.55 1388.53 1406.54 1388.77 1404.18C1388.88 1403.2 1388.77 1402.79 1388.73 1402.66C1388.71 1402.6 1388.65 1402.4 1388.21 1401.98C1387.02 1400.88 1384.15 1399.27 1377.48 1397.18C1374.91 1396.38 1373.04 1394.18 1372.64 1391.53L1372.61 1391.28C1372.36 1389.02 1371.84 1387.96 1371.48 1387.45C1371.17 1387.02 1370.7 1386.58 1369.59 1386.18C1366.96 1385.22 1362.58 1385.02 1355.02 1385.4L1353.47 1385.49C1352.04 1385.57 1350.62 1385.21 1349.4 1384.46ZM1485.93 2006.53C1489.78 2006.18 1493.19 2009.01 1493.54 2012.86L1479.6 2014.14C1479.25 2010.29 1482.08 2006.88 1485.93 2006.53ZM1422.38 1565.24C1415.72 1574.89 1412.99 1584.26 1413.09 1593.21L1413.12 1594.31C1413.54 1605.77 1418.59 1617.51 1427.85 1629.24C1437.42 1641.35 1451.21 1653.08 1467.99 1663.9C1501.55 1685.53 1546.13 1702.88 1589.77 1712.23C1633.61 1721.62 1675.36 1722.69 1703.65 1712.91C1717.66 1708.07 1727.81 1700.76 1733.66 1691.06C1738.45 1683.11 1740.76 1672.87 1739.22 1659.7C1696.38 1677.95 1631.86 1682.66 1571.25 1669.23C1510.03 1655.66 1451.05 1623.16 1422.38 1565.24ZM1591.94 1395.01C1549.25 1391.15 1508.44 1398.54 1478.58 1419.39L1477.16 1420.39C1477.15 1420.4 1477.13 1420.42 1477.11 1420.43C1456.57 1434.95 1440.88 1453.04 1432.35 1474.44C1423.89 1495.69 1422.29 1520.71 1430.69 1549.68C1454.81 1608.17 1511.96 1641.75 1574.28 1655.56C1636.44 1669.34 1701.79 1662.97 1740.72 1643.6C1763.76 1624.55 1776.64 1602.71 1781.82 1579.76C1787.05 1556.59 1784.53 1531.81 1775.94 1507.01C1763.15 1476.56 1736.48 1450.08 1702.7 1430.34L1701.08 1429.4C1696.57 1426.81 1691.95 1424.34 1687.22 1422.01L1685.19 1421.01C1665.7 1411.58 1644.63 1404.37 1623.23 1399.79L1621.16 1399.35C1612.04 1397.47 1602.87 1396.07 1593.76 1395.18L1591.94 1395.01ZM1719.48 1424.23C1747.69 1442.48 1771.13 1465.86 1784.94 1493.14C1805.08 1475.28 1816.94 1459.99 1822.63 1442.9C1828.4 1425.59 1828.17 1405.5 1822.15 1377.43L1719.48 1424.23ZM1767.39 1387C1742.41 1393.5 1722.72 1401.34 1702.19 1413.99C1703.1 1414.49 1704.01 1414.98 1704.91 1415.48L1767.39 1387ZM1505.04 1282.34C1493.18 1301.49 1485.26 1317.68 1480.92 1335.71C1476.5 1354 1475.65 1374.64 1478.67 1402.68C1507 1385.83 1541.98 1379.05 1577.95 1380.14L1505.04 1282.34ZM1596.33 1381.37C1600.47 1381.79 1604.63 1382.32 1608.78 1382.94C1587.74 1348.68 1567.71 1326.71 1538.06 1303.22L1596.33 1381.37Z" fill="black"/>
<path d="M1447.07 1667C1421.06 1644 1402.07 1628 1399.07 1597.5C1363.69 1583.59 1364.18 1479.14 1383.07 1432.5C1387.32 1422.5 1395.07 1399 1386.57 1399C1376.07 1397.5 1375.57 1395 1375.07 1390C1373.37 1384.75 1363.67 1383.09 1358.07 1385C1351.87 1387.14 1349.97 1385.53 1346.07 1382C1338.97 1376.08 1333.71 1379.7 1327.07 1390C1322.63 1388.81 1318.71 1387.92 1314.07 1390C1296.07 1403.5 1289.06 1443 1292.07 1453.5C1280.36 1477.52 1264.5 1576.7 1291.07 1644.5C1365.57 1713.5 1460.06 1693.5 1447.07 1667Z" fill="#979EC4"/>
<path d="M1559.07 1333.08C1565.13 1336.47 1568.03 1336.67 1572.07 1333.08C1557.02 1315.35 1534.07 1295.58 1532.07 1297.08L1559.07 1333.08Z" fill="#979EC4"/>
<path d="M1443.57 1664C1506.97 1705.9 1561.3 1726.26 1640.07 1733.5C1611.11 1800.94 1508.85 1834.74 1354.57 1828C1360.91 1788.18 1374.57 1738.5 1380.07 1732.5C1399.57 1702 1374.57 1703 1367.57 1727C1321.3 1701.69 1301.41 1680.04 1290.57 1643C1362.4 1710.69 1441.59 1695.2 1443.57 1664Z" fill="#565A70"/>
<path d="M1282.07 2143.5C1286.93 2089.44 1301.32 2050.91 1324.07 1998C1304.34 2022.67 1285.49 2064.36 1271.07 2121L1282.07 2143.5Z" fill="#565A70"/>
<path d="M1906.07 1942C1915.57 1942 1916.07 1935 1907.57 1933C1846.41 1925.9 1823.98 1960.81 1857.57 1991C1898 2017.67 1893.31 2068.21 1840.57 2099C1902.07 2094.5 1912.57 2001.5 1864.57 1979C1840.87 1958.04 1859.52 1946.87 1906.07 1942Z" fill="#3A3D4C"/>
<path d="M1649.06 2266.5C1704.56 2290 1766.57 2104.5 1698.57 1998.5C1738.57 2027 1769.88 2103 1737.88 2180.5C1720.06 2205 1725.56 2220.5 1743.06 2196.5C1751.26 2224.59 1749.92 2245.02 1728.38 2280L1706.38 2326C1704.74 2344.75 1701.78 2354.37 1698.38 2373C1688.98 2389.97 1682.34 2396.37 1667.56 2401C1651.14 2411.72 1644.57 2412.15 1637.57 2401.5L1637.48 2401.45C1634.74 2399.83 1633.3 2398.97 1628.06 2401C1617.99 2407.93 1614.48 2406.08 1611.57 2393.5C1608.86 2390.82 1606.75 2390.26 1601.51 2392.02C1601.36 2392.07 1601.22 2392.12 1601.07 2392.17C1581.35 2402.29 1587.67 2336.35 1596.57 2331.5C1618.57 2321 1627.04 2303.88 1631.06 2276C1642.88 2273.35 1649.49 2272.48 1649.06 2266.5Z" fill="#2E313D"/>
<path d="M1466.57 1578.5C1360.07 1491 1488.22 1337.25 1668.57 1413C1538.07 1396.06 1456.57 1490.5 1466.57 1578.5Z" fill="#979EC4"/>
<path d="M1783.57 1539C1751.08 1610.13 1722.19 1650.42 1581.07 1657C1707.9 1685.14 1793.07 1649 1783.57 1539Z" fill="#3A3D4C"/>
<path d="M1413.07 1597.5C1412.1 1587.43 1414.23 1580.5 1418.57 1571.5C1420.07 1610 1438.14 1634.34 1476.23 1661C1479.23 1664 1478.73 1669 1473.23 1667C1433.02 1641.37 1415.65 1625.03 1413.07 1597.5Z" fill="#7C00E0"/>
<path d="M1618.07 1695.5C1597.68 1695.9 1580.12 1701.47 1579.07 1710C1574.18 1709.87 1571.63 1709.03 1566.57 1705.5C1573.28 1698.23 1572.64 1680.97 1572.57 1669C1624.42 1677.43 1650.21 1685.85 1738.57 1660C1746.57 1700.5 1702.89 1731.96 1615.07 1716.5C1667.48 1719.02 1678.5 1712.82 1696.57 1690.5C1661.82 1691.88 1666.92 1697.72 1618.07 1695.5Z" fill="#280048"/>
<path d="M1585.07 1466.5C1585.07 1488.87 1562.69 1507 1535.07 1507C1507.46 1507 1485.07 1488.87 1485.07 1466.5C1485.07 1444.13 1507.46 1426 1535.07 1426C1562.69 1426 1585.07 1444.13 1585.07 1466.5Z" fill="white"/>
<path d="M1571.07 1466.5C1571.07 1454.48 1557.86 1440 1535.07 1440C1512.29 1440 1499.07 1454.48 1499.07 1466.5C1499.07 1478.52 1512.29 1493 1535.07 1493V1507C1507.46 1507 1485.07 1488.87 1485.07 1466.5C1485.07 1444.13 1507.46 1426 1535.07 1426C1562.69 1426 1585.07 1444.13 1585.07 1466.5C1585.07 1488.87 1562.69 1507 1535.07 1507V1493C1557.86 1493 1571.07 1478.52 1571.07 1466.5Z" fill="black"/>
<path d="M1743.96 1536.71C1735.4 1557.37 1707.78 1565.55 1682.27 1554.97C1656.76 1544.4 1643.02 1519.08 1651.59 1498.41C1660.15 1477.75 1687.77 1469.57 1713.28 1480.15C1738.79 1490.72 1752.53 1516.04 1743.96 1536.71Z" fill="white"/>
<path d="M1731.03 1531.34C1735.63 1520.24 1728.97 1501.8 1707.92 1493.08C1686.88 1484.36 1669.12 1492.67 1664.52 1503.77C1659.91 1514.88 1666.58 1533.32 1687.63 1542.04L1682.27 1554.97C1656.76 1544.4 1643.02 1519.08 1651.59 1498.41C1660.15 1477.75 1687.77 1469.57 1713.28 1480.15C1738.79 1490.72 1752.53 1516.04 1743.96 1536.71C1735.4 1557.37 1707.78 1565.55 1682.27 1554.97L1687.63 1542.04C1708.67 1550.76 1726.43 1542.45 1731.03 1531.34Z" fill="black"/>
<path d="M1565.07 1452C1565.07 1461.94 1550.3 1470 1532.07 1470C1513.84 1470 1499.07 1461.94 1499.07 1452C1499.07 1442.06 1513.84 1434 1532.07 1434C1550.3 1434 1565.07 1442.06 1565.07 1452Z" fill="black"/>
<path d="M1532.07 1434C1550.3 1434 1565.07 1442.06 1565.07 1452C1565.07 1461.94 1550.3 1470 1532.07 1470V1457C1539.44 1457 1545.46 1455.34 1549.18 1453.32C1550.1 1452.81 1550.76 1452.36 1551.22 1452C1550.76 1451.64 1550.1 1451.19 1549.18 1450.68C1545.46 1448.66 1539.44 1447 1532.07 1447C1524.7 1447 1518.68 1448.66 1514.96 1450.68C1514.04 1451.19 1513.38 1451.64 1512.92 1452C1513.38 1452.36 1514.04 1452.81 1514.96 1453.32C1518.68 1455.34 1524.7 1457 1532.07 1457V1470C1513.84 1470 1499.07 1461.94 1499.07 1452C1499.07 1442.06 1513.84 1434 1532.07 1434Z" fill="black"/>
<path d="M1727.37 1502C1727.53 1511.94 1712.9 1520.24 1694.67 1520.55C1676.45 1520.86 1661.54 1513.05 1661.37 1503.11C1661.21 1493.17 1675.84 1484.87 1694.07 1484.56C1712.29 1484.25 1727.2 1492.06 1727.37 1502Z" fill="black"/>
<path d="M1694.07 1484.56C1712.29 1484.25 1727.2 1492.06 1727.37 1502C1727.53 1511.94 1712.9 1520.24 1694.67 1520.55L1694.45 1507.56C1701.82 1507.43 1707.82 1505.67 1711.5 1503.58C1712.42 1503.06 1713.06 1502.6 1713.52 1502.23C1713.05 1501.88 1712.39 1501.44 1711.45 1500.95C1707.7 1498.99 1701.65 1497.43 1694.29 1497.56C1686.92 1497.68 1680.92 1499.44 1677.24 1501.53C1676.32 1502.05 1675.68 1502.51 1675.22 1502.88C1675.69 1503.24 1676.35 1503.67 1677.29 1504.16C1681.04 1506.13 1687.09 1507.68 1694.45 1507.56L1694.67 1520.55C1676.45 1520.86 1661.54 1513.05 1661.37 1503.11C1661.21 1493.17 1675.84 1484.87 1694.07 1484.56Z" fill="black"/>
<path d="M1526.07 1451C1526.07 1453.76 1523.83 1456 1521.07 1456C1518.31 1456 1516.07 1453.76 1516.07 1451C1516.07 1448.24 1518.31 1446 1521.07 1446C1523.83 1446 1526.07 1448.24 1526.07 1451Z" fill="white"/>
<path d="M1686.07 1499.5C1686.07 1501.99 1684.06 1504 1681.57 1504C1679.09 1504 1677.07 1501.99 1677.07 1499.5C1677.07 1497.01 1679.09 1495 1681.57 1495C1684.06 1495 1686.07 1497.01 1686.07 1499.5Z" fill="white"/>
<g filter="url(#filter0_d_611_690)">
<path d="M1345.29 1404.07C1343.44 1411.65 1337.94 1416.82 1333.01 1415.61C1328.07 1414.41 1325.57 1407.29 1327.42 1399.72C1329.27 1392.14 1334.76 1386.98 1339.7 1388.18C1344.63 1389.38 1347.13 1396.5 1345.29 1404.07Z" fill="#FF9865"/>
</g>
<g filter="url(#filter1_d_611_690)">
<path d="M1338.49 1402.42C1339.13 1399.75 1338.93 1397.48 1338.43 1396.06C1338.27 1395.61 1338.12 1395.32 1338 1395.14C1337.81 1395.24 1337.54 1395.43 1337.19 1395.76C1336.1 1396.79 1334.87 1398.71 1334.22 1401.38C1333.57 1404.04 1333.77 1406.31 1334.27 1407.73C1334.43 1408.18 1334.58 1408.47 1334.7 1408.66C1334.89 1408.55 1335.16 1408.36 1335.51 1408.04C1336.61 1407 1337.84 1405.08 1338.49 1402.42ZM1345.1 1404.78C1343.1 1411.97 1337.79 1416.78 1333.01 1415.61L1332.78 1415.55C1328.15 1414.23 1325.75 1407.62 1327.26 1400.43L1327.42 1399.72C1329.27 1392.14 1334.76 1386.98 1339.7 1388.18C1344.63 1389.38 1347.13 1396.5 1345.29 1404.07L1345.1 1404.78Z" fill="black"/>
</g>
<g filter="url(#filter2_d_611_690)">
<path d="M1365.74 1408.65C1362.4 1415.69 1355.97 1419.63 1351.38 1417.45C1346.79 1415.27 1345.79 1407.8 1349.13 1400.75C1352.48 1393.71 1358.91 1389.77 1363.5 1391.95C1368.08 1394.13 1369.09 1401.6 1365.74 1408.65Z" fill="#FF9865"/>
</g>
<g filter="url(#filter3_d_611_690)">
<path d="M1359.42 1405.64C1360.6 1403.17 1360.86 1400.9 1360.66 1399.41C1360.6 1398.93 1360.5 1398.62 1360.42 1398.41C1360.22 1398.48 1359.92 1398.61 1359.51 1398.86C1358.22 1399.65 1356.63 1401.28 1355.45 1403.76C1354.28 1406.23 1354.02 1408.5 1354.22 1409.99C1354.28 1410.47 1354.37 1410.78 1354.45 1410.98C1354.66 1410.92 1354.96 1410.79 1355.37 1410.54C1356.65 1409.75 1358.24 1408.12 1359.42 1405.64ZM1365.42 1409.3C1362 1415.93 1355.82 1419.56 1351.38 1417.45L1351.17 1417.35C1346.9 1415.11 1345.9 1408.15 1348.83 1401.42L1349.13 1400.75C1352.48 1393.71 1358.91 1389.77 1363.5 1391.95C1368.09 1394.13 1369.09 1401.6 1365.74 1408.65L1365.42 1409.3Z" fill="black"/>
</g>
<g filter="url(#filter4_d_611_690)">
<path d="M1383.31 1424.5C1379.41 1431.25 1372.68 1434.66 1368.28 1432.12C1363.89 1429.58 1363.49 1422.04 1367.39 1415.29C1371.3 1408.54 1378.03 1405.13 1382.42 1407.67C1386.82 1410.22 1387.22 1417.75 1383.31 1424.5Z" fill="#FF9865"/>
</g>
<g filter="url(#filter5_d_611_690)">
<path d="M1377.25 1421C1378.63 1418.62 1379.07 1416.38 1378.99 1414.88C1378.96 1414.4 1378.9 1414.08 1378.84 1413.87C1378.62 1413.92 1378.31 1414.03 1377.89 1414.24C1376.54 1414.92 1374.82 1416.42 1373.45 1418.8C1372.08 1421.17 1371.64 1423.41 1371.71 1424.91C1371.74 1425.39 1371.8 1425.71 1371.87 1425.92C1372.08 1425.87 1372.39 1425.77 1372.82 1425.55C1374.16 1424.87 1375.88 1423.37 1377.25 1421ZM1382.94 1425.12C1378.99 1431.46 1372.54 1434.58 1368.28 1432.12L1368.08 1432C1364.01 1429.43 1363.57 1422.4 1367.04 1415.93L1367.39 1415.29C1371.3 1408.54 1378.03 1405.13 1382.42 1407.67C1386.82 1410.22 1387.22 1417.75 1383.31 1424.5L1382.94 1425.12Z" fill="black"/>
</g>
<g filter="url(#filter6_d_611_690)">
<path d="M1325.73 1412.06C1326.47 1419.82 1322.97 1426.5 1317.92 1426.99C1312.86 1427.47 1308.16 1421.57 1307.42 1413.81C1306.68 1406.05 1310.17 1399.36 1315.23 1398.88C1320.28 1398.39 1324.98 1404.29 1325.73 1412.06Z" fill="#FF9865"/>
</g>
<g filter="url(#filter7_d_611_690)">
<path d="M1318.76 1412.72C1318.5 1409.99 1317.56 1407.91 1316.62 1406.74C1316.32 1406.36 1316.08 1406.14 1315.91 1406C1315.77 1406.17 1315.57 1406.43 1315.35 1406.86C1314.65 1408.19 1314.13 1410.41 1314.39 1413.14C1314.65 1415.87 1315.59 1417.95 1316.53 1419.13C1316.82 1419.5 1317.06 1419.73 1317.24 1419.86C1317.38 1419.7 1317.57 1419.43 1317.8 1419.01C1318.49 1417.67 1319.02 1415.45 1318.76 1412.72ZM1325.78 1412.78C1326.25 1420.23 1322.82 1426.52 1317.92 1426.99L1317.68 1427.01C1312.88 1427.28 1308.44 1421.81 1307.5 1414.53L1307.42 1413.81C1306.68 1406.05 1310.17 1399.36 1315.23 1398.88C1320.28 1398.39 1324.98 1404.29 1325.73 1412.06L1325.78 1412.78Z" fill="black"/>
</g>
<path d="M1330.57 1426.5C1327.54 1432.19 1324.26 1434.62 1312.57 1435C1297.07 1472.5 1362.07 1480 1363.57 1443C1354.34 1442.83 1352.06 1438.57 1350.57 1429.5C1346.57 1420.5 1334.57 1419.5 1330.57 1426.5Z" fill="#FF9865"/>
<path d="M1327.81 1424.3C1330.74 1419.65 1336.1 1417.91 1341 1418.53C1345.96 1419.15 1350.91 1422.17 1353.52 1427.55L1353.77 1428.08L1353.85 1428.29C1353.93 1428.49 1353.99 1428.71 1354.02 1428.93L1354.17 1429.76C1354.88 1433.76 1355.69 1435.99 1356.82 1437.31C1357.82 1438.47 1359.53 1439.43 1363.63 1439.5L1363.81 1439.51C1364.69 1439.57 1365.51 1439.96 1366.12 1440.6C1366.76 1441.28 1367.11 1442.2 1367.07 1443.14C1366.65 1453.56 1361.68 1461.06 1354.69 1465.57C1347.82 1470.01 1339.17 1471.47 1331.23 1470.41C1323.31 1469.35 1315.61 1465.71 1310.96 1459.34C1306.19 1452.79 1305.08 1443.96 1309.34 1433.66L1309.44 1433.43C1310.01 1432.29 1311.17 1431.54 1312.46 1431.5L1313.5 1431.46C1318.55 1431.23 1321.39 1430.57 1323.22 1429.63C1324.98 1428.72 1326.13 1427.39 1327.48 1424.85L1327.53 1424.76L1327.81 1424.3ZM1340.14 1425.47C1337.2 1425.11 1334.75 1426.24 1333.61 1428.24C1331.94 1431.35 1329.94 1434.05 1326.41 1435.86C1323.5 1437.35 1319.83 1438.09 1315.04 1438.39C1312.53 1445.8 1313.77 1451.31 1316.62 1455.21C1319.84 1459.64 1325.58 1462.59 1332.16 1463.47C1338.72 1464.35 1345.64 1463.09 1350.89 1459.69C1355.29 1456.85 1358.65 1452.46 1359.73 1446.17C1356.36 1445.61 1353.6 1444.3 1351.51 1441.87C1349 1438.94 1347.94 1434.91 1347.2 1430.55C1345.69 1427.5 1342.91 1425.82 1340.14 1425.47Z" fill="black"/>
<g filter="url(#filter8_d_611_690)">
<path d="M1946.52 1779.35C1940.18 1780.18 1934.61 1777.52 1934.07 1773.42C1933.54 1769.32 1938.25 1765.32 1944.59 1764.5C1950.93 1763.67 1956.5 1766.33 1957.04 1770.43C1957.57 1774.53 1952.87 1778.53 1946.52 1779.35Z" fill="#FF9865"/>
</g>
<g filter="url(#filter9_d_611_690)">
<path d="M1945.88 1774.4C1948.24 1774.09 1950.06 1773.21 1951.13 1772.31C1951.91 1771.64 1952.05 1771.21 1952.07 1771.08C1952.02 1770.95 1951.77 1770.57 1950.84 1770.13C1949.58 1769.53 1947.59 1769.15 1945.23 1769.45C1942.88 1769.76 1941.05 1770.64 1939.99 1771.54C1939.21 1772.21 1939.06 1772.64 1939.04 1772.77C1939.1 1772.9 1939.35 1773.28 1940.27 1773.72C1941.53 1774.32 1943.52 1774.7 1945.88 1774.4ZM1945.93 1779.42C1939.84 1780.01 1934.59 1777.4 1934.07 1773.42L1934.05 1773.23C1933.7 1769.32 1938.05 1765.56 1944 1764.58L1944.59 1764.5C1950.93 1763.67 1956.5 1766.33 1957.04 1770.43C1957.57 1774.53 1952.87 1778.53 1946.52 1779.35L1945.93 1779.42Z" fill="black"/>
</g>
<g filter="url(#filter10_d_611_690)">
<path d="M1957.73 1793.42C1951.89 1793.45 1947.13 1790.03 1947.11 1785.78C1947.09 1781.54 1951.81 1778.08 1957.66 1778.05C1963.5 1778.02 1968.26 1781.44 1968.28 1785.69C1968.3 1789.93 1963.57 1793.39 1957.73 1793.42Z" fill="#FF9865"/>
</g>
<g filter="url(#filter11_d_611_690)">
<path d="M1957.71 1788.42C1959.69 1788.41 1961.28 1787.81 1962.25 1787.1C1963.22 1786.39 1963.28 1785.83 1963.28 1785.71C1963.28 1785.58 1963.21 1785.03 1962.23 1784.32C1961.26 1783.62 1959.66 1783.04 1957.68 1783.05C1955.7 1783.06 1954.11 1783.66 1953.14 1784.37C1952.17 1785.08 1952.11 1785.63 1952.11 1785.76L1947.11 1785.78L1947.12 1785.39C1947.38 1781.46 1951.7 1778.29 1957.11 1778.06L1957.66 1778.05C1963.5 1778.02 1968.26 1781.44 1968.28 1785.69L1968.27 1786.08C1968 1790.14 1963.39 1793.39 1957.73 1793.42L1957.18 1793.41C1951.59 1793.23 1947.13 1789.9 1947.11 1785.78L1952.11 1785.76C1952.11 1785.89 1952.17 1786.44 1953.16 1787.15C1954.13 1787.85 1955.72 1788.43 1957.71 1788.42Z" fill="black"/>
</g>
<g filter="url(#filter12_d_611_690)">
<path d="M1956.92 1809.22C1951.28 1807.86 1947.47 1803.63 1948.4 1799.77C1949.33 1795.92 1954.65 1793.89 1960.29 1795.25C1965.92 1796.61 1969.74 1800.84 1968.81 1804.7C1967.88 1808.55 1962.55 1810.58 1956.92 1809.22Z" fill="#FF9865"/>
</g>
<g filter="url(#filter13_d_611_690)">
<path d="M1958.09 1804.36C1960.05 1804.83 1961.75 1804.66 1962.85 1804.24C1963.38 1804.04 1963.69 1803.81 1963.83 1803.67C1963.9 1803.6 1963.93 1803.56 1963.94 1803.54C1963.94 1803.53 1963.95 1803.53 1963.95 1803.52L1963.95 1803.52C1963.95 1803.52 1963.95 1803.52 1963.95 1803.51C1963.95 1803.49 1963.94 1803.43 1963.91 1803.34C1963.85 1803.15 1963.68 1802.81 1963.3 1802.38C1962.51 1801.51 1961.08 1800.58 1959.11 1800.11C1957.15 1799.64 1955.45 1799.81 1954.35 1800.23C1953.82 1800.43 1953.52 1800.66 1953.37 1800.8C1953.3 1800.87 1953.27 1800.91 1953.26 1800.93C1953.26 1800.94 1953.26 1800.95 1953.26 1800.95L1953.26 1800.95L1948.4 1799.77L1948.5 1799.42C1949.62 1795.91 1954.5 1794.05 1959.76 1795.13L1960.29 1795.25C1965.92 1796.61 1969.74 1800.84 1968.81 1804.7L1968.71 1805.05C1967.54 1808.68 1962.38 1810.54 1956.92 1809.22L1956.39 1809.09C1951.05 1807.6 1947.49 1803.51 1948.4 1799.77L1953.26 1800.95L1953.26 1800.95C1953.26 1800.95 1953.26 1800.95 1953.26 1800.96C1953.26 1800.98 1953.26 1801.04 1953.29 1801.13C1953.36 1801.32 1953.52 1801.66 1953.91 1802.09C1954.69 1802.95 1956.12 1803.89 1958.09 1804.36Z" fill="black"/>
</g>
<g filter="url(#filter14_d_611_690)">
<path d="M1943.54 1821.5C1938.31 1818.99 1935.47 1814.06 1937.18 1810.48C1938.9 1806.9 1944.53 1806.03 1949.76 1808.54C1954.98 1811.05 1957.83 1815.98 1956.11 1819.56C1954.4 1823.14 1948.77 1824.01 1943.54 1821.5Z" fill="#FF9865"/>
</g>
<g filter="url(#filter15_d_611_690)">
<path d="M1945.7 1816.99C1947.53 1817.87 1949.22 1818.05 1950.38 1817.87C1950.95 1817.78 1951.29 1817.62 1951.46 1817.52C1951.54 1817.46 1951.58 1817.42 1951.59 1817.41C1951.6 1817.4 1951.6 1817.4 1951.6 1817.4L1951.61 1817.4C1951.61 1817.4 1951.61 1817.39 1951.61 1817.38C1951.61 1817.36 1951.62 1817.31 1951.61 1817.21C1951.59 1817.01 1951.49 1816.64 1951.21 1816.15C1950.62 1815.13 1949.42 1813.92 1947.59 1813.05C1945.77 1812.17 1944.07 1811.99 1942.91 1812.17C1942.35 1812.26 1942.01 1812.41 1941.83 1812.52C1941.75 1812.58 1941.71 1812.61 1941.7 1812.63C1941.69 1812.64 1941.69 1812.64 1941.69 1812.64L1941.69 1812.64L1937.18 1810.48L1937.35 1810.15C1939.19 1806.96 1944.34 1806.16 1949.26 1808.31L1949.75 1808.54C1954.98 1811.05 1957.83 1815.98 1956.11 1819.56L1955.94 1819.89C1954.05 1823.19 1948.6 1823.93 1943.54 1821.5L1943.06 1821.26C1938.14 1818.68 1935.52 1813.95 1937.18 1810.48L1941.69 1812.64L1941.69 1812.64C1941.69 1812.64 1941.69 1812.65 1941.69 1812.66C1941.68 1812.68 1941.68 1812.73 1941.69 1812.83C1941.71 1813.03 1941.8 1813.4 1942.09 1813.89C1942.67 1814.91 1943.88 1816.12 1945.7 1816.99Z" fill="black"/>
</g>
<path d="M1939.57 1787.5C1935.85 1784.87 1931.5 1785.89 1931.07 1775.5C1906.63 1762.15 1905.57 1829.5 1931.07 1813.5C1931.03 1805.28 1934.74 1803.43 1940.57 1802C1946.31 1798.33 1944.15 1790.98 1939.57 1787.5Z" fill="#FF9865"/>
<path d="M1946.41 1794.32C1946.91 1797.8 1945.78 1801.45 1942.26 1803.87L1941.91 1804.11L1941.74 1804.21C1941.56 1804.3 1941.36 1804.38 1941.16 1804.43C1938.27 1805.14 1936.51 1805.84 1935.39 1806.96C1934.45 1807.92 1933.65 1809.52 1933.57 1812.81L1933.57 1813.49L1933.56 1813.65C1933.52 1814.45 1933.08 1815.19 1932.4 1815.62C1928.89 1817.81 1925.55 1818.77 1922.45 1818.39C1919.3 1818.02 1916.8 1816.32 1914.93 1814C1911.3 1809.49 1909.77 1802.31 1909.84 1795.47C1909.91 1788.6 1911.59 1781.33 1915.17 1776.55C1916.99 1774.12 1919.41 1772.22 1922.45 1771.52C1925.5 1770.82 1928.82 1771.42 1932.27 1773.3L1932.41 1773.39C1933.1 1773.82 1933.53 1774.57 1933.57 1775.39L1933.62 1776.27C1933.91 1780.46 1934.92 1781.83 1935.71 1782.51C1936.23 1782.95 1936.85 1783.27 1937.79 1783.71C1938.66 1784.12 1939.86 1784.64 1941.01 1785.46L1941.08 1785.51L1941.34 1785.71C1943.97 1787.81 1945.93 1790.99 1946.41 1794.32ZM1939.52 1799.69C1941.23 1798.46 1941.72 1796.81 1941.46 1795.04C1941.17 1793.02 1939.89 1790.89 1938.09 1789.51C1937.39 1789.03 1936.66 1788.7 1935.68 1788.24C1934.74 1787.81 1933.55 1787.24 1932.46 1786.31C1930.32 1784.48 1929.06 1781.7 1928.67 1777.1C1926.58 1776.19 1924.9 1776.08 1923.57 1776.39C1921.97 1776.76 1920.49 1777.8 1919.17 1779.55C1916.48 1783.15 1914.9 1789.22 1914.84 1795.52C1914.78 1801.85 1916.24 1807.66 1918.82 1810.87C1920.06 1812.4 1921.46 1813.24 1923.04 1813.43C1924.45 1813.6 1926.28 1813.29 1928.6 1812.04C1928.79 1808.31 1929.81 1805.5 1931.84 1803.45C1933.92 1801.35 1936.74 1800.39 1939.52 1799.69Z" fill="black"/>
<path d="M1628.39 1534.5C1614.78 1522.89 1599.07 1520 1580.07 1517.5C1578.43 1534.31 1583.68 1537.34 1591.07 1545L1596.32 1546.75L1602.07 1548.5C1611.99 1545.15 1620.54 1545.64 1628.39 1534.5Z" fill="#FF9865"/>
<path d="M1576.34 1512.8C1577.61 1511.79 1579.24 1511.34 1580.85 1511.55C1599.84 1514.05 1617.19 1517.06 1632.28 1529.94L1632.5 1530.13C1634.66 1532.16 1635.02 1535.5 1633.29 1537.96C1623.95 1551.21 1612.09 1551.45 1603.99 1554.18C1602.8 1554.59 1601.52 1554.6 1600.32 1554.24L1599.58 1554.01L1595.94 1561.92C1607.97 1579.67 1612.21 1589.58 1613.87 1603.44L1614.04 1604.87L1614.06 1605.18C1614.23 1608.35 1611.89 1611.13 1608.7 1611.47C1605.51 1611.8 1602.63 1609.57 1602.14 1606.44L1602.1 1606.13L1601.97 1604.97C1600.66 1593.91 1597.59 1585.9 1586.73 1569.72C1579.37 1572.46 1574.08 1574.91 1569.61 1577.59C1564.67 1580.53 1560.56 1583.86 1555.69 1588.42L1554.7 1589.35C1552.3 1591.63 1548.5 1591.54 1546.22 1589.13C1543.94 1586.73 1544.03 1582.93 1546.43 1580.65L1547.49 1579.66C1552.72 1574.76 1557.53 1570.82 1563.45 1567.28C1569.21 1563.84 1575.85 1560.88 1584.67 1557.69L1588.12 1550.22C1587.72 1550 1587.35 1549.73 1587.01 1549.42L1586.75 1549.16C1583.63 1545.92 1579.44 1542.3 1576.89 1537.5C1574.09 1532.24 1573.21 1525.95 1574.1 1516.92L1574.13 1516.62C1574.36 1515.11 1575.14 1513.75 1576.34 1512.8ZM1585.79 1524.35C1585.91 1528.05 1586.62 1530.25 1587.48 1531.86C1588.86 1534.46 1590.77 1536.12 1594.34 1539.77L1598.14 1541.03L1602.01 1542.21C1610.22 1539.65 1615.07 1539.49 1619.67 1535.41C1610.13 1529 1599.26 1526.36 1585.79 1524.35Z" fill="black"/>
<path d="M1568.07 1683.5C1568.07 1697.03 1557.1 1708 1543.57 1708C1533.6 1708 1525.02 1702.05 1521.2 1693.5C1519.83 1690.45 1519.07 1687.06 1519.07 1683.5C1519.07 1669.97 1530.04 1659 1543.57 1659C1550.17 1659 1556.17 1661.61 1560.57 1665.86C1565.2 1670.31 1568.07 1676.57 1568.07 1683.5Z" fill="#FFE600"/>
<path d="M1560.57 1683.5C1560.57 1682.1 1560.4 1680.74 1560.08 1679.44C1556.55 1683.78 1552.82 1687.36 1548.49 1690.34C1544.12 1693.36 1539.36 1695.64 1533.98 1697.54C1536.72 1699.41 1540.02 1700.5 1543.57 1700.5C1552.96 1700.5 1560.57 1692.89 1560.57 1683.5ZM1526.57 1683.5C1526.57 1683.73 1526.58 1683.96 1526.59 1684.19C1532.21 1682.4 1536.39 1680.47 1539.96 1678.01C1543.5 1675.56 1546.71 1672.4 1550.14 1667.81C1548.12 1666.97 1545.9 1666.5 1543.57 1666.5C1534.18 1666.5 1526.57 1674.11 1526.57 1683.5ZM1575.57 1683.5C1575.57 1701.17 1561.25 1715.5 1543.57 1715.5C1530.74 1715.5 1519.69 1707.95 1514.59 1697.08L1514.35 1696.56C1512.56 1692.57 1511.57 1688.14 1511.57 1683.5C1511.57 1665.83 1525.9 1651.5 1543.57 1651.5C1552.19 1651.5 1560.03 1654.92 1565.78 1660.46L1566.34 1661.01C1572.04 1666.78 1575.57 1674.73 1575.57 1683.5Z" fill="black"/>
<path d="M1478.07 1403.5L1491.57 1395.5C1480.15 1359.19 1499.07 1288.5 1509.57 1304.5C1517.74 1306.05 1520.2 1305.98 1521.57 1304.5L1505.07 1281.5C1479.06 1326.79 1470.51 1353.76 1478.07 1403.5Z" fill="#FF9865"/>
<path d="M1413.36 1209.41L1450.09 1253.86L1456.23 1192.63L1506.36 1176.39L1459.9 1147.72L1460.52 1092.78L1424.17 1135.06L1366.1 1130.78L1396.57 1167.44L1361.53 1214.73L1413.36 1209.41Z" fill="#FFFF02"/>
<path d="M1466.44 1144.11L1521.73 1178.24L1462.27 1197.5L1455.01 1270.01L1415.33 1222L1279.26 1563.08L1267.18 1558.26L1403.34 1216.97L1347.53 1222.7L1388.31 1167.67L1351.33 1123.17L1421.38 1128.33L1467.21 1075.01L1466.44 1144.11ZM1426.97 1141.78L1380.87 1138.38L1404.83 1167.21L1375.53 1206.76L1416.15 1202.58L1445.18 1237.71L1450.18 1187.75L1490.98 1174.53L1453.36 1151.32L1453.82 1110.54L1426.97 1141.78Z" fill="#FF45FF"/>
<g filter="url(#filter16_f_611_690)">
<path d="M1413.36 1209.41L1450.1 1253.86L1456.23 1192.63L1506.36 1176.39L1459.9 1147.71L1460.52 1092.78L1424.17 1135.06L1366.1 1130.78L1396.57 1167.44L1361.53 1214.73L1413.36 1209.41Z" fill="#FFFFAF"/>
</g>
</g>
<defs>
<filter id="filter0_d_611_690" x="1322.81" y="1388" width="27.085" height="35.7837" filterUnits="userSpaceOnUse" color-interpolation-filters="sRGB">
<feFlood flood-opacity="0" result="BackgroundImageFix"/>
<feColorMatrix in="SourceAlpha" type="matrix" values="0 0 0 0 0 0 0 0 0 0 0 0 0 0 0 0 0 0 127 0" result="hardAlpha"/>
<feOffset dy="4"/>
<feGaussianBlur stdDeviation="2"/>
<feComposite in2="hardAlpha" operator="out"/>
<feColorMatrix type="matrix" values="0 0 0 0 0 0 0 0 0 0 0 0 0 0 0 0 0 0 0.25 0"/>
<feBlend mode="normal" in2="BackgroundImageFix" result="effect1_dropShadow_611_690"/>
<feBlend mode="normal" in="SourceGraphic" in2="effect1_dropShadow_611_690" result="shape"/>
</filter>
<filter id="filter1_d_611_690" x="1322.81" y="1388" width="27.085" height="35.7832" filterUnits="userSpaceOnUse" color-interpolation-filters="sRGB">
<feFlood flood-opacity="0" result="BackgroundImageFix"/>
<feColorMatrix in="SourceAlpha" type="matrix" values="0 0 0 0 0 0 0 0 0 0 0 0 0 0 0 0 0 0 127 0" result="hardAlpha"/>
<feOffset dy="4"/>
<feGaussianBlur stdDeviation="2"/>
<feComposite in2="hardAlpha" operator="out"/>
<feColorMatrix type="matrix" values="0 0 0 0 0 0 0 0 0 0 0 0 0 0 0 0 0 0 0.25 0"/>
<feBlend mode="normal" in2="BackgroundImageFix" result="effect1_dropShadow_611_690"/>
<feBlend mode="normal" in="SourceGraphic" in2="effect1_dropShadow_611_690" result="shape"/>
</filter>
<filter id="filter2_d_611_690" x="1343.16" y="1391.35" width="28.5645" height="34.7075" filterUnits="userSpaceOnUse" color-interpolation-filters="sRGB">
<feFlood flood-opacity="0" result="BackgroundImageFix"/>
<feColorMatrix in="SourceAlpha" type="matrix" values="0 0 0 0 0 0 0 0 0 0 0 0 0 0 0 0 0 0 127 0" result="hardAlpha"/>
<feOffset dy="4"/>
<feGaussianBlur stdDeviation="2"/>
<feComposite in2="hardAlpha" operator="out"/>
<feColorMatrix type="matrix" values="0 0 0 0 0 0 0 0 0 0 0 0 0 0 0 0 0 0 0.25 0"/>
<feBlend mode="normal" in2="BackgroundImageFix" result="effect1_dropShadow_611_690"/>
<feBlend mode="normal" in="SourceGraphic" in2="effect1_dropShadow_611_690" result="shape"/>
</filter>
<filter id="filter3_d_611_690" x="1343.16" y="1391.35" width="28.5645" height="34.707" filterUnits="userSpaceOnUse" color-interpolation-filters="sRGB">
<feFlood flood-opacity="0" result="BackgroundImageFix"/>
<feColorMatrix in="SourceAlpha" type="matrix" values="0 0 0 0 0 0 0 0 0 0 0 0 0 0 0 0 0 0 127 0" result="hardAlpha"/>
<feOffset dy="4"/>
<feGaussianBlur stdDeviation="2"/>
<feComposite in2="hardAlpha" operator="out"/>
<feColorMatrix type="matrix" values="0 0 0 0 0 0 0 0 0 0 0 0 0 0 0 0 0 0 0.25 0"/>
<feBlend mode="normal" in2="BackgroundImageFix" result="effect1_dropShadow_611_690"/>
<feBlend mode="normal" in="SourceGraphic" in2="effect1_dropShadow_611_690" result="shape"/>
</filter>
<filter id="filter4_d_611_690" x="1360.71" y="1406.83" width="29.2939" height="34.1289" filterUnits="userSpaceOnUse" color-interpolation-filters="sRGB">
<feFlood flood-opacity="0" result="BackgroundImageFix"/>
<feColorMatrix in="SourceAlpha" type="matrix" values="0 0 0 0 0 0 0 0 0 0 0 0 0 0 0 0 0 0 127 0" result="hardAlpha"/>
<feOffset dy="4"/>
<feGaussianBlur stdDeviation="2"/>
<feComposite in2="hardAlpha" operator="out"/>
<feColorMatrix type="matrix" values="0 0 0 0 0 0 0 0 0 0 0 0 0 0 0 0 0 0 0.25 0"/>
<feBlend mode="normal" in2="BackgroundImageFix" result="effect1_dropShadow_611_690"/>
<feBlend mode="normal" in="SourceGraphic" in2="effect1_dropShadow_611_690" result="shape"/>
</filter>
<filter id="filter5_d_611_690" x="1360.71" y="1406.83" width="29.293" height="34.1284" filterUnits="userSpaceOnUse" color-interpolation-filters="sRGB">
<feFlood flood-opacity="0" result="BackgroundImageFix"/>
<feColorMatrix in="SourceAlpha" type="matrix" values="0 0 0 0 0 0 0 0 0 0 0 0 0 0 0 0 0 0 127 0" result="hardAlpha"/>
<feOffset dy="4"/>
<feGaussianBlur stdDeviation="2"/>
<feComposite in2="hardAlpha" operator="out"/>
<feColorMatrix type="matrix" values="0 0 0 0 0 0 0 0 0 0 0 0 0 0 0 0 0 0 0.25 0"/>
<feBlend mode="normal" in2="BackgroundImageFix" result="effect1_dropShadow_611_690"/>
<feBlend mode="normal" in="SourceGraphic" in2="effect1_dropShadow_611_690" result="shape"/>
</filter>
<filter id="filter6_d_611_690" x="1303.32" y="1398.85" width="26.5078" height="36.1665" filterUnits="userSpaceOnUse" color-interpolation-filters="sRGB">
<feFlood flood-opacity="0" result="BackgroundImageFix"/>
<feColorMatrix in="SourceAlpha" type="matrix" values="0 0 0 0 0 0 0 0 0 0 0 0 0 0 0 0 0 0 127 0" result="hardAlpha"/>
<feOffset dy="4"/>
<feGaussianBlur stdDeviation="2"/>
<feComposite in2="hardAlpha" operator="out"/>
<feColorMatrix type="matrix" values="0 0 0 0 0 0 0 0 0 0 0 0 0 0 0 0 0 0 0.25 0"/>
<feBlend mode="normal" in2="BackgroundImageFix" result="effect1_dropShadow_611_690"/>
<feBlend mode="normal" in="SourceGraphic" in2="effect1_dropShadow_611_690" result="shape"/>
</filter>
<filter id="filter7_d_611_690" x="1303.32" y="1398.85" width="26.5078" height="36.167" filterUnits="userSpaceOnUse" color-interpolation-filters="sRGB">
<feFlood flood-opacity="0" result="BackgroundImageFix"/>
<feColorMatrix in="SourceAlpha" type="matrix" values="0 0 0 0 0 0 0 0 0 0 0 0 0 0 0 0 0 0 127 0" result="hardAlpha"/>
<feOffset dy="4"/>
<feGaussianBlur stdDeviation="2"/>
<feComposite in2="hardAlpha" operator="out"/>
<feColorMatrix type="matrix" values="0 0 0 0 0 0 0 0 0 0 0 0 0 0 0 0 0 0 0.25 0"/>
<feBlend mode="normal" in2="BackgroundImageFix" result="effect1_dropShadow_611_690"/>
<feBlend mode="normal" in="SourceGraphic" in2="effect1_dropShadow_611_690" result="shape"/>
</filter>
<filter id="filter8_d_611_690" x="1930.03" y="1764.35" width="31.0498" height="23.1582" filterUnits="userSpaceOnUse" color-interpolation-filters="sRGB">
<feFlood flood-opacity="0" result="BackgroundImageFix"/>
<feColorMatrix in="SourceAlpha" type="matrix" values="0 0 0 0 0 0 0 0 0 0 0 0 0 0 0 0 0 0 127 0" result="hardAlpha"/>
<feOffset dy="4"/>
<feGaussianBlur stdDeviation="2"/>
<feComposite in2="hardAlpha" operator="out"/>
<feColorMatrix type="matrix" values="0 0 0 0 0 0 0 0 0 0 0 0 0 0 0 0 0 0 0.25 0"/>
<feBlend mode="normal" in2="BackgroundImageFix" result="effect1_dropShadow_611_690"/>
<feBlend mode="normal" in="SourceGraphic" in2="effect1_dropShadow_611_690" result="shape"/>
</filter>
<filter id="filter9_d_611_690" x="1930.03" y="1764.35" width="31.0498" height="23.1582" filterUnits="userSpaceOnUse" color-interpolation-filters="sRGB">
<feFlood flood-opacity="0" result="BackgroundImageFix"/>
<feColorMatrix in="SourceAlpha" type="matrix" values="0 0 0 0 0 0 0 0 0 0 0 0 0 0 0 0 0 0 127 0" result="hardAlpha"/>
<feOffset dy="4"/>
<feGaussianBlur stdDeviation="2"/>
<feComposite in2="hardAlpha" operator="out"/>
<feColorMatrix type="matrix" values="0 0 0 0 0 0 0 0 0 0 0 0 0 0 0 0 0 0 0.25 0"/>
<feBlend mode="normal" in2="BackgroundImageFix" result="effect1_dropShadow_611_690"/>
<feBlend mode="normal" in="SourceGraphic" in2="effect1_dropShadow_611_690" result="shape"/>
</filter>
<filter id="filter10_d_611_690" x="1943.11" y="1778.05" width="29.166" height="23.3721" filterUnits="userSpaceOnUse" color-interpolation-filters="sRGB">
<feFlood flood-opacity="0" result="BackgroundImageFix"/>
<feColorMatrix in="SourceAlpha" type="matrix" values="0 0 0 0 0 0 0 0 0 0 0 0 0 0 0 0 0 0 127 0" result="hardAlpha"/>
<feOffset dy="4"/>
<feGaussianBlur stdDeviation="2"/>
<feComposite in2="hardAlpha" operator="out"/>
<feColorMatrix type="matrix" values="0 0 0 0 0 0 0 0 0 0 0 0 0 0 0 0 0 0 0.25 0"/>
<feBlend mode="normal" in2="BackgroundImageFix" result="effect1_dropShadow_611_690"/>
<feBlend mode="normal" in="SourceGraphic" in2="effect1_dropShadow_611_690" result="shape"/>
</filter>
<filter id="filter11_d_611_690" x="1943.11" y="1778.05" width="29.166" height="23.3721" filterUnits="userSpaceOnUse" color-interpolation-filters="sRGB">
<feFlood flood-opacity="0" result="BackgroundImageFix"/>
<feColorMatrix in="SourceAlpha" type="matrix" values="0 0 0 0 0 0 0 0 0 0 0 0 0 0 0 0 0 0 127 0" result="hardAlpha"/>
<feOffset dy="4"/>
<feGaussianBlur stdDeviation="2"/>
<feComposite in2="hardAlpha" operator="out"/>
<feColorMatrix type="matrix" values="0 0 0 0 0 0 0 0 0 0 0 0 0 0 0 0 0 0 0.25 0"/>
<feBlend mode="normal" in2="BackgroundImageFix" result="effect1_dropShadow_611_690"/>
<feBlend mode="normal" in="SourceGraphic" in2="effect1_dropShadow_611_690" result="shape"/>
</filter>
<filter id="filter12_d_611_690" x="1944.26" y="1794.83" width="28.6895" height="22.8179" filterUnits="userSpaceOnUse" color-interpolation-filters="sRGB">
<feFlood flood-opacity="0" result="BackgroundImageFix"/>
<feColorMatrix in="SourceAlpha" type="matrix" values="0 0 0 0 0 0 0 0 0 0 0 0 0 0 0 0 0 0 127 0" result="hardAlpha"/>
<feOffset dy="4"/>
<feGaussianBlur stdDeviation="2"/>
<feComposite in2="hardAlpha" operator="out"/>
<feColorMatrix type="matrix" values="0 0 0 0 0 0 0 0 0 0 0 0 0 0 0 0 0 0 0.25 0"/>
<feBlend mode="normal" in2="BackgroundImageFix" result="effect1_dropShadow_611_690"/>
<feBlend mode="normal" in="SourceGraphic" in2="effect1_dropShadow_611_690" result="shape"/>
</filter>
<filter id="filter13_d_611_690" x="1944.26" y="1794.83" width="28.6904" height="22.8174" filterUnits="userSpaceOnUse" color-interpolation-filters="sRGB">
<feFlood flood-opacity="0" result="BackgroundImageFix"/>
<feColorMatrix in="SourceAlpha" type="matrix" values="0 0 0 0 0 0 0 0 0 0 0 0 0 0 0 0 0 0 127 0" result="hardAlpha"/>
<feOffset dy="4"/>
<feGaussianBlur stdDeviation="2"/>
<feComposite in2="hardAlpha" operator="out"/>
<feColorMatrix type="matrix" values="0 0 0 0 0 0 0 0 0 0 0 0 0 0 0 0 0 0 0.25 0"/>
<feBlend mode="normal" in2="BackgroundImageFix" result="effect1_dropShadow_611_690"/>
<feBlend mode="normal" in="SourceGraphic" in2="effect1_dropShadow_611_690" result="shape"/>
</filter>
<filter id="filter14_d_611_690" x="1932.68" y="1807.11" width="27.9307" height="23.8242" filterUnits="userSpaceOnUse" color-interpolation-filters="sRGB">
<feFlood flood-opacity="0" result="BackgroundImageFix"/>
<feColorMatrix in="SourceAlpha" type="matrix" values="0 0 0 0 0 0 0 0 0 0 0 0 0 0 0 0 0 0 127 0" result="hardAlpha"/>
<feOffset dy="4"/>
<feGaussianBlur stdDeviation="2"/>
<feComposite in2="hardAlpha" operator="out"/>
<feColorMatrix type="matrix" values="0 0 0 0 0 0 0 0 0 0 0 0 0 0 0 0 0 0 0.25 0"/>
<feBlend mode="normal" in2="BackgroundImageFix" result="effect1_dropShadow_611_690"/>
<feBlend mode="normal" in="SourceGraphic" in2="effect1_dropShadow_611_690" result="shape"/>
</filter>
<filter id="filter15_d_611_690" x="1932.68" y="1807.11" width="27.9316" height="23.8247" filterUnits="userSpaceOnUse" color-interpolation-filters="sRGB">
<feFlood flood-opacity="0" result="BackgroundImageFix"/>
<feColorMatrix in="SourceAlpha" type="matrix" values="0 0 0 0 0 0 0 0 0 0 0 0 0 0 0 0 0 0 127 0" result="hardAlpha"/>
<feOffset dy="4"/>
<feGaussianBlur stdDeviation="2"/>
<feComposite in2="hardAlpha" operator="out"/>
<feColorMatrix type="matrix" values="0 0 0 0 0 0 0 0 0 0 0 0 0 0 0 0 0 0 0.25 0"/>
<feBlend mode="normal" in2="BackgroundImageFix" result="effect1_dropShadow_611_690"/>
<feBlend mode="normal" in="SourceGraphic" in2="effect1_dropShadow_611_690" result="shape"/>
</filter>
<filter id="filter16_f_611_690" x="1331.13" y="1062.38" width="205.625" height="221.883" filterUnits="userSpaceOnUse" color-interpolation-filters="sRGB">
<feFlood flood-opacity="0" result="BackgroundImageFix"/>
<feBlend mode="normal" in="SourceGraphic" in2="BackgroundImageFix" result="shape"/>
<feGaussianBlur stdDeviation="15.2" result="effect1_foregroundBlur_611_690"/>
</filter>
</defs>
</svg>
