<svg width="953" height="1439" viewBox="0 0 953 1439" fill="none" xmlns="http://www.w3.org/2000/svg">
<path d="M201.576 810.002C299.572 773.5 291.576 733.002 291.576 733.002L770.073 854C769.666 871.985 773.708 883.702 791.073 908.5C822.181 920.217 829.389 927.99 823.573 944.5L897.573 1117.5C905.316 1140.72 907.645 1162.27 897.573 1203.5C859.512 1180.58 844.142 1182.66 823.573 1203.5L791.073 1174L84.5726 1114C81.8696 1094.99 79.768 1085.33 62.0726 1092C12.5726 1109.5 20.0726 1102 12.5726 1061.5C2.215 1030.17 7.92496 1006.32 31.5726 956.5C48.2895 940.087 51.6762 930.71 67.0726 894.5C74.9935 849.687 91.8381 837.765 201.576 810.002Z" fill="#3E0070" stroke="black" stroke-width="14" stroke-linecap="round" stroke-linejoin="round"/>
<path d="M685.221 882.94C685.221 882.94 682.702 884.8 678.325 886.499C673.947 888.197 673.249 882.154 676.113 880.408C678.978 878.661 684.046 877.188 684.046 877.188C684.046 877.188 681.041 873.521 679.814 869.094C678.587 864.667 681.584 862.517 683.736 864.115C685.888 865.714 687.835 872.613 687.835 872.613C687.835 872.613 688.68 868.864 691.007 862.916C693.335 856.968 697.397 857.402 695.841 864.497C694.284 871.592 693.014 874.307 693.014 874.307C693.014 874.307 697.097 871.17 702.378 870.214C707.659 869.258 705.574 877.968 702.415 878.277C699.257 878.586 693.976 879.542 693.976 879.542C693.976 879.542 694.189 880.059 697.223 885.972C700.257 891.884 697.261 894.035 693.698 889.738C690.471 885.848 689.824 884.485 689.823 884.096C689.104 887.624 688.726 888.601 687.969 893.232C687.206 897.902 682.88 898.276 683.349 892.168C683.819 886.06 685.221 882.94 685.221 882.94Z" fill="#FFE600"/>
<path d="M751.802 949.502C751.802 949.502 748.493 951.576 742.653 953.348C736.812 955.119 735.507 947.853 739.291 945.935C743.075 944.017 749.866 942.555 749.866 942.555C749.866 942.555 745.571 937.994 743.644 932.629C741.716 927.264 745.656 924.87 748.671 926.908C751.687 928.947 754.738 937.31 754.738 937.31C754.738 937.31 755.662 932.878 758.469 925.905C761.276 918.932 766.814 919.692 765.122 928.081C763.43 936.471 761.866 939.642 761.866 939.642C761.866 939.642 767.223 936.134 774.333 935.303C781.444 934.473 779.13 944.763 774.862 944.945C770.594 945.127 763.483 945.958 763.483 945.958C763.483 945.958 763.803 946.588 768.27 953.837C772.738 961.085 768.799 963.479 763.709 958.131C759.1 953.289 758.14 951.621 758.116 951.156C757.349 955.332 756.894 956.478 756.141 961.969C755.381 967.507 749.532 967.697 749.808 960.423C750.083 953.148 751.802 949.502 751.802 949.502Z" fill="#FFE600"/>
<path d="M286.728 831.521C286.728 831.521 283.419 833.595 277.579 835.367C271.738 837.138 270.433 829.872 274.217 827.954C278.001 826.036 284.792 824.574 284.792 824.574C284.792 824.574 280.497 820.013 278.569 814.648C276.642 809.283 280.582 806.889 283.597 808.928C286.613 810.966 289.664 819.329 289.664 819.329C289.664 819.329 290.588 814.897 293.395 807.924C296.202 800.951 301.74 801.711 300.048 810.1C298.356 818.49 296.792 821.661 296.792 821.661C296.792 821.661 302.149 818.153 309.259 817.322C316.369 816.492 314.055 826.782 309.787 826.964C305.519 827.146 298.409 827.977 298.409 827.977C298.409 827.977 298.729 828.607 303.196 835.856C307.664 843.104 303.725 845.498 298.635 840.15C294.025 835.308 293.065 833.64 293.041 833.175C292.274 837.351 291.82 838.497 291.067 843.988C290.307 849.526 284.458 849.716 284.733 842.442C285.009 835.167 286.728 831.521 286.728 831.521Z" fill="#FFE600"/>
<path d="M170.684 855.567C170.684 855.567 167.146 853.913 162.489 849.968C157.832 846.023 163.228 840.984 166.892 843.122C170.557 845.26 175.468 850.172 175.468 850.172C175.468 850.172 176.97 844.09 180.432 839.56C183.893 835.03 188.041 837.041 187.965 840.68C187.888 844.319 182.518 851.419 182.518 851.419C182.518 851.419 186.743 849.791 194.123 848.366C201.503 846.941 203.87 852.005 195.904 855.135C187.938 858.265 184.426 858.672 184.426 858.672C184.426 858.672 190.28 861.269 194.835 866.791C199.39 872.314 189.49 875.953 187.021 872.466C184.553 868.979 179.998 863.457 179.998 863.457C179.998 863.457 179.642 864.068 175.976 871.753C172.311 879.438 168.163 877.428 169.894 870.251C171.462 863.752 172.342 862.04 172.719 861.768C168.795 863.389 167.586 863.629 162.565 865.975C157.501 868.342 154.167 863.532 160.427 859.817C166.688 856.101 170.684 855.567 170.684 855.567Z" fill="#FFE600"/>
<path d="M253.293 949.82C253.293 949.82 249.388 949.849 243.487 948.293C237.585 946.736 240.287 939.866 244.515 940.219C248.743 940.571 255.29 942.891 255.29 942.891C255.29 942.891 254.028 936.754 255.202 931.176C256.377 925.597 260.986 925.626 262.484 928.944C263.981 932.262 262.19 940.982 262.19 940.982C262.19 940.982 265.302 937.694 271.351 933.231C277.399 928.768 281.715 932.321 275.872 938.575C270.029 944.829 267.034 946.708 267.034 946.708C267.034 946.708 273.435 946.532 279.924 949.556C286.413 952.58 279.043 960.126 275.314 958.041C271.585 955.957 265.097 952.932 265.097 952.932C265.097 952.932 265.038 953.637 265.038 962.152C265.037 970.666 260.428 970.637 258.901 963.414C257.518 956.873 257.576 954.949 257.8 954.541C254.956 957.693 253.968 958.43 250.445 962.709C246.893 967.025 241.813 964.118 245.865 958.07C249.917 952.022 253.293 949.82 253.293 949.82Z" fill="#FFE600"/>
<path d="M187.862 1070.07C187.862 1070.07 184.726 1072.4 179.043 1074.63C173.36 1076.85 171.487 1069.71 175.109 1067.5C178.73 1065.29 185.385 1063.3 185.385 1063.3C185.385 1063.3 180.745 1059.09 178.401 1053.9C176.058 1048.7 179.797 1046 182.963 1047.8C186.13 1049.59 189.829 1057.69 189.829 1057.69C189.829 1057.69 190.402 1053.2 192.652 1046.03C194.901 1038.85 200.482 1039.18 199.455 1047.67C198.428 1056.17 197.119 1059.45 197.119 1059.45C197.119 1059.45 202.183 1055.53 209.206 1054.15C216.229 1052.76 214.732 1063.2 210.491 1063.72C206.251 1064.24 199.227 1065.62 199.227 1065.62C199.227 1065.62 199.596 1066.23 204.62 1073.1C209.644 1079.98 205.905 1082.67 200.411 1077.74C195.435 1073.28 194.346 1071.69 194.286 1071.23C193.85 1075.45 193.487 1076.63 193.168 1082.16C192.846 1087.74 187.03 1088.39 186.733 1081.12C186.435 1073.85 187.862 1070.07 187.862 1070.07Z" fill="#FFE600"/>
<path d="M92.8616 1061.07C92.8616 1061.07 89.7263 1063.4 84.0433 1065.63C78.3603 1067.85 76.4872 1060.71 80.1087 1058.5C83.7302 1056.29 90.3849 1054.3 90.3849 1054.3C90.3849 1054.3 85.7448 1050.09 83.4012 1044.9C81.0576 1039.7 84.7967 1037 87.9634 1038.8C91.13 1040.59 94.8295 1048.69 94.8295 1048.69C94.8295 1048.69 95.4019 1044.2 97.6517 1037.03C99.9014 1029.85 105.482 1030.18 104.455 1038.67C103.428 1047.17 102.119 1050.45 102.119 1050.45C102.119 1050.45 107.183 1046.53 114.206 1045.15C121.229 1043.76 119.732 1054.2 115.491 1054.72C111.251 1055.24 104.227 1056.62 104.227 1056.62C104.227 1056.62 104.596 1057.23 109.62 1064.1C114.644 1070.98 110.905 1073.67 105.411 1068.74C100.435 1064.28 99.3463 1062.69 99.2857 1062.23C98.8497 1066.45 98.4867 1067.63 98.1678 1073.16C97.8462 1078.74 92.0301 1079.39 91.7326 1072.12C91.435 1064.85 92.8616 1061.07 92.8616 1061.07Z" fill="#FFE600"/>
<path d="M79.1306 966.648C79.1306 966.648 75.2395 966.318 69.5066 964.224C63.7737 962.13 67.0969 955.538 71.2743 956.279C75.4517 957.019 81.7575 959.933 81.7575 959.933C81.7575 959.933 81.0662 953.706 82.7499 948.259C84.4337 942.813 89.0211 943.267 90.2062 946.709C91.3913 950.15 88.804 958.668 88.804 958.668C88.804 958.668 92.2062 955.681 98.6402 951.795C105.074 947.908 109.044 951.844 102.65 957.533C96.2554 963.221 93.1 964.816 93.1 964.816C93.1 964.816 99.4898 965.231 105.672 968.84C111.854 972.45 103.82 979.284 100.3 976.865C96.779 974.445 90.5966 970.835 90.5966 970.835C90.5966 970.835 90.4732 971.532 89.6881 980.01C88.903 988.488 84.3159 988.034 83.4614 980.701C82.6875 974.061 82.9226 972.151 83.1827 971.764C80.0602 974.641 79.0082 975.284 75.1064 979.22C71.171 983.19 66.3811 979.827 70.9733 974.179C75.5654 968.53 79.1306 966.648 79.1306 966.648Z" fill="#FFE600"/>
<path d="M176.631 940.156C176.631 940.156 176.772 936.254 178.584 930.426C180.397 924.598 187.143 927.596 186.606 931.805C186.069 936.013 183.467 942.453 183.467 942.453C183.467 942.453 189.652 941.46 195.174 942.877C200.696 944.293 200.466 948.897 197.086 950.249C193.706 951.6 185.072 949.43 185.072 949.43C185.072 949.43 188.221 952.683 192.416 958.92C196.611 965.157 192.873 969.314 186.88 963.204C180.887 957.094 179.141 954.02 179.141 954.02C179.141 954.02 179.037 960.422 175.733 966.773C172.428 973.123 165.211 965.431 167.457 961.797C169.702 958.163 173.007 951.812 173.007 951.812C173.007 951.812 172.305 951.723 163.799 951.351C155.292 950.98 155.523 946.376 162.805 945.166C169.4 944.07 171.32 944.211 171.718 944.452C168.693 941.474 167.999 940.454 163.878 936.748C159.722 933.011 162.847 928.063 168.713 932.375C174.578 936.687 176.631 940.156 176.631 940.156Z" fill="#FFE600"/>
<path d="M714.492 1042.56C714.492 1042.56 712.292 1045.78 707.65 1049.75C703.008 1053.71 698.901 1047.57 701.6 1044.3C704.299 1041.03 709.936 1036.97 709.936 1036.97C709.936 1036.97 704.174 1034.51 700.258 1030.37C696.343 1026.22 698.994 1022.45 702.574 1023.11C706.153 1023.77 712.299 1030.21 712.299 1030.21C712.299 1030.21 711.37 1025.78 711.149 1018.27C710.927 1010.75 716.306 1009.23 718.116 1017.59C719.927 1025.96 719.764 1029.49 719.764 1029.49C719.764 1029.49 723.267 1024.13 729.449 1020.52C735.632 1016.91 737.633 1027.27 733.796 1029.15C729.958 1031.02 723.775 1034.63 723.775 1034.63C723.775 1034.63 724.321 1035.08 731.318 1039.93C738.315 1044.78 735.665 1048.56 728.859 1045.69C722.696 1043.1 721.148 1041.96 720.94 1041.54C721.91 1045.68 721.953 1046.91 723.462 1052.24C724.984 1057.62 719.701 1060.14 717.04 1053.36C714.378 1046.59 714.492 1042.56 714.492 1042.56Z" fill="#FFE600"/>
<path d="M788.756 1084.95C788.756 1084.95 786.471 1081.78 784.323 1076.07C782.176 1070.36 789.342 1068.58 791.502 1072.23C793.662 1075.89 795.562 1082.57 795.562 1082.57C795.562 1082.57 799.834 1077.99 805.063 1075.71C810.291 1073.44 812.936 1077.22 811.098 1080.36C809.259 1083.5 801.112 1087.09 801.112 1087.09C801.112 1087.09 805.595 1087.72 812.736 1090.07C819.876 1092.42 819.478 1097.99 810.996 1096.85C802.514 1095.71 799.248 1094.35 799.248 1094.35C799.248 1094.35 803.097 1099.47 804.388 1106.51C805.679 1113.55 795.26 1111.91 794.801 1107.67C794.342 1103.42 793.051 1096.38 793.051 1096.38C793.051 1096.38 792.443 1096.74 785.5 1101.67C778.557 1106.6 775.913 1102.82 780.918 1097.39C785.451 1092.48 787.053 1091.41 787.515 1091.36C783.298 1090.86 782.125 1090.49 776.597 1090.09C771.021 1089.69 770.451 1083.87 777.728 1083.67C785.005 1083.47 788.756 1084.95 788.756 1084.95Z" fill="#FFE600"/>
<path d="M666.259 936.69C661.76 936.19 662.26 930.19 666.259 929.69C669.682 929.262 670.542 929.567 670.719 929.663C670.611 929.543 670.35 928.875 670.759 925.19C671.259 920.69 676.259 921.19 676.759 925.19C677.222 928.888 676.829 930.022 676.767 930.172C676.827 930.087 677.342 929.748 681.759 930.19C686.759 930.69 687.259 935.69 681.759 936.69C678.628 937.259 677.441 937.18 677 937.007C677.216 937.476 677.407 938.598 676.759 941.19C675.759 945.19 671.259 944.69 670.759 941.19C670.301 937.979 670.683 936.873 670.75 936.712C670.686 936.802 670.184 937.126 666.259 936.69Z" fill="#FFE600"/>
<path d="M288.259 780.69C283.76 780.19 284.26 774.19 288.259 773.69C291.682 773.262 292.542 773.567 292.719 773.663C292.611 773.543 292.35 772.875 292.759 769.19C293.259 764.69 298.259 765.19 298.759 769.19C299.222 772.888 298.829 774.022 298.767 774.172C298.827 774.087 299.342 773.748 303.759 774.19C308.759 774.69 309.259 779.69 303.759 780.69C300.628 781.259 299.441 781.18 299 781.007C299.216 781.476 299.407 782.598 298.759 785.19C297.759 789.19 293.259 788.69 292.759 785.19C292.301 781.979 292.683 780.873 292.75 780.712C292.686 780.802 292.184 781.126 288.259 780.69Z" fill="#FFE600"/>
<path d="M224.895 834.215C221.243 836.891 217.552 832.135 220.159 829.06C222.39 826.43 223.23 826.072 223.425 826.023C223.264 826.008 222.62 825.693 220.429 822.702C217.752 819.05 221.773 816.036 224.847 818.643C227.689 821.053 228.167 822.153 228.223 822.306C228.21 822.203 228.36 821.605 231.912 818.942C235.932 815.928 239.683 819.271 236.309 823.729C234.388 826.266 233.461 827.011 233.019 827.182C233.495 827.381 234.395 828.078 235.672 830.425C237.642 834.047 233.99 836.724 231.253 834.484C228.744 832.43 228.277 831.356 228.216 831.193C228.23 831.303 228.08 831.881 224.895 834.215Z" fill="#FFE600"/>
<path d="M280.873 882.15C280.016 886.596 274.075 885.619 273.896 881.592C273.742 878.147 274.114 877.313 274.224 877.145C274.095 877.243 273.409 877.45 269.769 876.748C265.323 875.891 266.22 870.947 270.247 870.767C273.969 870.601 275.069 871.083 275.214 871.156C275.134 871.09 274.837 870.549 275.63 866.182C276.527 861.237 281.551 861.138 282.109 866.7C282.427 869.867 282.253 871.043 282.045 871.469C282.53 871.292 283.664 871.19 286.196 872.043C290.104 873.358 289.247 877.804 285.718 878.024C282.481 878.225 281.408 877.755 281.253 877.676C281.337 877.747 281.621 878.273 280.873 882.15Z" fill="#FFE600"/>
<path d="M203.967 906.549C203.11 910.994 197.169 910.018 196.989 905.991C196.836 902.545 197.208 901.712 197.318 901.543C197.189 901.641 196.503 901.848 192.862 901.146C188.417 900.289 189.314 895.345 193.341 895.166C197.063 895 198.162 895.481 198.307 895.555C198.227 895.488 197.931 894.948 198.723 890.58C199.621 885.636 204.645 885.536 205.203 891.098C205.52 894.265 205.347 895.442 205.139 895.867C205.624 895.69 206.758 895.588 209.29 896.441C213.198 897.757 212.34 902.203 208.811 902.422C205.574 902.623 204.502 902.153 204.346 902.074C204.431 902.145 204.715 902.672 203.967 906.549Z" fill="#FFE600"/>
<path d="M230.967 1033.55C230.11 1037.99 224.169 1037.02 223.989 1032.99C223.836 1029.55 224.208 1028.71 224.318 1028.54C224.189 1028.64 223.503 1028.85 219.862 1028.15C215.417 1027.29 216.314 1022.35 220.341 1022.17C224.063 1022 225.162 1022.48 225.307 1022.55C225.227 1022.49 224.931 1021.95 225.723 1017.58C226.621 1012.64 231.645 1012.54 232.203 1018.1C232.52 1021.27 232.347 1022.44 232.139 1022.87C232.624 1022.69 233.758 1022.59 236.29 1023.44C240.198 1024.76 239.34 1029.2 235.811 1029.42C232.574 1029.62 231.502 1029.15 231.346 1029.07C231.431 1029.15 231.715 1029.67 230.967 1033.55Z" fill="#FFE600"/>
<path d="M109.967 921.549C109.11 925.994 103.169 925.018 102.989 920.991C102.836 917.545 103.208 916.712 103.318 916.543C103.189 916.641 102.503 916.848 98.8624 916.146C94.4167 915.289 95.3137 910.345 99.3407 910.166C103.063 910 104.162 910.481 104.307 910.555C104.227 910.488 103.931 909.948 104.723 905.58C105.621 900.636 110.645 900.536 111.203 906.098C111.52 909.265 111.347 910.442 111.139 910.867C111.624 910.69 112.758 910.588 115.29 911.441C119.198 912.757 118.34 917.203 114.811 917.422C111.574 917.623 110.502 917.153 110.346 917.074C110.431 917.145 110.715 917.672 109.967 921.549Z" fill="#FFE600"/>
<path d="M47.967 1023.55C47.1099 1027.99 41.1689 1027.02 40.9893 1022.99C40.8357 1019.55 41.2076 1018.71 41.3182 1018.54C41.1891 1018.64 40.503 1018.85 36.8624 1018.15C32.4167 1017.29 33.3137 1012.35 37.3407 1012.17C41.0632 1012 42.1625 1012.48 42.3075 1012.55C42.2275 1012.49 41.9307 1011.95 42.7234 1007.58C43.6207 1002.64 48.6446 1002.54 49.2027 1008.1C49.5205 1011.27 49.3471 1012.44 49.139 1012.87C49.6235 1012.69 50.7575 1012.59 53.2898 1013.44C57.1976 1014.76 56.3405 1019.2 52.8115 1019.42C49.5745 1019.62 48.5017 1019.15 48.3463 1019.07C48.4311 1019.15 48.7146 1019.67 47.967 1023.55Z" fill="#FFE600"/>
<path d="M59.967 1069.55C59.1099 1073.99 53.1689 1073.02 52.9893 1068.99C52.8357 1065.55 53.2076 1064.71 53.3182 1064.54C53.1891 1064.64 52.503 1064.85 48.8624 1064.15C44.4167 1063.29 45.3137 1058.35 49.3407 1058.17C53.0632 1058 54.1625 1058.48 54.3075 1058.55C54.2275 1058.49 53.9307 1057.95 54.7234 1053.58C55.6207 1048.64 60.6446 1048.54 61.2027 1054.1C61.5205 1057.27 61.3471 1058.44 61.139 1058.87C61.6235 1058.69 62.7575 1058.59 65.2898 1059.44C69.1976 1060.76 68.3405 1065.2 64.8115 1065.42C61.5745 1065.62 60.5017 1065.15 60.3463 1065.07C60.4311 1065.15 60.7146 1065.67 59.967 1069.55Z" fill="#FFE600"/>
<path d="M153.967 1004.55C153.11 1008.99 147.169 1008.02 146.989 1003.99C146.836 1000.55 147.208 999.712 147.318 999.543C147.189 999.641 146.503 999.848 142.862 999.146C138.417 998.289 139.314 993.345 143.341 993.166C147.063 993 148.162 993.481 148.307 993.555C148.227 993.488 147.931 992.948 148.723 988.58C149.621 983.636 154.645 983.536 155.203 989.098C155.52 992.265 155.347 993.442 155.139 993.867C155.624 993.69 156.758 993.588 159.29 994.441C163.198 995.757 162.34 1000.2 158.811 1000.42C155.574 1000.62 154.502 1000.15 154.346 1000.07C154.431 1000.15 154.715 1000.67 153.967 1004.55Z" fill="#FFE600"/>
<path d="M736.259 874.314C733.673 870.598 738.519 867.025 741.528 869.706C744.103 872.001 744.441 872.848 744.484 873.045C744.504 872.885 744.835 872.249 747.878 870.131C751.594 867.545 754.51 871.638 751.828 874.647C749.349 877.429 748.237 877.881 748.083 877.933C748.187 877.922 748.781 878.087 751.356 881.703C754.271 885.795 750.837 889.463 746.463 885.982C743.973 883.999 743.252 883.054 743.092 882.608C742.881 883.079 742.162 883.962 739.784 885.18C736.115 887.061 733.529 883.345 735.834 880.664C737.949 878.205 739.034 877.765 739.199 877.709C739.089 877.72 738.514 877.555 736.259 874.314Z" fill="#FFE600"/>
<path d="M713.315 911.724C712.749 907.232 718.699 906.315 720.121 910.087C721.337 913.314 721.242 914.222 721.19 914.416C721.282 914.283 721.87 913.873 725.548 913.409C730.04 912.843 730.724 917.821 726.952 919.243C723.465 920.557 722.27 920.441 722.11 920.416C722.206 920.454 722.656 920.876 723.26 925.274C723.943 930.252 719.198 931.907 716.94 926.794C715.654 923.882 715.453 922.71 715.519 922.241C715.113 922.56 714.067 923.009 711.395 922.985C707.272 922.948 706.706 918.456 709.992 917.151C713.006 915.955 714.172 916.068 714.344 916.095C714.242 916.053 713.809 915.641 713.315 911.724Z" fill="#FFE600"/>
<path d="M678.098 984.749C679.814 980.56 685.447 982.688 684.829 986.671C684.301 990.08 683.772 990.823 683.63 990.967C683.776 990.896 684.49 990.828 687.921 992.234C692.11 993.95 690.257 998.621 686.273 998.003C682.591 997.433 681.608 996.744 681.481 996.643C681.546 996.724 681.73 997.312 680.093 1001.44C678.239 1006.11 673.294 1005.22 673.842 999.654C674.155 996.486 674.557 995.367 674.845 994.99C674.335 995.069 673.203 994.945 670.888 993.61C667.316 991.55 669.033 987.36 672.536 987.841C675.749 988.281 676.708 988.953 676.845 989.061C676.776 988.975 676.601 988.403 678.098 984.749Z" fill="#FFE600"/>
<path d="M723.441 971.076C725.157 966.887 730.789 969.015 730.172 972.998C729.644 976.406 729.115 977.15 728.973 977.294C729.119 977.223 729.832 977.155 733.263 978.561C737.453 980.277 735.599 984.947 731.616 984.33C727.934 983.759 726.951 983.071 726.823 982.97C726.889 983.051 727.073 983.639 725.435 987.765C723.581 992.435 718.636 991.543 719.185 985.98C719.498 982.813 719.899 981.694 720.187 981.317C719.677 981.395 718.546 981.272 716.231 979.937C712.659 977.877 714.375 973.687 717.878 974.167C721.092 974.608 722.051 975.28 722.187 975.388C722.118 975.302 721.944 974.73 723.441 971.076Z" fill="#FFE600"/>
<path d="M781.441 1009.08C783.157 1004.89 788.789 1007.01 788.172 1011C787.644 1014.41 787.115 1015.15 786.973 1015.29C787.119 1015.22 787.832 1015.16 791.263 1016.56C795.453 1018.28 793.599 1022.95 789.616 1022.33C785.934 1021.76 784.951 1021.07 784.823 1020.97C784.889 1021.05 785.073 1021.64 783.435 1025.76C781.581 1030.44 776.636 1029.54 777.185 1023.98C777.498 1020.81 777.899 1019.69 778.187 1019.32C777.677 1019.4 776.546 1019.27 774.231 1017.94C770.659 1015.88 772.375 1011.69 775.878 1012.17C779.092 1012.61 780.051 1013.28 780.187 1013.39C780.118 1013.3 779.944 1012.73 781.441 1009.08Z" fill="#FFE600"/>
<path d="M751.692 1060.96C751.98 1056.44 757.997 1056.66 758.684 1060.63C759.272 1064.03 759.008 1064.9 758.92 1065.08C759.036 1064.97 759.69 1064.68 763.39 1064.91C767.909 1065.2 767.644 1070.22 763.672 1070.91C760 1071.54 758.849 1071.2 758.696 1071.15C758.783 1071.2 759.146 1071.7 758.912 1076.14C758.647 1081.15 753.676 1081.89 752.419 1076.44C751.704 1073.34 751.727 1072.15 751.88 1071.7C751.421 1071.94 750.309 1072.18 747.689 1071.66C743.647 1070.85 743.935 1066.33 747.408 1065.66C750.593 1065.06 751.717 1065.39 751.881 1065.44C751.788 1065.38 751.44 1064.9 751.692 1060.96Z" fill="#FFE600"/>
<path d="M867.573 942.5C1019.57 991 867.573 1233.5 721.573 1164.5L712.568 1097C769.068 1155.5 871.302 1075.76 823.573 1023C775.697 983.656 788.965 931.852 867.573 942.5Z" fill="#2E313D" stroke="black" stroke-width="14" stroke-linecap="round" stroke-linejoin="round"/>
<path d="M462.57 286L550.57 404.039C560.553 404.942 570.592 406.441 580.57 408.498C547.919 351.444 520.158 325.945 462.57 286Z" fill="#565A70"/>
<path d="M662.57 439.33L785.07 383.499C720.009 395.162 686.275 403.412 646.238 430.713C651.815 433.41 657.268 436.286 662.57 439.33Z" fill="#979EC4"/>
<path d="M785.07 383.499L662.57 439.33C698.045 459.701 726.74 487.633 740.48 520.5C789.965 478.928 800.914 449.373 785.07 383.499Z" fill="#FF9865"/>
<path d="M462.57 286C432.492 332.493 421.922 362.108 431.07 430.713C462.853 407.798 506.152 400.02 550.57 404.039L462.57 286Z" fill="#FFBA89"/>
<path d="M382.07 568C432.576 691.276 621.258 706.615 702.57 665.5C751.62 625.353 758.426 572.11 740.48 520.5C726.74 487.633 698.045 459.701 662.57 439.33C657.268 436.286 651.815 433.41 646.238 430.713C625.589 420.725 603.238 413.171 580.57 408.498C570.592 406.441 560.553 404.942 550.57 404.039C506.152 400.02 462.853 407.798 431.07 430.713C388.294 460.963 364.254 507.075 382.07 568Z" fill="#565A70"/>
<path d="M382.07 568C432.576 691.276 621.258 706.615 702.57 665.5C735.93 815.473 365.339 719.798 364.09 609.284C363.935 595.604 369.44 581.697 382.07 568Z" fill="#3E0070"/>
<path d="M280.57 1262.5C280.57 1262.5 402.954 1205.75 469.069 1144C501.61 1214.51 530.609 1272.99 583.069 1284C578.989 1316.13 574.062 1331.77 553.069 1340.5C532.076 1349.23 530.718 1430.19 564.069 1414C570.61 1433.19 577.471 1428.52 591.069 1422.5C602.363 1435.82 612.174 1433.99 630.069 1422.5C657.431 1412.87 666.393 1387.6 669.07 1345.5C675.664 1326.48 676.876 1314.6 694.07 1294C711.267 1257.9 716.924 1236.67 703.617 1193C733.31 1124.31 703.62 1035.4 657.569 1007.5C632.069 1001 626.336 866.836 693.069 825C714.571 857.001 862.569 868.5 884.069 852.5C904.069 856 934.07 848.5 931.07 831.5C951.754 824.323 946.209 819.127 938.358 811.771L938.069 811.5C951.569 804 942.07 790.5 931.07 790.5C936.57 766 916.569 761 893.069 772.5C750.829 756.069 723.07 721 702.57 665.5C735.93 815.473 365.339 719.798 364.09 609.284C319.05 588.62 329.106 499.18 346.07 452C350.804 421.265 364.617 414.955 337.567 406.5C336.217 394.388 327.547 393.556 311.067 394.5C298.494 386.77 295.067 390.499 283.067 399C259.713 392.409 246.941 422.661 243.567 471C210.267 625.622 232.472 695.559 328.067 753C303.156 839.65 294.143 890.317 293.567 986C252.989 1039.1 238.645 1072.21 221.567 1138.5C215.464 1130.33 204.571 1120 194.067 1111C194.067 1080 183.567 1061 159.567 1080C151.462 1063.13 137.567 1065.5 129.067 1082.5C112.367 1087.12 101.491 1093.04 100.567 1111C68.9415 1135.74 78.9997 1150.45 108.569 1190C132.324 1208.41 143.098 1218.69 161.069 1240.5C186.086 1268.29 206.455 1280.95 249.569 1278.5C270.658 1279.29 278.929 1261.18 280.57 1235.86V1214C280.972 1221.66 281.013 1229.02 280.57 1235.86V1262.5Z" fill="#3A3D4C"/>
<path d="M469.069 1144C402.954 1205.75 280.57 1262.5 280.57 1262.5V1235.86M469.069 1144C455.252 1105.45 448.271 1069.71 444.57 1029.5M469.069 1144C501.61 1214.51 530.609 1272.99 583.069 1284M600.069 1284C593.968 1284 588.645 1285.17 583.069 1284M689.07 1218C694.962 1210.28 699.781 1201.87 703.617 1193M237.567 1173C231.396 1156.06 230.114 1149.94 221.567 1138.5M221.567 1138.5C215.464 1130.33 204.571 1120 194.067 1111C194.067 1080 183.567 1061 159.567 1080C151.462 1063.13 137.567 1065.5 129.067 1082.5C112.367 1087.12 101.491 1093.04 100.567 1111C68.9415 1135.74 78.9997 1150.45 108.569 1190C132.324 1208.41 143.098 1218.69 161.069 1240.5C186.086 1268.29 206.455 1280.95 249.569 1278.5C270.658 1279.29 278.929 1261.18 280.57 1235.86M221.567 1138.5C238.645 1072.21 252.989 1039.1 293.567 986C294.143 890.317 303.156 839.65 328.067 753M339.067 731.5C337.141 736.797 329.867 747.959 328.067 753M328.067 753C232.472 695.559 210.267 625.622 243.567 471C246.941 422.661 259.713 392.409 283.067 399C295.067 390.499 298.494 386.77 311.067 394.5C327.547 393.556 336.217 394.388 337.567 406.5C364.617 414.955 350.804 421.265 346.07 452C329.106 499.18 319.05 588.62 364.09 609.284M364.09 609.284C363.935 595.604 369.44 581.697 382.07 568M364.09 609.284C365.339 719.798 735.93 815.473 702.57 665.5M382.07 568C432.576 691.276 621.258 706.615 702.57 665.5M382.07 568C364.254 507.075 388.294 460.963 431.07 430.713M702.57 665.5C751.62 625.353 758.426 572.11 740.48 520.5M702.57 665.5C723.07 721 750.829 756.069 893.069 772.5C916.569 761 936.57 766 931.07 790.5C942.07 790.5 951.569 804 938.069 811.5M462.57 286C432.492 332.493 421.922 362.108 431.07 430.713M462.57 286L550.57 404.039M462.57 286C520.158 325.945 547.919 351.444 580.57 408.498M431.07 430.713C462.853 407.798 506.152 400.02 550.57 404.039M550.57 404.039C560.553 404.942 570.592 406.441 580.57 408.498M580.57 408.498C603.238 413.171 625.589 420.725 646.238 430.713M785.07 383.499L662.57 439.33M785.07 383.499C720.009 395.162 686.275 403.412 646.238 430.713M785.07 383.499C800.914 449.373 789.965 478.928 740.48 520.5M662.57 439.33C657.268 436.286 651.815 433.41 646.238 430.713M662.57 439.33C698.045 459.701 726.74 487.633 740.48 520.5M938.069 811.5L938.358 811.771M938.069 811.5C938.166 811.591 938.262 811.681 938.358 811.771M703.617 1193C733.309 1124.31 703.62 1035.4 657.569 1007.5C632.069 1001 626.336 866.836 693.069 825C714.571 857.001 862.569 868.5 884.069 852.5C904.069 856 934.07 848.5 931.07 831.5C951.754 824.323 946.209 819.127 938.358 811.771M703.617 1193C716.924 1236.67 711.267 1257.9 694.07 1294C676.876 1314.6 675.664 1326.48 669.07 1345.5C666.393 1387.6 657.431 1412.87 630.069 1422.5C612.174 1433.99 602.363 1435.82 591.069 1422.5C577.471 1428.52 570.61 1433.19 564.069 1414C530.718 1430.19 532.076 1349.23 553.069 1340.5C574.062 1331.77 578.989 1316.13 583.069 1284M280.57 1235.86V1214C280.972 1221.66 281.013 1229.02 280.57 1235.86Z" stroke="black" stroke-width="14" stroke-linecap="round" stroke-linejoin="round"/>
<path d="M405.067 683C379.064 660 360.066 644 357.069 613.5C321.689 599.587 322.183 495.141 341.067 448.5C345.32 438.5 353.069 415 344.569 415C334.069 413.5 333.569 411 333.069 406C331.372 400.752 321.671 399.088 316.067 401C309.868 403.136 307.969 401.529 304.069 398C296.967 392.078 291.71 395.702 285.067 406C280.626 404.81 276.705 403.921 272.069 406C254.067 419.5 247.065 459 250.065 469.5C238.363 493.525 222.497 592.699 249.069 660.5C323.569 729.5 418.064 709.5 405.067 683Z" fill="#979EC4"/>
<path d="M517.068 349.08C523.129 352.467 526.025 352.669 530.068 349.08C515.019 331.346 492.068 311.581 490.068 313.08L517.068 349.08Z" fill="#979EC4"/>
<path d="M401.569 680C464.972 721.902 519.298 742.264 598.069 749.5C569.111 816.942 466.848 850.744 312.569 844C318.909 804.177 332.569 754.5 338.069 748.5C357.569 718 332.569 719 325.569 743C279.298 717.691 259.415 696.036 248.569 659C320.403 726.695 399.592 711.202 401.569 680Z" fill="#565A70"/>
<path d="M240.069 1159.5C244.928 1105.44 259.316 1066.91 282.069 1014C262.338 1038.67 243.495 1080.36 229.069 1137L240.069 1159.5Z" fill="#565A70"/>
<path d="M864.07 958C873.57 958 874.07 951 865.57 949C804.412 941.896 781.984 976.813 815.57 1007C856.003 1033.67 851.31 1084.21 798.57 1115C860.07 1110.5 870.57 1017.5 822.57 995C798.867 974.043 817.524 962.873 864.07 958Z" fill="#3A3D4C"/>
<path d="M460.569 1143C451.824 1113.46 446.901 1090.72 439.069 1049C417.963 1139.61 382.069 1181.5 287.569 1221C287.106 1235.24 287.569 1239.5 287.569 1251C366.463 1214 399.454 1193.6 460.569 1143Z" fill="#2E313D"/>
<path d="M607.064 1282.5C662.564 1306 724.569 1120.5 656.569 1014.5C696.569 1043 727.884 1119 695.884 1196.5C678.064 1221 683.564 1236.5 701.064 1212.5C709.256 1240.59 707.925 1261.02 686.384 1296L664.384 1342C662.735 1360.75 659.776 1370.37 656.384 1389C646.982 1405.97 640.342 1412.37 625.564 1417C609.138 1427.72 602.574 1428.15 595.569 1417.5L595.479 1417.45C592.743 1415.83 591.298 1414.97 586.064 1417C575.993 1423.93 572.476 1422.08 569.57 1409.5C566.862 1406.82 564.747 1406.26 559.514 1408.02C559.365 1408.07 559.217 1408.12 559.07 1408.17C539.349 1418.29 545.67 1352.35 554.568 1347.5C576.568 1337 585.036 1319.88 589.064 1292C600.882 1289.35 607.493 1288.48 607.064 1282.5Z" fill="#2E313D"/>
<path d="M424.572 594.5C318.07 507 446.216 353.251 626.57 429C496.07 412.061 414.572 506.5 424.572 594.5Z" fill="#979EC4"/>
<path d="M741.569 555C709.08 626.129 680.187 666.423 539.069 673C665.904 701.137 751.069 665 741.569 555Z" fill="#3A3D4C"/>
<path d="M371.07 613.5C370.097 603.428 372.231 596.5 376.57 587.5C378.07 626 396.136 650.34 434.231 677C437.231 680 436.731 685 431.231 683C391.025 657.374 373.653 641.026 371.07 613.5Z" fill="#7C00E0"/>
<path d="M576.069 711.5C555.685 711.904 538.125 717.466 537.069 726C532.182 725.872 529.63 725.033 524.569 721.5C531.285 714.23 530.644 696.973 530.569 685C582.424 693.425 608.211 701.853 696.569 676C704.569 716.5 660.895 747.962 573.069 732.5C625.483 735.018 636.496 728.824 654.569 706.5C619.819 707.875 624.924 713.717 576.069 711.5Z" fill="#280048"/>
<path d="M493.073 449C518.272 449 536.073 465.304 536.073 482.5C536.073 499.696 518.272 516 493.073 516C467.875 516 450.073 499.696 450.073 482.5C450.073 465.304 467.875 449 493.073 449Z" fill="white" stroke="black" stroke-width="14" stroke-linecap="round" stroke-linejoin="round"/>
<path d="M668.602 502.612C691.88 512.261 702.082 534.14 695.497 550.025C688.913 565.91 666.225 574.155 642.947 564.506C619.669 554.857 609.467 532.979 616.052 517.094C622.637 501.209 645.325 492.963 668.602 502.612Z" fill="white" stroke="black" stroke-width="14" stroke-linecap="round" stroke-linejoin="round"/>
<path d="M490.068 456.5C498.308 456.5 505.445 458.336 510.29 460.979C515.381 463.755 516.568 466.523 516.568 468C516.568 469.477 515.381 472.245 510.29 475.021C505.445 477.664 498.308 479.5 490.068 479.5C481.829 479.5 474.692 477.664 469.847 475.021C464.756 472.245 463.568 469.477 463.568 468C463.568 466.523 464.756 463.755 469.847 460.979C474.692 458.336 481.829 456.5 490.068 456.5Z" fill="black" stroke="black" stroke-width="13" stroke-linecap="round" stroke-linejoin="round"/>
<path d="M652.174 507.057C660.412 506.918 667.579 508.633 672.468 511.193C677.605 513.884 678.839 516.631 678.864 518.108C678.889 519.584 677.749 522.372 672.706 525.234C667.906 527.959 660.801 529.915 652.563 530.054C644.325 530.194 637.157 528.479 632.268 525.918C627.131 523.228 625.897 520.481 625.872 519.004C625.847 517.528 626.987 514.74 632.031 511.877C636.83 509.153 643.935 507.197 652.174 507.057Z" fill="black" stroke="black" stroke-width="13" stroke-linecap="round" stroke-linejoin="round"/>
<circle cx="479.068" cy="467" r="5" fill="white"/>
<circle cx="639.568" cy="515.5" r="4.5" fill="white"/>
<g filter="url(#filter0_d_588_394)">
<ellipse cx="294.352" cy="417.896" rx="9.19592" ry="14.1198" transform="rotate(13.7021 294.352 417.896)" fill="#FF9865"/>
<path d="M296.868 407.579C297.807 407.808 298.965 408.713 299.733 410.898C300.488 413.046 300.672 416.02 299.886 419.246C299.099 422.472 297.568 425.027 295.908 426.587C294.22 428.173 292.776 428.442 291.837 428.214C290.898 427.985 289.74 427.081 288.971 424.895C288.216 422.747 288.032 419.773 288.818 416.547C289.605 413.321 291.137 410.766 292.796 409.206C294.485 407.62 295.929 407.35 296.868 407.579Z" stroke="black" stroke-width="7" stroke-linecap="round" stroke-linejoin="round"/>
</g>
<g filter="url(#filter1_d_588_394)">
<ellipse cx="315.438" cy="420.7" rx="9.19592" ry="14.1198" transform="rotate(25.412 315.438 420.7)" fill="#FF9865"/>
<path d="M319.996 411.108C320.869 411.523 321.819 412.643 322.127 414.939C322.431 417.196 322.008 420.145 320.583 423.144C319.158 426.144 317.14 428.334 315.198 429.525C313.223 430.736 311.755 430.707 310.882 430.292C310.009 429.877 309.058 428.757 308.749 426.461C308.445 424.204 308.869 421.255 310.293 418.256C311.718 415.257 313.737 413.066 315.679 411.875C317.654 410.664 319.123 410.693 319.996 411.108Z" stroke="black" stroke-width="7" stroke-linecap="round" stroke-linejoin="round"/>
</g>
<g filter="url(#filter2_d_588_394)">
<ellipse cx="333.352" cy="435.896" rx="9.19592" ry="14.1198" transform="rotate(30.0469 333.352 435.896)" fill="#FF9865"/>
<path d="M338.67 426.704C339.506 427.188 340.362 428.382 340.485 430.695C340.605 432.969 339.945 435.874 338.282 438.748C336.62 441.623 334.431 443.643 332.399 444.673C330.333 445.72 328.872 445.572 328.035 445.089C327.199 444.605 326.341 443.411 326.219 441.098C326.099 438.824 326.759 435.919 328.422 433.044C330.084 430.17 332.273 428.15 334.305 427.12C336.371 426.072 337.833 426.22 338.67 426.704Z" stroke="black" stroke-width="7" stroke-linecap="round" stroke-linejoin="round"/>
</g>
<g filter="url(#filter3_d_588_394)">
<ellipse cx="274.573" cy="428.932" rx="9.19592" ry="14.1198" transform="rotate(-5.46993 274.573 428.932)" fill="#FF9865"/>
<path d="M273.561 418.36C274.523 418.268 275.914 418.743 277.357 420.554C278.776 422.336 279.926 425.084 280.243 428.389C280.559 431.695 279.952 434.611 278.896 436.629C277.823 438.682 276.548 439.411 275.586 439.503C274.624 439.595 273.233 439.122 271.789 437.31C270.37 435.528 269.22 432.781 268.903 429.475C268.587 426.17 269.195 423.253 270.25 421.235C271.323 419.182 272.599 418.452 273.561 418.36Z" stroke="black" stroke-width="7" stroke-linecap="round" stroke-linejoin="round"/>
</g>
<path d="M288.571 442.5C285.538 448.195 282.257 450.619 270.571 451C255.071 488.5 320.071 496 321.572 459C312.337 458.832 310.061 454.567 308.571 445.5C304.571 436.5 292.571 435.5 288.571 442.5Z" fill="#FF9865" stroke="black" stroke-width="7" stroke-linecap="round" stroke-linejoin="round"/>
<g filter="url(#filter4_d_588_394)">
<ellipse cx="903.556" cy="787.925" rx="7.49136" ry="11.5805" transform="rotate(82.576 903.556 787.925)" fill="#FF9865"/>
<path d="M912.56 786.751C912.681 787.681 912.249 788.935 910.742 790.214C909.258 791.473 906.965 792.514 904.201 792.874C901.437 793.234 898.953 792.816 897.196 791.979C895.411 791.129 894.672 790.027 894.551 789.098C894.43 788.169 894.862 786.915 896.369 785.636C897.854 784.376 900.147 783.336 902.911 782.975C905.676 782.615 908.158 783.033 909.916 783.871C911.7 784.721 912.439 785.822 912.56 786.751Z" stroke="black" stroke-width="5" stroke-linecap="round" stroke-linejoin="round"/>
</g>
<g filter="url(#filter5_d_588_394)">
<ellipse cx="915.694" cy="801.735" rx="7.68593" ry="10.5829" transform="rotate(89.734 915.694 801.735)" fill="#FF9865"/>
<path d="M923.777 801.697C923.782 802.821 923.166 804.062 921.724 805.119C920.286 806.174 918.17 806.91 915.718 806.921C913.266 806.932 911.145 806.216 909.696 805.175C908.245 804.131 907.616 802.896 907.611 801.772C907.606 800.648 908.223 799.408 909.665 798.351C911.103 797.296 913.218 796.561 915.67 796.549C918.122 796.538 920.244 797.254 921.693 798.296C923.143 799.339 923.772 800.573 923.777 801.697Z" stroke="black" stroke-width="5" stroke-linecap="round" stroke-linejoin="round"/>
</g>
<g filter="url(#filter6_d_588_394)">
<ellipse cx="916.601" cy="818.235" rx="7.18632" ry="10.4978" transform="rotate(103.555 916.601 818.235)" fill="#FF9865"/>
<path d="M924.376 820.11C924.161 821.003 923.373 821.956 921.737 822.579C920.114 823.196 917.895 823.368 915.503 822.791C913.111 822.214 911.213 821.05 910.05 819.761C908.878 818.461 908.611 817.254 908.826 816.361C909.041 815.467 909.829 814.515 911.465 813.892C913.088 813.274 915.308 813.103 917.7 813.679C920.092 814.256 921.989 815.42 923.152 816.71C924.325 818.01 924.592 819.216 924.376 820.11Z" stroke="black" stroke-width="5" stroke-linecap="round" stroke-linejoin="round"/>
</g>
<g filter="url(#filter7_d_588_394)">
<ellipse cx="904.648" cy="831.019" rx="7.18632" ry="10.4978" transform="rotate(115.62 904.648 831.019)" fill="#FF9865"/>
<path d="M911.859 834.478C911.462 835.306 910.492 836.073 908.762 836.34C907.046 836.605 904.839 836.309 902.621 835.245C900.402 834.181 898.79 832.646 897.922 831.142C897.047 829.626 897.038 828.39 897.436 827.561C897.833 826.732 898.803 825.965 900.533 825.698C902.249 825.434 904.455 825.73 906.674 826.793C908.892 827.857 910.505 829.393 911.372 830.896C912.247 832.413 912.257 833.649 911.859 834.478Z" stroke="black" stroke-width="5" stroke-linecap="round" stroke-linejoin="round"/>
</g>
<path d="M897.569 803.499C893.847 800.868 889.504 801.893 889.069 791.499C864.631 778.148 863.568 845.5 889.068 829.499C889.028 821.281 892.744 819.431 898.569 817.999C904.309 814.335 902.149 806.976 897.569 803.499Z" fill="#FF9865" stroke="black" stroke-width="5" stroke-linecap="round" stroke-linejoin="round"/>
<g filter="url(#filter8_d_588_394)">
<ellipse cx="114.975" cy="1141.26" rx="10.161" ry="14.0369" transform="rotate(-30.7161 114.975 1141.26)" fill="#FF9865"/>
<path d="M109.593 1132.2C110.799 1131.48 112.557 1131.34 114.693 1132.27C116.824 1133.19 119.057 1135.09 120.702 1137.86C122.346 1140.62 122.945 1143.49 122.736 1145.8C122.526 1148.12 121.563 1149.6 120.357 1150.32C119.15 1151.03 117.392 1151.17 115.257 1150.25C113.126 1149.33 110.893 1147.43 109.248 1144.66C107.603 1141.89 107.004 1139.02 107.214 1136.71C107.424 1134.39 108.387 1132.92 109.593 1132.2Z" stroke="black" stroke-width="7" stroke-linecap="round" stroke-linejoin="round"/>
</g>
<g filter="url(#filter9_d_588_394)">
<ellipse cx="126.72" cy="1112.81" rx="10.161" ry="14.0369" transform="rotate(-21.8229 126.72 1112.81)" fill="#FF9865"/>
<path d="M122.803 1103.03C124.106 1102.51 125.865 1102.64 127.832 1103.88C129.794 1105.12 131.707 1107.34 132.904 1110.33C134.101 1113.32 134.25 1116.25 133.685 1118.5C133.119 1120.76 131.939 1122.07 130.637 1122.59C129.335 1123.11 127.576 1122.98 125.609 1121.73C123.647 1120.49 121.734 1118.27 120.537 1115.28C119.34 1112.3 119.191 1109.37 119.756 1107.12C120.322 1104.86 121.501 1103.55 122.803 1103.03Z" stroke="black" stroke-width="7" stroke-linecap="round" stroke-linejoin="round"/>
</g>
<g filter="url(#filter10_d_588_394)">
<ellipse cx="147.72" cy="1099.81" rx="10.161" ry="14.0369" transform="rotate(-21.8229 147.72 1099.81)" fill="#FF9865"/>
<path d="M143.803 1090.03C145.106 1089.51 146.865 1089.64 148.832 1090.88C150.794 1092.12 152.707 1094.34 153.904 1097.33C155.101 1100.32 155.25 1103.25 154.685 1105.5C154.119 1107.76 152.939 1109.07 151.637 1109.59C150.335 1110.11 148.576 1109.98 146.609 1108.73C144.647 1107.49 142.734 1105.27 141.537 1102.28C140.34 1099.3 140.191 1096.37 140.756 1094.12C141.322 1091.86 142.501 1090.55 143.803 1090.03Z" stroke="black" stroke-width="7" stroke-linecap="round" stroke-linejoin="round"/>
</g>
<g filter="url(#filter11_d_588_394)">
<ellipse cx="173.727" cy="1102.08" rx="10.161" ry="14.0369" transform="rotate(6.37677 173.727 1102.08)" fill="#FF9865"/>
<path d="M174.897 1091.61C176.291 1091.76 177.777 1092.71 178.924 1094.74C180.068 1096.76 180.704 1099.62 180.347 1102.82C179.989 1106.02 178.737 1108.67 177.175 1110.39C175.61 1112.11 173.951 1112.71 172.557 1112.55C171.162 1112.39 169.676 1111.44 168.53 1109.42C167.386 1107.4 166.749 1104.54 167.107 1101.34C167.464 1098.14 168.717 1095.49 170.278 1093.77C171.844 1092.05 173.503 1091.45 174.897 1091.61Z" stroke="black" stroke-width="7" stroke-linecap="round" stroke-linejoin="round"/>
</g>
<path d="M139.816 1138.04C140.585 1143.95 145.324 1147.62 135.958 1156.23C144.695 1191.9 208.765 1140.07 171.585 1126.37C163.915 1132.87 158.949 1130.5 152.54 1125.62C144.112 1122.59 139.092 1130.59 139.816 1138.04Z" fill="#FF9865" stroke="black" stroke-width="7" stroke-linecap="round" stroke-linejoin="round"/>
<path d="M586.385 550.5C572.777 538.887 557.068 536 538.068 533.5C536.426 550.315 541.684 553.341 549.068 561L554.318 562.75L560.068 564.5C569.994 561.149 578.539 561.637 586.385 550.5Z" fill="#FF9865"/>
<path d="M554.318 562.75L560.068 564.5C569.994 561.149 578.539 561.637 586.385 550.5C572.777 538.887 557.068 536 538.068 533.5C536.426 550.315 541.684 553.341 549.068 561L554.318 562.75ZM554.318 562.75L547.068 578.5M547.068 578.5C527.337 585.409 519.527 590.583 508.568 601M547.068 578.5C560.75 598.298 564.593 607.553 566.068 621.5" stroke="black" stroke-width="12" stroke-linecap="round" stroke-linejoin="round"/>
<path d="M526.072 699.5C526.072 713.031 515.103 724 501.572 724C491.603 724 483.025 718.046 479.199 709.5C477.832 706.446 477.072 703.062 477.072 699.5C477.072 685.969 488.041 675 501.572 675C508.174 675 514.167 677.611 518.572 681.858C523.196 686.314 526.072 692.571 526.072 699.5Z" fill="#FFE600"/>
<path d="M518.572 681.858C514.167 677.611 508.174 675 501.572 675C488.041 675 477.072 685.969 477.072 699.5C477.072 703.062 477.832 706.446 479.199 709.5M518.572 681.858C523.196 686.314 526.072 692.571 526.072 699.5C526.072 713.031 515.103 724 501.572 724C491.603 724 483.025 718.046 479.199 709.5M518.572 681.858C507.775 698.818 498.906 704.53 479.199 709.5" stroke="black" stroke-width="15" stroke-linecap="round" stroke-linejoin="round"/>
<path d="M436.069 419.5L449.569 411.5C438.147 375.185 457.068 304.5 467.569 320.5C475.735 322.049 478.204 321.98 479.569 320.5L463.069 297.5C437.059 342.792 428.513 369.755 436.069 419.5Z" fill="#FF9865"/>
<path d="M371.356 225.405L408.096 269.861L414.227 208.628L464.357 192.385L417.906 163.715L418.517 108.777L382.174 151.056L324.099 146.777L354.568 183.443L319.531 230.731L371.356 225.405Z" fill="#FFFF02"/>
<path d="M231.219 576.666L371.356 225.405M371.356 225.405L408.096 269.861L414.227 208.628L464.357 192.385L417.906 163.715L418.517 108.777L382.174 151.056L324.099 146.777L354.568 183.443L319.531 230.731L371.356 225.405Z" stroke="#FF45FF" stroke-width="13"/>
<g filter="url(#filter12_f_588_394)">
<path d="M371.356 225.406L408.095 269.861L414.226 208.628L464.356 192.385L417.905 163.715L418.517 108.778L382.173 151.057L324.099 146.777L354.568 183.443L319.531 230.731L371.356 225.406Z" fill="#FFFFAF"/>
</g>
<defs>
<filter id="filter0_d_588_394" x="280.81" y="404.004" width="27.085" height="35.7837" filterUnits="userSpaceOnUse" color-interpolation-filters="sRGB">
<feFlood flood-opacity="0" result="BackgroundImageFix"/>
<feColorMatrix in="SourceAlpha" type="matrix" values="0 0 0 0 0 0 0 0 0 0 0 0 0 0 0 0 0 0 127 0" result="hardAlpha"/>
<feOffset dy="4"/>
<feGaussianBlur stdDeviation="2"/>
<feComposite in2="hardAlpha" operator="out"/>
<feColorMatrix type="matrix" values="0 0 0 0 0 0 0 0 0 0 0 0 0 0 0 0 0 0 0.25 0"/>
<feBlend mode="normal" in2="BackgroundImageFix" result="effect1_dropShadow_588_394"/>
<feBlend mode="normal" in="SourceGraphic" in2="effect1_dropShadow_588_394" result="shape"/>
</filter>
<filter id="filter1_d_588_394" x="301.156" y="407.346" width="28.5645" height="34.7075" filterUnits="userSpaceOnUse" color-interpolation-filters="sRGB">
<feFlood flood-opacity="0" result="BackgroundImageFix"/>
<feColorMatrix in="SourceAlpha" type="matrix" values="0 0 0 0 0 0 0 0 0 0 0 0 0 0 0 0 0 0 127 0" result="hardAlpha"/>
<feOffset dy="4"/>
<feGaussianBlur stdDeviation="2"/>
<feComposite in2="hardAlpha" operator="out"/>
<feColorMatrix type="matrix" values="0 0 0 0 0 0 0 0 0 0 0 0 0 0 0 0 0 0 0.25 0"/>
<feBlend mode="normal" in2="BackgroundImageFix" result="effect1_dropShadow_588_394"/>
<feBlend mode="normal" in="SourceGraphic" in2="effect1_dropShadow_588_394" result="shape"/>
</filter>
<filter id="filter2_d_588_394" x="318.705" y="422.832" width="29.2939" height="34.1289" filterUnits="userSpaceOnUse" color-interpolation-filters="sRGB">
<feFlood flood-opacity="0" result="BackgroundImageFix"/>
<feColorMatrix in="SourceAlpha" type="matrix" values="0 0 0 0 0 0 0 0 0 0 0 0 0 0 0 0 0 0 127 0" result="hardAlpha"/>
<feOffset dy="4"/>
<feGaussianBlur stdDeviation="2"/>
<feComposite in2="hardAlpha" operator="out"/>
<feColorMatrix type="matrix" values="0 0 0 0 0 0 0 0 0 0 0 0 0 0 0 0 0 0 0.25 0"/>
<feBlend mode="normal" in2="BackgroundImageFix" result="effect1_dropShadow_588_394"/>
<feBlend mode="normal" in="SourceGraphic" in2="effect1_dropShadow_588_394" result="shape"/>
</filter>
<filter id="filter3_d_588_394" x="261.319" y="414.849" width="26.5078" height="36.1665" filterUnits="userSpaceOnUse" color-interpolation-filters="sRGB">
<feFlood flood-opacity="0" result="BackgroundImageFix"/>
<feColorMatrix in="SourceAlpha" type="matrix" values="0 0 0 0 0 0 0 0 0 0 0 0 0 0 0 0 0 0 127 0" result="hardAlpha"/>
<feOffset dy="4"/>
<feGaussianBlur stdDeviation="2"/>
<feComposite in2="hardAlpha" operator="out"/>
<feColorMatrix type="matrix" values="0 0 0 0 0 0 0 0 0 0 0 0 0 0 0 0 0 0 0.25 0"/>
<feBlend mode="normal" in2="BackgroundImageFix" result="effect1_dropShadow_588_394"/>
<feBlend mode="normal" in="SourceGraphic" in2="effect1_dropShadow_588_394" result="shape"/>
</filter>
<filter id="filter4_d_588_394" x="888.031" y="780.346" width="31.0498" height="23.1582" filterUnits="userSpaceOnUse" color-interpolation-filters="sRGB">
<feFlood flood-opacity="0" result="BackgroundImageFix"/>
<feColorMatrix in="SourceAlpha" type="matrix" values="0 0 0 0 0 0 0 0 0 0 0 0 0 0 0 0 0 0 127 0" result="hardAlpha"/>
<feOffset dy="4"/>
<feGaussianBlur stdDeviation="2"/>
<feComposite in2="hardAlpha" operator="out"/>
<feColorMatrix type="matrix" values="0 0 0 0 0 0 0 0 0 0 0 0 0 0 0 0 0 0 0.25 0"/>
<feBlend mode="normal" in2="BackgroundImageFix" result="effect1_dropShadow_588_394"/>
<feBlend mode="normal" in="SourceGraphic" in2="effect1_dropShadow_588_394" result="shape"/>
</filter>
<filter id="filter5_d_588_394" x="901.111" y="794.049" width="29.166" height="23.3721" filterUnits="userSpaceOnUse" color-interpolation-filters="sRGB">
<feFlood flood-opacity="0" result="BackgroundImageFix"/>
<feColorMatrix in="SourceAlpha" type="matrix" values="0 0 0 0 0 0 0 0 0 0 0 0 0 0 0 0 0 0 127 0" result="hardAlpha"/>
<feOffset dy="4"/>
<feGaussianBlur stdDeviation="2"/>
<feComposite in2="hardAlpha" operator="out"/>
<feColorMatrix type="matrix" values="0 0 0 0 0 0 0 0 0 0 0 0 0 0 0 0 0 0 0.25 0"/>
<feBlend mode="normal" in2="BackgroundImageFix" result="effect1_dropShadow_588_394"/>
<feBlend mode="normal" in="SourceGraphic" in2="effect1_dropShadow_588_394" result="shape"/>
</filter>
<filter id="filter6_d_588_394" x="902.257" y="810.826" width="28.6895" height="22.8179" filterUnits="userSpaceOnUse" color-interpolation-filters="sRGB">
<feFlood flood-opacity="0" result="BackgroundImageFix"/>
<feColorMatrix in="SourceAlpha" type="matrix" values="0 0 0 0 0 0 0 0 0 0 0 0 0 0 0 0 0 0 127 0" result="hardAlpha"/>
<feOffset dy="4"/>
<feGaussianBlur stdDeviation="2"/>
<feComposite in2="hardAlpha" operator="out"/>
<feColorMatrix type="matrix" values="0 0 0 0 0 0 0 0 0 0 0 0 0 0 0 0 0 0 0.25 0"/>
<feBlend mode="normal" in2="BackgroundImageFix" result="effect1_dropShadow_588_394"/>
<feBlend mode="normal" in="SourceGraphic" in2="effect1_dropShadow_588_394" result="shape"/>
</filter>
<filter id="filter7_d_588_394" x="890.683" y="823.107" width="27.9307" height="23.8242" filterUnits="userSpaceOnUse" color-interpolation-filters="sRGB">
<feFlood flood-opacity="0" result="BackgroundImageFix"/>
<feColorMatrix in="SourceAlpha" type="matrix" values="0 0 0 0 0 0 0 0 0 0 0 0 0 0 0 0 0 0 127 0" result="hardAlpha"/>
<feOffset dy="4"/>
<feGaussianBlur stdDeviation="2"/>
<feComposite in2="hardAlpha" operator="out"/>
<feColorMatrix type="matrix" values="0 0 0 0 0 0 0 0 0 0 0 0 0 0 0 0 0 0 0.25 0"/>
<feBlend mode="normal" in2="BackgroundImageFix" result="effect1_dropShadow_588_394"/>
<feBlend mode="normal" in="SourceGraphic" in2="effect1_dropShadow_588_394" result="shape"/>
</filter>
<filter id="filter8_d_588_394" x="99.6729" y="1128.12" width="30.6035" height="34.2793" filterUnits="userSpaceOnUse" color-interpolation-filters="sRGB">
<feFlood flood-opacity="0" result="BackgroundImageFix"/>
<feColorMatrix in="SourceAlpha" type="matrix" values="0 0 0 0 0 0 0 0 0 0 0 0 0 0 0 0 0 0 127 0" result="hardAlpha"/>
<feOffset dy="4"/>
<feGaussianBlur stdDeviation="2"/>
<feComposite in2="hardAlpha" operator="out"/>
<feColorMatrix type="matrix" values="0 0 0 0 0 0 0 0 0 0 0 0 0 0 0 0 0 0 0.25 0"/>
<feBlend mode="normal" in2="BackgroundImageFix" result="effect1_dropShadow_588_394"/>
<feBlend mode="normal" in="SourceGraphic" in2="effect1_dropShadow_588_394" result="shape"/>
</filter>
<filter id="filter9_d_588_394" x="111.938" y="1099.24" width="29.5635" height="35.1421" filterUnits="userSpaceOnUse" color-interpolation-filters="sRGB">
<feFlood flood-opacity="0" result="BackgroundImageFix"/>
<feColorMatrix in="SourceAlpha" type="matrix" values="0 0 0 0 0 0 0 0 0 0 0 0 0 0 0 0 0 0 127 0" result="hardAlpha"/>
<feOffset dy="4"/>
<feGaussianBlur stdDeviation="2"/>
<feComposite in2="hardAlpha" operator="out"/>
<feColorMatrix type="matrix" values="0 0 0 0 0 0 0 0 0 0 0 0 0 0 0 0 0 0 0.25 0"/>
<feBlend mode="normal" in2="BackgroundImageFix" result="effect1_dropShadow_588_394"/>
<feBlend mode="normal" in="SourceGraphic" in2="effect1_dropShadow_588_394" result="shape"/>
</filter>
<filter id="filter10_d_588_394" x="132.938" y="1086.24" width="29.5635" height="35.1421" filterUnits="userSpaceOnUse" color-interpolation-filters="sRGB">
<feFlood flood-opacity="0" result="BackgroundImageFix"/>
<feColorMatrix in="SourceAlpha" type="matrix" values="0 0 0 0 0 0 0 0 0 0 0 0 0 0 0 0 0 0 127 0" result="hardAlpha"/>
<feOffset dy="4"/>
<feGaussianBlur stdDeviation="2"/>
<feComposite in2="hardAlpha" operator="out"/>
<feColorMatrix type="matrix" values="0 0 0 0 0 0 0 0 0 0 0 0 0 0 0 0 0 0 0.25 0"/>
<feBlend mode="normal" in2="BackgroundImageFix" result="effect1_dropShadow_588_394"/>
<feBlend mode="normal" in="SourceGraphic" in2="effect1_dropShadow_588_394" result="shape"/>
</filter>
<filter id="filter11_d_588_394" x="159.508" y="1088.08" width="28.4375" height="35.9927" filterUnits="userSpaceOnUse" color-interpolation-filters="sRGB">
<feFlood flood-opacity="0" result="BackgroundImageFix"/>
<feColorMatrix in="SourceAlpha" type="matrix" values="0 0 0 0 0 0 0 0 0 0 0 0 0 0 0 0 0 0 127 0" result="hardAlpha"/>
<feOffset dy="4"/>
<feGaussianBlur stdDeviation="2"/>
<feComposite in2="hardAlpha" operator="out"/>
<feColorMatrix type="matrix" values="0 0 0 0 0 0 0 0 0 0 0 0 0 0 0 0 0 0 0.25 0"/>
<feBlend mode="normal" in2="BackgroundImageFix" result="effect1_dropShadow_588_394"/>
<feBlend mode="normal" in="SourceGraphic" in2="effect1_dropShadow_588_394" result="shape"/>
</filter>
<filter id="filter12_f_588_394" x="289.131" y="78.3778" width="205.625" height="221.883" filterUnits="userSpaceOnUse" color-interpolation-filters="sRGB">
<feFlood flood-opacity="0" result="BackgroundImageFix"/>
<feBlend mode="normal" in="SourceGraphic" in2="BackgroundImageFix" result="shape"/>
<feGaussianBlur stdDeviation="15.2" result="effect1_foregroundBlur_588_394"/>
</filter>
</defs>
</svg>
