<svg viewBox="0 0 1 1" xmlns="http://www.w3.org/2000/svg">
    <defs>
        <clipPath id="myClip" clipPathUnits="objectBoundingBox">
            <path
                d="M0.053281 0.295403C0.052158 0.295965 0.052103 0.296726 0.052743 0.298547L0.136076 0.341000C0.107753 0.395321 0.094242 0.429662 0.076937 0.480937C0.057582 0.532824 0.047367 0.561912 0.047367 0.561912C0.040197 0.577008 0.038566 0.586346 0.043603 0.605937C0.046377 0.623866 0.048119 0.633896 0.053281 0.651535L0.000592 0.690843C-0.000242 0.692502 -0.000152 0.693131 0.000592 0.693987L0.095754 0.625591L0.401130 0.961283L0.384463 0.994302C0.384298 0.996044 0.385132 0.996123 0.387689 0.995088L0.436076 0.902321C0.438234 0.899525 0.439529 0.898998 0.441990 0.899962L0.682313 0.941629L0.683926 0.997447C0.685046 1.000017 0.685383 0.998789 0.686076 0.997447L0.685001 0.899176L0.833388 0.777321L0.955969 0.937698C0.957582 0.939270 0.959195 0.937698 0.957582 0.934553L0.814033 0.745874C0.811255 0.741962 0.811115 0.739590 0.812958 0.734868C0.858589 0.647715 0.885539 0.546975 0.877474 0.485654C0.877388 0.473821 0.879680 0.469289 0.888227 0.465214L0.998980 0.396818C1.000183 0.394486 0.999496 0.394107 0.997904 0.393673L0.958119 0.418044L0.950592 0.393673C0.956375 0.372472 0.957323 0.360465 0.956506 0.341786C0.953723 0.328296 0.953717 0.320737 0.957044 0.307195C0.957565 0.302226 0.956652 0.301355 0.954356 0.300906L0.836614 0.297761C0.824071 0.296961 0.821813 0.293780 0.821560 0.285969C0.844141 0.224648 0.869410 0.149177 0.865109 0.119302L0.947367 0.036755C0.947867 0.034985 0.947796 0.034252 0.945754 0.034397L0.808657 0.169616C0.805774 0.171107 0.804401 0.170712 0.802205 0.168830C0.781515 0.141646 0.769919 0.126422 0.754356 0.124019C0.702743 0.116051 0.676369 0.111520 0.625324 0.123233C0.597592 0.129868 0.584270 0.129170 0.565109 0.118516C0.553368 0.112955 0.549237 0.109343 0.546291 0.102007L0.542528 0.001378C0.541337 -0.000547 0.540763 -0.000370 0.539840 0.001378L0.540377 0.033611L0.460270 0.103579C0.454101 0.108833 0.450705 0.108666 0.444678 0.102007L0.403281 0.052478C0.401970 0.052505 0.401338 0.052873 0.400592 0.054837C0.400557 0.055720 0.400830 0.056240 0.401668 0.057195C0.360760 0.083414 0.341543 0.098500 0.304356 0.122447L0.286614 0.041472C0.285137 0.040503 0.284355 0.040099 0.283926 0.042258L0.315646 0.194774C0.318833 0.205176 0.317655 0.207753 0.314571 0.211283L0.173173 0.353579C0.116667 0.325429 0.095613 0.315608 0.053281 0.295403Z" />
        </clipPath>
    </defs>
</svg>