<svg viewBox="0 0 1 1" xmlns="http://www.w3.org/2000/svg">
  <clipPath id="clip" clipPathUnits="objectBoundingBox"><path
     d="m49.551,187.876c-1.044,0.358,-1.095,0.842,-0.5,2l77.5,27c-26.341,34.548,-38.906,56.389,-55,89c-18,33,-27.5,51.5,-27.5,51.5c-6.668,9.601,-8.185,15.54,-3.5,28c2.579,11.403,4.2,17.782,9,29l-49,25c-0.776,1.055,-0.692,1.455,0,2l88.5,-43.5l284,213.5l-15.5,21c-0.154,1.108,0.622,1.158,3,0.5l45,-59c2.007,-1.778,3.211,-2.113,5.5,-1.5l223.5,26.5l1.5,35.5c1.042,1.635,1.355,0.854,2,0l-1,-62.5l138,-77.5l114,102c1.5,1,3,0,1.5,-2l-133.5,-120c-2.584,-2.488,-2.714,-3.997,-1,-7c42.437,-55.429,67.5,-119.5,60,-158.5c-0.08,-7.526,2.051,-10.408,10,-13l103,-43.5c1.119,-1.483,0.479,-1.724,-1,-2l-37,15.5l-7,-15.5c5.378,-13.484,6.259,-21.12,5.5,-33c-2.589,-8.58,-2.594,-13.387,0.5,-22c0.484,-3.16,-0.365,-3.714,-2.5,-4l-109.5,-2c-11.665,-0.509,-13.765,-2.532,-14,-7.5c21,-39,44.5,-87,40.5,-106l76.5,-52.5c0.465,-1.126,0.399,-1.592,-1.5,-1.5l-127.5,86c-2.681,0.948,-3.958,0.697,-6,-0.5c-19.242,-17.289,-30.026,-26.971,-44.5,-28.5c-48,-5.068,-72.528,-7.949,-120,-0.5c-25.79,4.22,-38.18,3.776,-56,-3c-10.919,-3.536,-14.761,-5.834,-17.5,-10.5l-3.5,-64c-1.108,-1.224,-1.641,-1.111,-2.5,0l0.5,20.5l-74.5,44.5c-5.737,3.342,-8.895,3.236,-14.5,-1l-38.5,-31.5c-1.219,0.017,-1.807,0.251,-2.5,1.5c-0.033,0.562,0.221,0.893,1,1.5c-38.044,16.675,-55.916,26.27,-90.5,41.5l-16.5,-51.5c-1.374,-0.616,-2.101,-0.873,-2.5,0.5l29.5,97c2.964,6.616,1.868,8.255,-1,10.5l-131.5,90.5c-52.551,-17.903,-72.131,-24.149,-111.5,-37z"></path></clipPath>
</svg>