<svg xmlns="http://www.w3.org/2000/svg" width="1512" height="1016" viewBox="0 0 1512 1016" fill="none">
  <g>
    <path
      d="M170.589 126.953L330.589 562.953L626.589 246.453L817.589 470.953L385.089 848.953H991.089V532.453C1070.59 553.953 1229.59 611.953 1229.59 671.953C1229.59 731.953 1320.26 814.953 1365.59 848.953C1389.42 803.453 1437.09 664.153 1437.09 470.953C1437.09 229.453 1318.09 55.4534 1154.59 188.453C991.089 321.453 865.089 368.953 991.089 368.953C1117.09 368.953 712.089 45.4534 705.089 96.4534C698.089 147.453 538.589 392.953 385.089 562.953C231.589 732.953 58.0895 477.953 129.589 634.453"
      stroke="#1846ED" stroke-width="77"/>
  </g>
</svg>
