<svg width="1198" height="463" viewBox="0 0 1198 463" fill="none" xmlns="http://www.w3.org/2000/svg">
<path d="M151.548 354.774C243.406 383.848 313.655 408.94 439.327 453.533C438.953 456.148 438.704 458.97 438.503 462.034L438.462 462.655L437.865 462.482L150.865 378.982V378.981C141.757 376.449 136.965 370.421 137.654 364.815C138.249 359.973 142.873 355.846 151.548 354.774ZM984.025 356.68C989.362 355.546 993.641 355.096 996.845 355.201C999.352 355.283 1001.26 355.705 1002.51 356.453C1003.13 356.832 1003.61 357.305 1003.89 357.876C1004.18 358.452 1004.24 359.089 1004.12 359.755C1003.87 361.06 1002.87 362.497 1001.27 363.993C999.644 365.503 997.338 367.127 994.356 368.801C988.392 372.148 979.67 375.721 968.153 378.978L968.154 378.979L703.654 461.478L703.389 461.56L703.179 461.38C700.675 459.232 698.791 457.692 697.556 456.531C696.937 455.95 696.453 455.439 696.126 454.972C695.801 454.506 695.594 454.031 695.615 453.534C695.636 453.026 695.89 452.6 696.259 452.225C696.623 451.855 697.138 451.495 697.766 451.114C697.836 451.072 697.909 451.029 697.983 450.985L702.308 453.869C702.279 453.944 702.344 453.988 702.504 454L702.308 453.869C703.503 450.76 864.901 394.277 984.025 356.68ZM116.667 285.891C235.308 332.945 326.693 375.993 446.388 436.419C445.785 437.093 445.23 437.781 444.72 438.487C444.047 439.42 443.45 440.384 442.918 441.385C349.716 394.533 280.363 364.501 142.697 313.692C135.647 309.744 129.997 306.224 125.657 303.103C122.651 300.942 120.264 298.966 118.471 297.168C116.682 295.374 115.462 293.734 114.819 292.241C114.171 290.738 114.099 289.35 114.66 288.121C115.054 287.26 115.74 286.522 116.667 285.891ZM1093.49 263.946C1094.84 263.854 1095.93 263.926 1096.68 264.231C1097.06 264.387 1097.39 264.617 1097.61 264.949C1097.83 265.287 1097.89 265.678 1097.84 266.085C1097.74 266.861 1097.2 267.769 1096.35 268.789C1095.49 269.827 1094.24 271.05 1092.6 272.464C1091.84 273.118 1090.99 273.815 1090.06 274.556C983.599 316.011 760.841 404.954 701.481 437.241C699.795 436.484 697.347 435.925 693.892 435.6C693.505 435.563 693.107 435.531 692.696 435.5C714.56 421.472 1028.81 280.661 1087.6 264.925C1089.97 264.383 1091.95 264.053 1093.49 263.946ZM1192.77 138.827C1194.36 138.561 1195.62 138.554 1196.47 138.898C1196.91 139.076 1197.26 139.36 1197.47 139.765C1197.67 140.163 1197.71 140.622 1197.63 141.099C1197.48 142.033 1196.89 143.186 1195.96 144.517C1194.39 146.756 1191.74 149.67 1188.11 153.195C1094.55 199.096 712.904 399.748 675.496 430.999L687.984 435.291C684.631 435.225 680.675 435.294 676.027 435.501L675.961 435.504L675.898 435.489C671.73 434.582 668.318 433.66 665.55 432.664C688.613 406.694 1052.79 205.904 1171.78 146.457C1177.84 143.76 1182.75 141.787 1186.58 140.498C1189.09 139.654 1191.15 139.098 1192.77 138.827ZM1140.69 78.1114C1141.45 78.0058 1142.11 77.9821 1142.66 78.0587C1143.2 78.1348 1143.69 78.3174 1144.02 78.6739C1144.37 79.0439 1144.5 79.5277 1144.45 80.0518C1144.41 80.5634 1144.22 81.1416 1143.9 81.7745C1143.27 83.043 1142.08 84.6648 1140.35 86.6475C1137.39 90.0393 1132.76 94.5621 1126.35 100.308C1033.74 161.646 714.517 375.287 657 426.5L660.29 430.229C660.247 430.202 660.202 430.177 660.159 430.149C658.521 429.118 657.317 427.979 656.482 426.687C655.646 425.392 655.195 423.967 655.029 422.387C654.773 419.953 655.194 417.121 655.93 413.781L656.919 420.455C656.855 420.699 656.881 420.882 657 421.001L656.919 420.455C660.96 405.232 1019.07 151.102 1115.43 88.2325C1123.49 84.2947 1129.99 81.4135 1134.74 79.7354C1137.18 78.8751 1139.17 78.3228 1140.69 78.1114ZM3.90071 153.839C6.38837 153.453 10.0135 153.589 14.2093 153.873L16.0413 154.002L16.1224 154.008L16.1966 154.039C19.493 155.414 22.7447 156.749 25.9447 158.043C145.225 221.621 396.157 377.485 464.228 425.305C461.385 426.431 458.869 427.577 456.64 428.761C423.575 400.005 176.289 263.472 34.096 186.93C23.9119 179.665 16.3836 173.972 11.0443 169.525C7.90593 166.912 5.51551 164.722 3.78352 162.893C2.05907 161.071 0.956032 159.574 0.432938 158.345C-0.0965643 157.1 -0.0673756 156.024 0.655594 155.211C1.32479 154.459 2.49364 154.057 3.90071 153.839ZM546.385 0.745189C547.481 0.0965309 548.692 -0.0894409 549.916 0.530345C551.099 1.12913 552.213 2.44096 553.262 4.57234C555.182 8.47318 557.003 15.3695 558.559 26.6182C558.219 103.667 562.575 269.952 566.5 379C566.5 379 566.703 379.555 568.418 379C573.524 292.486 586.539 116.924 596.148 55.4952C599.464 47.904 602.536 43.0796 605.288 40.5128C606.751 39.1491 608.162 38.3851 609.507 38.2247C610.874 38.0619 612.098 38.5315 613.14 39.4805C614.169 40.4183 615.027 41.825 615.717 43.5704C616.41 45.321 616.947 47.4435 617.32 49.8448C618.064 54.6383 618.16 60.588 617.5 67.0108C617.519 67.3958 617.539 67.7795 617.558 68.1622C608.841 122.363 596.974 253.834 576 380.499C576 380.499 579 381.499 581.5 381.499C599.184 293.357 621.251 189.339 634.157 155.735C636.964 151.959 639.357 149.337 641.349 147.847C642.469 147.01 643.505 146.497 644.451 146.371C645.429 146.242 646.28 146.532 646.959 147.222C647.615 147.888 648.085 148.9 648.41 150.18C648.671 151.204 648.845 152.431 648.943 153.85C636.95 197.36 622.055 268.638 596.25 365.539C596.255 365.541 598.365 366.671 600.841 366.999C633.448 277.718 701.156 86.2403 721.908 45.6417C722.596 45.1507 723.299 44.7541 724.006 44.4503C726.757 43.2692 729.564 43.4987 731.781 44.9952C735.398 47.438 737.237 53.058 735.069 60.8555C734.878 61.2308 734.688 61.6114 734.501 61.9981C720.501 90.9988 659.001 246.5 607.001 378.499H613.668C613.668 378.499 768.303 65.0306 786.501 45.9991C786.395 45.9123 786.286 45.828 786.177 45.7423C790.058 40.8948 793.506 37.1694 796.444 34.5753C798.289 32.9458 799.949 31.7488 801.4 31.002C802.84 30.2608 804.138 29.9313 805.232 30.1339C806.369 30.3446 807.181 31.1085 807.661 32.2979C808.132 33.4638 808.298 35.063 808.185 37.0548C807.995 40.393 807.008 44.9685 805.157 50.7706C777.322 99.0994 682.098 265.192 622.002 378.999L629.621 379.856C630.961 379.118 848.016 50.3787 867.004 34.4991C866.961 34.4536 866.916 34.4089 866.871 34.3634C871.597 30.5209 875.598 27.556 878.845 25.5147C881.083 24.1078 882.983 23.1254 884.528 22.6007C886.045 22.0854 887.346 21.9674 888.282 22.4884C889.264 23.0358 889.636 24.1572 889.602 25.5811C889.567 27.0156 889.123 28.9091 888.293 31.251C886.693 35.7696 883.602 42.0974 878.977 50.3184C877.123 52.3441 875.453 54.4073 874.001 56.4971C845.825 91.4028 709.133 277.617 637.501 380.497L645.085 385.975C636.361 383.932 624.779 383.939 608.5 386.362C580.02 390.603 537.307 402.214 470.661 422.975L470.662 422.976C469.401 423.395 468.19 423.816 467.029 424.239L474.508 420.5C400.23 359.72 171.084 180.454 94.598 127.434C87.3278 121.404 82.6361 116.457 80.012 112.553C78.3918 110.142 77.5304 108.085 77.3704 106.389C77.2077 104.661 77.7763 103.301 78.9808 102.392C80.1519 101.507 81.8619 101.094 83.9056 101.066C85.9599 101.039 88.4123 101.402 91.1283 102.131C96.2037 103.494 102.256 106.154 108.46 110.043C202.749 179.663 427.942 360.002 483.507 416.501L490.007 412.501C440.732 354.331 274.123 186.995 195.883 109.791C192.872 105.692 190.992 102.199 190.081 99.3565C188.929 95.7588 189.284 93.0264 191.127 91.546C192.928 90.0999 195.916 90.0598 199.508 91.2208C202.91 92.3201 206.986 94.535 211.421 97.9171L212.313 98.6085L212.329 98.6221L212.346 98.6368C212.8 99.0649 213.263 99.4844 213.734 99.8966C294.243 181.814 451.089 348.377 498.416 411.914L505.503 407C460.208 339.058 344.189 185.24 289.166 113.388C286.22 107.6 285.479 103.047 286.307 99.7257C287.182 96.2158 289.78 94.1792 293.099 93.5606C299.653 92.3394 309.067 96.5958 314.403 105.695C315.022 106.336 315.644 106.965 316.266 107.584C357.506 170.855 470.556 334.637 509.002 403L516.502 401.5C472.597 318.994 399.521 178.932 376.024 128.385C374.859 124.733 374.248 121.691 374.09 119.246C373.862 115.695 374.58 113.238 376.151 112.124C377.761 110.983 379.969 111.436 382.231 112.982C382.804 113.375 383.39 113.844 383.986 114.388C420.495 167.8 487.543 310.107 522.001 392.001H524.001C498.2 301.912 428.768 110.516 411.128 57.0909C411.163 57.0307 411.197 56.9704 411.232 56.9102C410.074 50.5828 410.362 45.9109 411.605 42.7403C412.87 39.5131 415.135 37.8314 417.809 37.627C420.443 37.4258 423.361 38.6676 425.974 41.0206C428.57 43.3587 430.906 46.8283 432.431 51.2149C432.617 51.3844 432.801 51.5541 432.985 51.7218C444.989 94.0909 493.462 231.175 528.002 355.501C528.002 355.501 530.003 354.501 531.502 353.501C514.809 250.407 493.184 143.024 494.502 126.001C494.505 125.831 494.501 125.657 494.493 125.481C494.877 123.393 495.319 121.598 495.822 120.101C496.329 118.588 496.904 117.358 497.557 116.433C498.21 115.507 498.959 114.857 499.82 114.558C501.578 113.946 503.472 114.883 505.417 116.904C507.02 118.57 508.758 121.07 510.634 124.395C514.492 164.679 526.495 214.385 546.502 344C546.502 344 548.364 343.752 550.002 343C546.452 240.425 537.28 41.6344 538.391 14.7803C538.442 14.615 538.487 14.476 538.52 14.3614C538.764 13.517 539.7 10.7418 541.072 7.87995C541.758 6.44817 542.559 4.9822 543.444 3.72175C544.323 2.46876 545.312 1.38049 546.385 0.745189ZM1054.32 46.4219C1055.5 46.449 1056.45 46.8321 1056.95 47.7247C1057.43 48.5748 1057.41 49.7454 1057.05 51.1368C1056.68 52.5473 1055.93 54.2882 1054.82 56.3614C1052.89 59.9349 1049.82 64.5602 1045.55 70.2979C955.371 147.082 719.646 344.203 658.221 404.315C658.946 401.297 659.697 397.956 660.364 394.233C674.464 374.787 937.641 136.835 1038.83 52.5294C1043.31 50.051 1047.01 48.2948 1049.86 47.3214C1051.65 46.712 1053.15 46.3951 1054.32 46.4219ZM983.535 7.20906C985.441 6.77148 987.019 6.91894 988.029 7.87409C989.034 8.82646 989.299 10.4155 988.995 12.4171C988.689 14.4396 987.786 17.0198 986.267 20.127C983.715 25.3469 979.383 32.1282 973.071 40.3927C919.927 90.1285 711.171 312.756 651.496 386.999L653.432 388.935C651.422 387.929 649.226 387.086 646.799 386.413C656.759 371.658 902.343 82.7285 958.723 24.2843C965.716 17.8262 971.686 13.2198 976.411 10.3946C979.217 8.71711 981.611 7.65106 983.535 7.20906Z" fill="#E5FFE7"/>
</svg>
