<svg width="1892" height="1199" viewBox="0 0 1892 1199" fill="none" xmlns="http://www.w3.org/2000/svg">
<path d="M449.886 419.575C468.127 419.119 482.877 426.609 492.596 443.848C498.734 454.735 502.94 469.698 504.303 489.24C496.232 467.199 485.418 451.364 472.156 441.709C451.966 427.011 428.071 427.934 404.865 439.433C381.97 450.777 358.897 472.673 337.869 501.783C316.755 531.014 297.319 568.046 281.931 610.388C226.129 763.931 222.739 990.019 389.948 1171.04C374.924 1180.25 357.213 1188.56 336.99 1198.01C315.077 1196.68 294.618 1194.95 275.5 1192.72C139.902 906.889 208.871 659.094 306.657 525.04C331.16 491.449 357.353 465.164 382.402 447.222C407.592 429.179 430.946 420.049 449.886 419.575Z" fill="#25E4FF"/>
<path d="M272.972 464.137C337.4 407.765 406.862 384.604 455.422 392.989C479.378 397.126 498.189 408.863 509.629 428.154C519.488 444.778 524.295 467.743 521.259 497.665C520.623 471.986 515.754 451.543 507.146 436.274C494.435 413.727 473.867 403.067 449.455 403.678C425.74 404.271 399.1 415.427 372.511 434.472C345.779 453.62 318.407 481.227 293.105 515.913C193.194 652.88 123.734 902.804 256.191 1190.23C223.682 1185.62 195.326 1179.33 170.481 1170.82C41.6546 814.215 145.643 575.545 272.972 464.137Z" fill="#25E4FF"/>
<path d="M292.305 374.282C443.144 308.967 560.552 380.886 538.349 469.732C537.03 450.48 532.117 433.955 524.008 420.282C509.831 396.376 486.487 382.197 458.35 377.338C402.722 367.732 328.25 394.263 261.83 452.378C130.393 567.38 26.7427 808.593 150.249 1163.08C135.969 1156.98 122.985 1149.96 111.137 1141.89C4.48987 848.147 59.6699 608.178 165.988 469.361C174.821 457.828 183.995 447.007 193.445 436.917C224.447 411.657 257.766 390.719 292.305 374.282Z" fill="#25E4FF"/>
<path d="M304.598 597.342C289.121 665.216 293.096 733.952 312.17 801.342C329.213 894.533 365.387 988.03 445.083 1095.57C438.418 1126.71 424.358 1146.18 403.579 1161.82C240.086 985.888 243.01 765.718 297.556 615.631C299.818 609.406 302.169 603.308 304.598 597.342Z" fill="#25E4FF"/>
<path d="M82.5338 563.6C21.6437 702.348 4.28006 890.904 73.7513 1108.84C41.3492 1071.88 20.3419 1020.67 4.3372 949.939C-12.4929 793.331 20.9304 663.372 82.5338 563.6Z" fill="#25E4FF"/>
<path d="M368.488 932.51C391.245 972.143 418.591 1010.72 449.529 1047.74C449.506 1056.61 449.149 1064.83 448.47 1072.48C413.371 1023.31 387.551 977.152 368.488 932.51Z" fill="#25E4FF"/>
<path d="M412.45 453.566C431.691 444.032 448.414 444.377 462.161 454.384C476.449 464.786 489.349 486.849 497.12 525.09L497.485 526.924L497.575 527.324C498.005 529.032 498.989 530.486 500.305 531.544C495.668 536.137 490.609 540.706 485.111 545.23C494.456 469.901 433.767 455.294 384.179 473.523C393.785 464.803 403.299 458.1 412.45 453.566Z" fill="#25E4FF"/>
<path d="M696.269 600.149C678.812 578.348 675.02 553.285 688.517 525.823C699.489 503.498 722.089 479.261 759.094 454.386C727.172 491.357 711.721 524.452 711.28 553.091C710.755 587.242 731.507 612.803 765.086 629.103C797.912 645.036 843.697 652.617 896.908 651.836C906.502 652.56 916.02 652.221 925.242 650.675C973.098 647.508 1026.25 638.122 1081.61 622.153C1319.91 553.413 1601.89 361.711 1679.44 13.0829C1705.13 22.4631 1732.05 36.241 1762.96 52.1198C1781.44 79.994 1797.95 106.395 1812.48 131.562C1576.09 535.738 1208.14 671.583 955.547 675.243C892.147 676.162 836.218 668.749 791.583 655.3C746.783 641.802 714.144 622.471 696.269 600.149Z" fill="#25E4FF"/>
<path d="M908.663 766.881C781.8 741.416 690.906 680.969 658.04 616.17C641.748 584.049 639.694 550.968 654.128 519.879C667.281 491.549 694.543 463.998 739.262 440.272C743.429 439.982 747.683 439.804 752.024 439.742C712.162 466.138 686.408 492.876 673.552 519.032C657.362 551.976 661.972 583.394 683.154 609.846C703.92 635.778 740.164 656.474 786.632 670.475C833.267 684.526 891 692.083 955.797 691.144C1212.11 687.43 1582.17 550.702 1821.79 148.024C1846.64 192.904 1864.88 233.882 1876.39 272.457C1546.77 729.441 1159.49 817.229 908.663 766.881Z" fill="#25E4FF"/>
<path d="M781.103 818.865C561.826 698.158 553.969 491.952 696.132 448.076C668.765 467.917 649.884 489.99 639.015 513.4C622.322 549.354 625.029 587.383 643.163 623.137C679.149 694.087 775.768 756.45 905.279 782.447C1161.56 833.89 1550.83 744.335 1881.86 292.704C1888.41 319.856 1891.47 345.9 1891 371.392C1620.05 745.627 1275.24 889.753 1009.54 887.695C1002.03 887.637 994.588 887.462 987.211 887.173C913.099 873.929 843.653 850.457 781.103 818.865Z" fill="#25E4FF"/>
<path d="M1022.55 620.623C1143.57 575.667 1241.23 496.128 1317.42 394.205C1405.07 299.843 1479.11 184.439 1536.47 18.6551C1584.68 -3.55326 1623.34 -4.0439 1663.67 7.85713C1588.23 350.658 1311.48 539.239 1076.85 606.922C1058.43 612.234 1040.3 616.794 1022.55 620.623Z" fill="#25E4FF"/>
<path d="M1156.37 899C1393.41 857.608 1662.69 711.224 1885.83 419.345C1871.1 493.525 1825.04 565.942 1746.52 651.066C1552.61 819.042 1345.91 892.261 1156.37 899Z" fill="#25E4FF"/>
<path d="M1391.38 276.102C1427.49 207.147 1456.32 131.884 1478.25 52.8424C1491.22 43.8045 1503.47 36.0791 1515.15 29.5513C1479.78 127.912 1438.31 207.84 1391.38 276.102Z" fill="#25E4FF"/>
<path d="M772.549 614.909C742.923 600.528 727.421 579.757 727.828 553.326C728.242 526.423 745.081 491.532 785.919 449.123L787.881 447.096L788.164 446.792C789.397 445.393 790.044 443.689 790.113 441.972C801.076 443.357 812.475 445.392 824.298 448.129C718.147 505.241 761.207 592.984 832.892 632.137C809.211 628.642 788.856 622.824 772.549 614.909Z" fill="#25E4FF"/>
</svg>
