<svg width="2980" height="2037" viewBox="0 0 2980 2037" fill="none" xmlns="http://www.w3.org/2000/svg">
<mask id="mask0_611_709" style="mask-type:alpha" maskUnits="userSpaceOnUse" x="0" y="0" width="2980" height="2037">
<path fill-rule="evenodd" clip-rule="evenodd" d="M158.841 602.369C155.495 603.516 155.331 605.067 157.239 608.781L405.674 695.349C321.233 806.115 280.956 876.144 229.365 980.701C171.664 1086.51 141.211 1145.82 141.211 1145.82C119.835 1176.6 114.973 1195.64 129.991 1235.59C138.26 1272.15 143.454 1292.61 158.841 1328.57L1.76631 1408.73C-0.721456 1412.11 -0.452239 1413.39 1.76631 1415.14L285.463 1275.67L1195.86 1960.19L1146.17 2027.52C1145.68 2031.08 1148.16 2031.24 1155.79 2029.13L1300.04 1839.96C1306.47 1834.26 1310.33 1833.19 1317.67 1835.15L2034.13 1920.12L2038.93 2033.94C2042.27 2039.18 2043.28 2036.67 2045.35 2033.94L2042.14 1833.55L2484.51 1585.07L2849.95 1912.1C2854.76 1915.31 2859.57 1912.1 2854.76 1905.69L2426.81 1520.95C2418.53 1512.97 2418.11 1508.13 2423.61 1498.5C2559.65 1320.79 2639.99 1115.36 2615.94 990.319C2615.69 966.189 2622.52 956.949 2648 948.639L2978.18 809.169C2981.77 804.415 2979.72 803.641 2974.97 802.756L2856.37 852.453L2833.93 802.756C2851.17 759.523 2853.99 735.04 2851.56 696.952C2843.26 669.44 2843.24 654.028 2853.16 626.415C2854.71 616.282 2851.99 614.507 2845.15 613.591L2494.13 607.178C2456.74 605.547 2450.01 599.058 2449.25 583.132C2516.57 458.09 2591.9 304.192 2579.08 243.275L2824.31 74.9491C2825.8 71.3388 2825.59 69.8448 2819.5 70.1398L2410.79 345.873C2402.19 348.912 2398.1 348.107 2391.55 344.27C2329.87 288.836 2295.3 257.793 2248.9 252.893C2095.03 236.644 2016.4 227.405 1864.23 251.29C1781.55 264.819 1741.84 263.396 1684.71 241.671C1649.71 230.332 1637.39 222.965 1628.62 208.006L1617.4 2.80962C1613.84 -1.11491 1612.14 -0.753819 1609.38 2.80962L1610.98 68.5367L1372.17 211.213C1353.78 221.926 1343.65 221.585 1325.68 208.006L1202.27 107.011C1198.36 107.066 1196.48 107.816 1194.25 111.82C1194.15 113.622 1194.96 114.681 1197.46 116.63C1075.51 170.093 1018.21 200.856 907.352 249.687L854.46 84.5677C850.055 82.591 847.726 81.7679 846.446 86.1708L941.011 397.172C950.513 418.384 947.001 423.639 937.806 430.837L516.267 720.998C347.81 663.598 285.044 643.572 158.841 602.369Z" fill="#FDED63"/>
</mask>
<g mask="url(#mask0_611_709)">
<path d="M1211.59 1173.2C1227.55 1172.78 1240.46 1179.6 1248.96 1195.3C1254.33 1205.21 1258.01 1218.84 1259.2 1236.63C1252.14 1216.56 1242.68 1202.14 1231.08 1193.35C1213.41 1179.97 1192.51 1180.81 1172.21 1191.28C1152.18 1201.61 1131.99 1221.54 1113.59 1248.05C1095.12 1274.67 1078.12 1308.39 1064.65 1346.94C1015.83 1486.75 1012.87 1692.61 1159.16 1857.44C1146.01 1865.82 1130.52 1873.39 1112.82 1882C1093.65 1880.79 1075.75 1879.21 1059.03 1877.18C940.397 1616.92 1000.74 1391.29 1086.29 1269.23C1107.72 1238.64 1130.64 1214.71 1152.55 1198.37C1174.59 1181.94 1195.02 1173.63 1211.59 1173.2Z" fill="#25E4FF"/>
<path d="M1056.82 1213.77C1113.18 1162.44 1173.95 1141.35 1216.44 1148.99C1237.4 1152.75 1253.85 1163.44 1263.86 1181.01C1272.49 1196.14 1276.69 1217.06 1274.04 1244.3C1273.48 1220.92 1269.22 1202.3 1261.69 1188.4C1250.57 1167.87 1232.57 1158.16 1211.22 1158.72C1190.47 1159.26 1167.16 1169.42 1143.9 1186.76C1120.51 1204.19 1096.57 1229.33 1074.43 1260.92C987.02 1385.63 926.252 1613.2 1042.14 1874.91C1013.69 1870.71 988.886 1864.98 967.149 1857.24C854.443 1532.53 945.419 1315.21 1056.82 1213.77Z" fill="#25E4FF"/>
<path d="M1073.73 1131.95C1205.7 1072.48 1308.41 1137.97 1288.99 1218.87C1287.83 1201.34 1283.54 1186.29 1276.44 1173.84C1264.04 1152.07 1243.62 1139.16 1219 1134.74C1170.33 1125.99 1105.18 1150.15 1047.07 1203.06C932.078 1307.78 841.396 1527.41 949.449 1850.19C936.956 1844.64 925.597 1838.24 915.231 1830.9C821.928 1563.43 870.204 1344.93 963.219 1218.53C970.946 1208.03 978.972 1198.17 987.241 1188.99C1014.36 1165.99 1043.51 1146.92 1073.73 1131.95Z" fill="#25E4FF"/>
<path d="M1084.49 1335.06C1070.94 1396.86 1074.42 1459.45 1091.11 1520.81C1106.02 1605.67 1137.67 1690.8 1207.39 1788.72C1201.56 1817.07 1189.26 1834.8 1171.08 1849.05C1028.05 1688.85 1030.6 1488.38 1078.32 1351.71C1080.3 1346.05 1082.36 1340.49 1084.49 1335.06Z" fill="#25E4FF"/>
<path d="M890.207 1304.34C836.936 1430.67 821.745 1602.36 882.523 1800.81C854.175 1767.15 835.797 1720.53 821.795 1656.12C807.07 1513.52 836.311 1395.19 890.207 1304.34Z" fill="#25E4FF"/>
<path d="M1140.38 1640.25C1160.29 1676.34 1184.22 1711.46 1211.28 1745.17C1211.26 1753.25 1210.95 1760.73 1210.36 1767.69C1179.65 1722.93 1157.06 1680.9 1140.38 1640.25Z" fill="#25E4FF"/>
<path d="M1178.84 1204.15C1195.68 1195.46 1210.31 1195.78 1222.33 1204.89C1234.83 1214.36 1246.12 1234.45 1252.92 1269.27L1253.24 1270.94L1253.32 1271.31C1253.69 1272.86 1254.55 1274.19 1255.7 1275.15C1251.65 1279.33 1247.22 1283.49 1242.41 1287.61C1250.59 1219.02 1197.49 1205.72 1154.11 1222.32C1162.51 1214.38 1170.84 1208.27 1178.84 1204.15Z" fill="#25E4FF"/>
<path d="M1527.72 1349.37C1512.45 1329.51 1509.13 1306.69 1520.94 1281.69C1530.54 1261.36 1550.31 1239.29 1582.68 1216.64C1554.75 1250.3 1541.24 1280.44 1540.85 1306.52C1540.39 1337.61 1558.55 1360.89 1587.92 1375.73C1616.64 1390.24 1656.7 1397.14 1703.25 1396.43C1711.65 1397.09 1719.97 1396.78 1728.04 1395.37C1769.91 1392.49 1816.41 1383.94 1864.84 1369.4C2073.33 1306.81 2320.02 1132.26 2387.87 814.813C2410.35 823.354 2433.89 835.9 2460.94 850.358C2477.11 875.739 2491.55 899.778 2504.26 922.694C2297.45 1290.72 1975.54 1414.41 1754.55 1417.74C1699.09 1418.58 1650.16 1411.83 1611.11 1399.58C1571.91 1387.29 1543.36 1369.69 1527.72 1349.37Z" fill="#25E4FF"/>
<path d="M1713.54 1501.18C1602.55 1478 1523.03 1422.96 1494.27 1363.95C1480.02 1334.71 1478.22 1304.58 1490.85 1276.28C1502.36 1250.48 1526.21 1225.39 1565.33 1203.79C1568.98 1203.52 1572.7 1203.36 1576.5 1203.31C1541.62 1227.34 1519.09 1251.69 1507.84 1275.5C1493.68 1305.5 1497.71 1334.11 1516.24 1358.19C1534.41 1381.81 1566.12 1400.65 1606.77 1413.4C1647.57 1426.19 1698.08 1433.08 1754.77 1432.22C1979.01 1428.84 2302.77 1304.34 2512.4 937.683C2534.15 978.549 2550.11 1015.86 2560.17 1050.99C2271.8 1467.09 1932.98 1547.03 1713.54 1501.18Z" fill="#25E4FF"/>
<path d="M1601.94 1548.52C1410.1 1438.61 1403.22 1250.85 1527.6 1210.9C1503.66 1228.96 1487.14 1249.06 1477.63 1270.38C1463.02 1303.11 1465.39 1337.74 1481.26 1370.3C1512.74 1434.9 1597.27 1491.68 1710.58 1515.36C1934.79 1562.2 2275.36 1480.65 2564.96 1069.42C2570.69 1094.14 2573.37 1117.86 2572.96 1141.07C2335.91 1481.83 2034.24 1613.06 1801.79 1611.19C1795.22 1611.14 1788.71 1610.98 1782.26 1610.71C1717.42 1598.65 1656.66 1577.28 1601.94 1548.52Z" fill="#25E4FF"/>
<path d="M1813.17 1368.01C1919.05 1327.07 2004.49 1254.65 2071.14 1161.84C2147.83 1075.92 2212.61 970.841 2262.79 819.887C2304.97 799.665 2338.79 799.218 2374.07 810.055C2308.07 1122.19 2065.95 1293.9 1860.68 1355.53C1844.57 1360.37 1828.7 1364.52 1813.17 1368.01Z" fill="#25E4FF"/>
<path d="M1930.25 1621.48C2137.63 1583.79 2373.21 1450.5 2568.44 1184.73C2555.55 1252.28 2515.25 1318.22 2446.56 1395.73C2276.91 1548.68 2096.07 1615.35 1930.25 1621.48Z" fill="#25E4FF"/>
<path d="M2135.85 1054.3C2167.45 991.518 2192.67 922.987 2211.85 851.016C2223.2 842.787 2233.92 835.752 2244.14 829.808C2213.19 919.37 2176.91 992.148 2135.85 1054.3Z" fill="#25E4FF"/>
<path d="M1594.45 1362.8C1568.53 1349.71 1554.97 1330.8 1555.33 1306.73C1555.69 1282.23 1570.42 1250.46 1606.15 1211.85L1607.87 1210L1608.12 1209.73C1609.19 1208.45 1609.76 1206.9 1609.82 1205.34C1619.41 1206.6 1629.38 1208.45 1639.73 1210.94C1546.86 1262.95 1584.53 1342.84 1647.25 1378.49C1626.53 1375.31 1608.72 1370.01 1594.45 1362.8Z" fill="#25E4FF"/>
</g>
</svg>
