<svg width="2851" height="1324" viewBox="0 0 2851 1324" fill="none" xmlns="http://www.w3.org/2000/svg">
<g clip-path="url(#clip0_762_397)">
<path d="M1224.84 550.932C1242.88 550.462 1257.6 558.282 1267.17 575.937C1275.07 590.525 1279.53 612.039 1278.79 641.439C1271.09 609.982 1259.2 588.81 1244.05 577.329C1226.27 563.854 1205.14 564.534 1184.14 575.367C1164.03 585.734 1143.55 605.554 1124.61 632.194C1119.65 637.732 1115.54 643.836 1112.56 650.402C1096.9 675.793 1082.53 706.079 1070.72 739.908C1018.83 888.487 1015.75 1107.13 1171.28 1282.12C1156.77 1291.67 1139.46 1300.12 1119.53 1309.82C1097.86 1308.45 1077.72 1306.64 1058.97 1304.28C932.914 1026.35 997.367 785.265 1088.99 654.54C1111.99 621.723 1136.64 595.964 1160.29 578.329C1184.04 560.63 1206.37 551.413 1224.84 550.932ZM1057.95 594.928C1118.41 539.871 1184.07 516.797 1230.56 525.151C1253.6 529.293 1271.91 541.112 1283.04 560.641C1293.13 578.354 1297.6 602.921 1293.68 634.844C1292.15 637.324 1290.52 639.804 1288.77 642.284C1289.62 611.519 1285.02 587.91 1275.96 571.175C1264.59 550.182 1246.35 540.369 1224.58 540.936C1203.23 541.493 1178.9 551.983 1154.32 570.311C1129.64 588.704 1104.29 615.295 1080.8 648.801C987.894 781.358 923.146 1023.78 1047.31 1302.72C1014.17 1297.99 985.593 1291.38 960.827 1282.21C841.402 936.111 938.406 703.785 1057.95 594.928ZM1077.83 509.659C1223.13 444.177 1335.2 520.695 1305.08 610.733C1304.8 588.807 1300.12 570.428 1291.72 555.691C1278.94 533.26 1257.9 519.904 1232.33 515.308C1181.57 506.186 1112.88 531.381 1051.22 587.535C929.19 698.653 832.389 932.58 948.603 1277.35C931.537 1270.06 916.41 1261.37 902.933 1251.03C805.638 967.174 857.139 734.801 956.637 599.596C958.988 596.401 961.365 593.26 963.768 590.176C998.638 556.667 1037.33 529.714 1077.83 509.659ZM1093.57 708.838C1071.93 789.273 1077.98 871.246 1104.3 950.832C1121.82 1031.64 1155.36 1113.71 1221.14 1206.61C1215.04 1240.18 1200.9 1260.24 1179.52 1276.33C1026.23 1104.54 1029.03 889.613 1080.16 743.205C1084.33 731.261 1088.82 719.786 1093.57 708.838ZM897.749 668.749C831.095 806.259 808.212 1001.81 880.425 1230.62C846.394 1194.25 825.045 1142.42 809.048 1068.84C791.962 903.381 830.367 768.543 897.749 668.749ZM1137.94 1031.14C1161.14 1076.95 1190.53 1121.45 1224.57 1163.84C1224.55 1174.12 1224.08 1183.5 1223.19 1192.1C1183.79 1135.1 1156.7 1082.25 1137.94 1031.14ZM1188.72 584.255C1207.33 574.657 1224.12 574.775 1238.01 585.3C1252.14 596.006 1264.37 618.242 1271.67 655.636L1272.01 657.429L1272.07 657.68C1272.34 658.817 1272.99 659.774 1273.85 660.447C1269.02 665.575 1263.67 670.674 1257.79 675.716C1266.94 598.917 1204.09 587.091 1156.79 608.923C1167.56 597.93 1178.34 589.608 1188.72 584.255Z" fill="#25E4FF"/>
<path d="M2025.98 857.19C1825.09 878.111 1668.66 761.573 1575.52 568.531C1583.18 571.677 1591.93 576.717 1601.66 583.169C1650.45 681.963 1721.32 747.706 1805.09 780.832C1890.36 814.554 1988.52 814.291 2089.54 781.374C2288.68 716.484 2499.44 524.625 2647.31 213.817C2673.85 218.702 2701.33 228.892 2730.64 238.532C2742.91 259.14 2753.59 278.801 2762.62 297.733C2482.52 672.266 2230.36 835.906 2025.98 857.19ZM1936.99 934.977C1733.69 909.434 1607.14 735.737 1549.37 568.202C1553 565.413 1557.48 564.442 1562.77 565.001C1656.63 765.229 1817.93 888.911 2027.01 867.137C2234.81 845.497 2488.04 680.254 2767.4 308.029C2782.82 342.2 2792.69 374.068 2796.62 404.978C2424.21 837.827 2140.71 960.571 1936.99 934.977ZM1768.5 949.113C1648.32 910.712 1526.15 623.165 1542.37 578.47C1601.79 745.416 1729.76 919.02 1935.74 944.899C2143.56 971.008 2428.1 846.331 2797.99 418.706C2799.9 445.863 2797.13 472.426 2789.39 499.33C2562.43 789.075 2270.85 944.48 2029.83 990.192C1932.81 991.706 1845.45 973.701 1768.5 949.113ZM1808.76 771.533C1732.37 741.322 1666.65 683.013 1619.32 595.541C1715.37 665.724 1884.6 825.46 2058.99 739.517C2104.93 716.879 2476.15 544.131 2498.49 285.996C2545.4 219.463 2589.87 206.093 2637 212.195C2490 519.752 2281.66 708.254 2086.44 771.867C1987.21 804.199 1891.49 804.249 1808.76 771.533ZM2091.96 986.562C2315.94 929.151 2572.48 782.024 2779.35 527.917C2753.29 590.993 2700.19 657.662 2616.8 739.518C2421.63 903.84 2245.78 970.965 2091.96 986.562Z" fill="#25E4FF"/>
</g>
<defs>
<clipPath id="clip0_762_397">
<rect width="2851" height="1324" fill="white"/>
</clipPath>
</defs>
</svg>
