<svg width="111" height="111" viewBox="0 0 111 111" fill="none" xmlns="http://www.w3.org/2000/svg">
<path d="M54.5107 2.01025H55.123V2.01123C69.8075 2.06581 82.9431 7.92798 93.3496 18.2017V18.2026C96.6567 21.553 99.6509 25.0866 101.653 29.1167L101.659 29.1294L101.666 29.1411C101.859 29.5167 102.052 29.8929 102.245 30.2681V30.2671C102.559 30.8793 102.868 31.4948 103.174 32.1138L104.087 33.9849L104.091 33.9927C104.224 34.2648 104.357 34.5382 104.494 34.8179C106.401 39.0388 107.737 43.9747 108.174 48.5767L108.175 48.5933L108.177 48.6108C108.209 48.8949 108.241 49.179 108.273 49.4712V49.4722C108.962 56.6123 108.494 63.8842 106.345 70.6187L106.131 71.269L106.129 71.2769C106.061 71.4807 105.993 71.6842 105.923 71.894C104.04 77.4558 101.254 82.9533 97.6133 87.4497L97.5986 87.4673L97.585 87.4858C97.4001 87.7254 97.2147 87.9649 97.0244 88.2114C95.5035 90.1405 93.8132 91.897 92.0068 93.6763L91.2256 94.4409L91.2188 94.4478C90.771 94.888 90.3357 95.3341 89.916 95.7671C89.4258 96.238 89.143 96.4525 88.665 96.687L88.6338 96.7026L88.6035 96.7192C87.6394 97.2346 87.0663 97.6754 86.2988 98.4429C85.8178 98.9239 85.3011 99.2654 84.6045 99.6655L83.8428 100.093L83.8076 100.113C83.4735 100.307 83.1391 100.501 82.7949 100.701L81.7676 101.295L81.7646 101.296C81.4352 101.488 81.1056 101.679 80.7666 101.875C78.1846 103.317 75.6074 104.5 72.8486 105.446L72.293 105.631L72.2891 105.633L71.2256 105.985C68.5543 106.844 65.8735 107.485 63.1162 107.93L61.9297 108.11H61.9238C61.7163 108.14 61.5085 108.169 61.2949 108.2C55.4541 108.944 49.5165 108.479 43.6914 107.219L43.666 107.213L43.0312 107.084H43.0303C37.3833 105.92 31.8772 103.349 26.9434 100.163L26.9199 100.148L26.8975 100.134L26.1631 99.687C21.1936 96.5751 16.6076 92.2443 13.1084 87.5181L13.1035 87.5112L13.0986 87.5054L12.4521 86.646C11.3682 85.1843 10.4155 83.786 9.59766 82.2632L9.58105 82.2319L9.56348 82.2017L9.2373 81.6431C2.34085 69.7124 0.134348 55.3038 3.65332 41.9624C5.85858 34.1606 9.45767 27.123 14.6436 20.9673L15.1504 20.3735L15.1553 20.3677C15.3809 20.1054 15.6067 19.8427 15.8389 19.5728C17.175 18.0513 18.5605 16.6983 20.1113 15.4087L20.1289 15.394L20.1465 15.3784C20.4126 15.1466 20.679 14.9142 20.9531 14.6753L20.9521 14.6743C22.3548 13.4691 23.7768 12.3553 25.2734 11.3159L25.9209 10.8735L25.9238 10.8716C26.0935 10.7574 26.263 10.6423 26.4375 10.5249L26.4385 10.5259C34.4836 5.24778 44.0033 2.19123 53.584 2.01807L54.5107 2.01025Z" fill="#B9FFF3" stroke="#FDFFFE" stroke-width="4"/>
<path d="M95 43.5103C96.5 48.5103 98.5 65.0103 89 75.0103" stroke="white" stroke-opacity="0.43" stroke-width="13" stroke-linecap="round"/>
<path d="M31.5 23.0103C30 23.5103 27 26.0103 27 28.5103" stroke="white" stroke-opacity="0.43" stroke-width="14" stroke-linecap="round"/>
<path d="M17.4998 43.0103C11.4997 56.5103 14.4999 73.0103 27 83.5103" stroke="white" stroke-opacity="0.43" stroke-width="14" stroke-linecap="round"/>
<path d="M52.9019 32.5C54.0566 30.5 56.9434 30.5 58.0981 32.5L80.1817 70.75C81.3364 72.75 79.8931 75.25 77.5836 75.25H33.4164C31.107 75.25 29.6636 72.75 30.8183 70.75L52.9019 32.5Z" fill="#3A66FD"/>
</svg>
