<svg width="111" height="112" viewBox="0 0 111 112" fill="none" xmlns="http://www.w3.org/2000/svg">
<path d="M54.5107 2.82471H55.123V2.82568C69.8075 2.88027 82.9431 8.74243 93.3496 19.0161V19.0171C96.6567 22.3675 99.6509 25.9011 101.653 29.9312L101.659 29.9438L101.666 29.9556C101.859 30.3312 102.052 30.7074 102.245 31.0825V31.0815C102.559 31.6938 102.868 32.3093 103.174 32.9282L104.087 34.7993L104.091 34.8071C104.224 35.0792 104.357 35.3526 104.494 35.6323C106.401 39.8533 107.737 44.7891 108.174 49.3911L108.175 49.4077L108.177 49.4253C108.209 49.7094 108.241 49.9935 108.273 50.2856V50.2866C108.962 57.4268 108.494 64.6986 106.345 71.4331L106.131 72.0835L106.129 72.0913C106.061 72.2951 105.993 72.4987 105.923 72.7085C104.04 78.2703 101.254 83.7677 97.6133 88.2642L97.5986 88.2817L97.585 88.3003C97.4001 88.5399 97.2147 88.7794 97.0244 89.0259C95.5035 90.955 93.8132 92.7114 92.0068 94.4907L91.2256 95.2554L91.2188 95.2622C90.771 95.7024 90.3357 96.1486 89.916 96.5815C89.4258 97.0524 89.143 97.267 88.665 97.5015L88.6338 97.5171L88.6035 97.5337C87.6394 98.049 87.0663 98.4899 86.2988 99.2573C85.8178 99.7384 85.3011 100.08 84.6045 100.48L83.8428 100.908L83.8076 100.927C83.4735 101.121 83.1391 101.315 82.7949 101.515L81.7676 102.11L81.7646 102.111C81.4352 102.302 81.1056 102.493 80.7666 102.69C78.1846 104.131 75.6074 105.314 72.8486 106.26L72.293 106.446L72.2891 106.448L71.2256 106.799C68.5543 107.658 65.8735 108.3 63.1162 108.745L61.9297 108.924H61.9238C61.7163 108.954 61.5085 108.984 61.2949 109.014C55.4541 109.758 49.5165 109.293 43.6914 108.034L43.666 108.028L43.0312 107.899H43.0303C37.3833 106.734 31.8772 104.164 26.9434 100.977L26.9199 100.962L26.8975 100.949L26.1631 100.501C21.1936 97.3895 16.6076 93.0588 13.1084 88.3325L13.1035 88.3257L13.0986 88.3198L12.4521 87.4604C11.3682 85.9987 10.4155 84.6004 9.59766 83.0776L9.58105 83.0464L9.56348 83.0161L9.2373 82.4575C2.34085 70.5268 0.134348 56.1183 3.65332 42.7769C5.85858 34.9751 9.45767 27.9375 14.6436 21.7817L15.1504 21.188L15.1553 21.1821C15.3809 20.9198 15.6067 20.6571 15.8389 20.3872C17.175 18.8657 18.5605 17.5128 20.1113 16.2231L20.1289 16.2085L20.1465 16.1929C20.4126 15.961 20.679 15.7286 20.9531 15.4897L20.9521 15.4888C22.3548 14.2835 23.7768 13.1698 25.2734 12.1304L25.9209 11.688L25.9238 11.686C26.0935 11.5719 26.263 11.4567 26.4375 11.3394L26.4385 11.3403C34.4836 6.06223 44.0033 3.00568 53.584 2.83252L54.5107 2.82471Z" fill="#B9FFF3" stroke="#FDFFFE" stroke-width="4"/>
<path d="M86.1657 53.8301C90.4257 53.2976 94.3298 57.9103 96.8161 62.8828C99.4784 68.2078 96.9931 74.4205 95.7506 77.793L84.568 72.4678C84.568 74.0653 80.8407 80.4555 80.3082 81.5205C78.7372 84.6626 82.0835 84.0057 83.5036 83.1182L86.6979 75.6631L94.6862 79.9229C91.4911 90.0405 79.4428 90.8559 75.5153 87.9102C71.2557 84.7154 72.0122 83.1748 72.8532 79.3906C73.9182 74.5981 78.5327 62.5273 81.3727 56.4922C81.9052 55.7822 82.7578 54.2561 86.1657 53.8301ZM82.4381 42.6475C82.4381 46.0555 71.7876 73.1773 66.4625 86.3125L58.4752 83.6504L59.5407 80.9883C58.6531 81.8758 56.0258 83.3307 52.6178 82.0528C48.3579 80.4553 50.4878 75.6631 50.4879 74.0655C50.4879 72.7874 57.5883 53.6527 61.1383 44.2451C66.6763 39.5594 70.5452 44.423 71.7877 47.4405L74.9831 38.3877L82.4381 42.6475ZM69.5758 53.0928C70.6785 49.7849 67.8711 50.1443 66.7282 53.4385L60.0377 72.7217C59.653 73.8308 58.9524 74.8336 58.7018 75.9805C58.5405 76.719 58.7895 77.2537 59.4577 77.5879C60.5225 78.1203 61.2325 76.523 61.5875 75.458C64.2499 68.8909 69.1712 54.3068 69.5758 53.0928ZM39.3053 41.0498C43.5651 35.5122 48.3574 36.2574 51.5524 37.3223C57.9422 39.9847 56.5232 45.4871 55.8131 49.0371C55.8131 52.8711 49.778 66.6098 46.7604 73C45.5179 74.5975 41.6481 77.3671 36.11 75.6631C30.572 73.9591 30.608 67.1423 31.318 63.9473C32.2056 58.622 35.0454 46.5877 39.3053 41.0498ZM48.275 43.5069C46.1451 41.9109 43.6603 51.1399 41.8854 56.2871C40.8204 59.8371 36.5602 69.0676 38.6901 70.1328C40.8201 71.1978 44.015 59.4823 44.5475 57.8848C45.0802 56.2868 49.8725 44.705 48.275 43.5069ZM89.8112 62.1455C88.9592 60.8676 86.9712 65.1621 86.0836 67.4697L88.7457 69.0674C89.4557 67.2925 90.6625 63.424 89.8112 62.1455ZM18.5377 33.5947C19.6029 30.9322 23.5431 25.9273 30.7848 27.2051C38.0266 28.4831 39.1279 31.9971 38.7731 33.5947L34.5123 45.3096L26.525 42.6475L30.2526 33.5947C27.5905 31.9975 28.6547 33.0622 27.5905 33.0625C26.7385 33.0625 20.8446 49.0378 18.0045 57.0254C18.8565 60.4329 20.4897 59.5105 21.1998 58.6231L24.3952 49.5703L32.3825 52.2324C31.14 55.2498 28.4427 61.7106 27.5905 63.4151C26.5255 65.5451 20.6677 67.675 14.8102 63.4151C10.1241 60.007 10.7274 53.1201 11.6149 50.1026L18.5377 33.5947Z" fill="#3A66FD"/>
<path d="M95 44.3247C96.5 49.3247 98.5 65.8247 89 75.8247" stroke="white" stroke-opacity="0.43" stroke-width="13" stroke-linecap="round"/>
<path d="M31.5 23.8247C30 24.3247 27 26.8247 27 29.3247" stroke="white" stroke-opacity="0.43" stroke-width="14" stroke-linecap="round"/>
<path d="M17.4998 43.8247C11.4997 57.3247 14.4999 73.8247 27 84.3247" stroke="white" stroke-opacity="0.43" stroke-width="14" stroke-linecap="round"/>
</svg>
