<svg width="111" height="111" viewBox="0 0 111 111" fill="none" xmlns="http://www.w3.org/2000/svg">
<path d="M54.5107 2.18555H55.123V2.18652C69.8075 2.24111 82.9431 8.10327 93.3496 18.377V18.3779C96.6567 21.7283 99.6509 25.2619 101.653 29.292L101.659 29.3047L101.666 29.3164C101.859 29.692 102.052 30.0682 102.245 30.4434V30.4424C102.559 31.0546 102.868 31.6701 103.174 32.2891L104.087 34.1602L104.091 34.168C104.224 34.44 104.357 34.7135 104.494 34.9932C106.401 39.2141 107.737 44.15 108.174 48.752L108.175 48.7686L108.177 48.7861C108.209 49.0702 108.241 49.3543 108.273 49.6465V49.6475C108.962 56.7876 108.494 64.0595 106.345 70.7939L106.131 71.4443L106.129 71.4521C106.061 71.656 105.993 71.8595 105.923 72.0693C104.04 77.6311 101.254 83.1286 97.6133 87.625L97.5986 87.6426L97.585 87.6611C97.4001 87.9007 97.2147 88.1402 97.0244 88.3867C95.5035 90.3158 93.8132 92.0723 92.0068 93.8516L91.2256 94.6162L91.2188 94.623C90.771 95.0632 90.3357 95.5094 89.916 95.9424C89.4258 96.4133 89.143 96.6278 88.665 96.8623L88.6338 96.8779L88.6035 96.8945C87.6394 97.4098 87.0663 97.8507 86.2988 98.6182C85.8178 99.0992 85.3011 99.4407 84.6045 99.8408L83.8428 100.269L83.8076 100.288C83.4735 100.482 83.1391 100.676 82.7949 100.876L81.7676 101.471L81.7646 101.472C81.4352 101.663 81.1056 101.854 80.7666 102.051C78.1846 103.492 75.6074 104.675 72.8486 105.621L72.293 105.807L72.2891 105.809L71.2256 106.16C68.5543 107.019 65.8735 107.66 63.1162 108.105L61.9297 108.285H61.9238C61.7163 108.315 61.5085 108.344 61.2949 108.375C55.4541 109.119 49.5165 108.654 43.6914 107.395L43.666 107.389L43.0312 107.26H43.0303C37.3833 106.095 31.8772 103.525 26.9434 100.338L26.9199 100.323L26.8975 100.31L26.1631 99.8623C21.1936 96.7504 16.6076 92.4196 13.1084 87.6934L13.1035 87.6865L13.0986 87.6807L12.4521 86.8213C11.3682 85.3596 10.4155 83.9613 9.59766 82.4385L9.58105 82.4072L9.56348 82.377L9.2373 81.8184C2.34085 69.8877 0.134348 55.4791 3.65332 42.1377C5.85858 34.3359 9.45767 27.2983 14.6436 21.1426L15.1504 20.5488L15.1553 20.543C15.3809 20.2807 15.6067 20.018 15.8389 19.748C17.175 18.2266 18.5605 16.8736 20.1113 15.584L20.1289 15.5693L20.1465 15.5537C20.4126 15.3219 20.679 15.0895 20.9531 14.8506L20.9521 14.8496C22.3548 13.6444 23.7768 12.5306 25.2734 11.4912L25.9209 11.0488L25.9238 11.0469C26.0935 10.9327 26.263 10.8176 26.4375 10.7002L26.4385 10.7012C34.4836 5.42307 44.0033 2.36652 53.584 2.19336L54.5107 2.18555Z" fill="#B9FFF3" stroke="#FDFFFE" stroke-width="4"/>
<path d="M72.8173 16.2018L57.5261 21.1444C64.0819 30.3391 75.6431 64.9194 80.6042 81.0603C83.0094 80.5245 91.4736 74.5412 95.4051 71.6166C91.7069 50.4134 81.2827 26.6104 72.8173 16.2018Z" fill="#3A66FD"/>
<path fill-rule="evenodd" clip-rule="evenodd" d="M20.7634 35.4798C20.6764 35.0893 22.789 74.472 32.8317 94.262L52.0827 90.9987C52.2122 89.7404 49.1685 83.281 47.6304 80.2086L55.2163 78.5189C57.0748 82.4524 58.8462 86.1244 60.3794 89.1507C65.9283 87.2318 77.1994 83.2529 77.8933 82.6886C78.7607 81.9831 46.9535 26.5728 45.3806 26.4109C44.5178 26.3221 37.2264 29.2066 30.8011 31.7485C25.5135 33.8403 20.8124 35.7001 20.7634 35.4798ZM48.0538 63.1229C48.7942 64.7263 49.5513 66.3661 50.3154 68.0171L43.2867 69.9065C40.5714 62.3152 36.9287 43.661 38.3929 43.3349C38.8681 43.229 43.0827 52.3569 48.0538 63.1229Z" fill="#3A66FD"/>
<path d="M95 43.6855C96.5 48.6855 98.5 65.1855 89 75.1855" stroke="white" stroke-opacity="0.43" stroke-width="13" stroke-linecap="round"/>
<path d="M31.5 23.1855C30 23.6855 27 26.1855 27 28.6855" stroke="white" stroke-opacity="0.43" stroke-width="14" stroke-linecap="round"/>
<path d="M17.4998 43.1855C11.4997 56.6855 14.4999 73.1855 27 83.6855" stroke="white" stroke-opacity="0.43" stroke-width="14" stroke-linecap="round"/>
</svg>
