<svg width="111" height="112" viewBox="0 0 111 112" fill="none" xmlns="http://www.w3.org/2000/svg">
<path d="M54.5107 2.73193H55.123V2.73291C69.8075 2.78749 82.9431 8.64966 93.3496 18.9233V18.9243C96.6567 22.2747 99.6509 25.8083 101.653 29.8384L101.659 29.8511L101.666 29.8628C101.859 30.2384 102.052 30.6146 102.245 30.9897V30.9888C102.559 31.601 102.868 32.2165 103.174 32.8354L104.087 34.7065L104.091 34.7144C104.224 34.9864 104.357 35.2599 104.494 35.5396C106.401 39.7605 107.737 44.6964 108.174 49.2983L108.175 49.3149L108.177 49.3325C108.209 49.6166 108.241 49.9007 108.273 50.1929V50.1938C108.962 57.334 108.494 64.6059 106.345 71.3403L106.131 71.9907L106.129 71.9985C106.061 72.2023 105.993 72.4059 105.923 72.6157C104.04 78.1775 101.254 83.675 97.6133 88.1714L97.5986 88.189L97.585 88.2075C97.4001 88.4471 97.2147 88.6866 97.0244 88.9331C95.5035 90.8622 93.8132 92.6187 92.0068 94.3979L91.2256 95.1626L91.2188 95.1694C90.771 95.6096 90.3357 96.0558 89.916 96.4888C89.4258 96.9596 89.143 97.1742 88.665 97.4087L88.6338 97.4243L88.6035 97.4409C87.6394 97.9562 87.0663 98.3971 86.2988 99.1646C85.8178 99.6456 85.3011 99.9871 84.6045 100.387L83.8428 100.815L83.8076 100.834C83.4735 101.028 83.1391 101.223 82.7949 101.422L81.7676 102.017L81.7646 102.018C81.4352 102.209 81.1056 102.4 80.7666 102.597C78.1846 104.039 75.6074 105.222 72.8486 106.167L72.293 106.353L72.2891 106.355L71.2256 106.707C68.5543 107.565 65.8735 108.207 63.1162 108.652L61.9297 108.832H61.9238C61.7163 108.861 61.5085 108.891 61.2949 108.921C55.4541 109.666 49.5165 109.2 43.6914 107.941L43.666 107.935L43.0312 107.806H43.0303C37.3833 106.641 31.8772 104.071 26.9434 100.884L26.9199 100.87L26.8975 100.856L26.1631 100.409C21.1936 97.2968 16.6076 92.966 13.1084 88.2397L13.1035 88.2329L13.0986 88.2271L12.4521 87.3677C11.3682 85.906 10.4155 84.5077 9.59766 82.9849L9.58105 82.9536L9.56348 82.9233L9.2373 82.3647C2.34085 70.4341 0.134348 56.0255 3.65332 42.6841C5.85858 34.8823 9.45767 27.8447 14.6436 21.689L15.1504 21.0952L15.1553 21.0894C15.3809 20.8271 15.6067 20.5644 15.8389 20.2944C17.175 18.7729 18.5605 17.42 20.1113 16.1304L20.1289 16.1157L20.1465 16.1001C20.4126 15.8682 20.679 15.6359 20.9531 15.397L20.9521 15.396C22.3548 14.1907 23.7768 13.077 25.2734 12.0376L25.9209 11.5952L25.9238 11.5933C26.0935 11.4791 26.263 11.364 26.4375 11.2466L26.4385 11.2476C34.4836 5.96946 44.0033 2.91291 53.584 2.73975L54.5107 2.73193Z" fill="#B9FFF3" stroke="#FDFFFE" stroke-width="4"/>
<path d="M60.5054 30.2996C63.6998 29.8133 67.3499 29.8184 70.9765 31.0784C74.7193 32.3795 77.9655 34.8583 80.4334 38.5254L80.8521 39.1844C84.9834 46.0077 82.487 53.406 78.9728 57.9585C75.6073 62.3184 69.8028 66.203 63.1988 66.0875L61.8684 66.0092C59.5006 65.7747 57.6082 66.2143 56.2677 67.0506C55.0428 67.8151 53.6427 69.3005 52.8394 72.4838C51.8814 76.2751 48.0008 78.5792 44.1732 77.6312C40.3463 76.6822 38.0204 72.8378 38.9773 69.046C40.5557 62.7932 43.9201 58.0251 48.6482 55.0737C53.2617 52.1944 58.5155 51.4531 63.2918 51.9263H63.5942C63.9567 51.9016 64.4881 51.7801 65.1618 51.4332C66.0534 50.9739 66.9421 50.2409 67.6226 49.3595C68.7705 47.8722 68.7437 46.9837 68.6366 46.5991L68.5436 46.3779C67.7088 45.1374 66.9177 44.6714 66.2457 44.4378C65.458 44.1644 64.312 44.0417 62.6778 44.2904C59.2199 44.8168 55.2949 46.6952 51.7602 48.6406C48.3107 50.5389 43.9591 49.3066 42.0427 45.8894C40.1268 42.4722 41.3705 38.1611 44.8198 36.2627C48.43 34.2758 54.3023 31.2441 60.5054 30.2996Z" fill="#3A66FD"/>
<path d="M45.9084 86.1014C45.9084 89.3591 43.2426 92 39.9542 92C36.6658 92 34 89.3591 34 86.1014C34 82.8437 36.6658 80.2028 39.9542 80.2028C43.2426 80.2028 45.9084 82.8437 45.9084 86.1014Z" fill="#3A66FD"/>
<path d="M95 44.2319C96.5 49.2319 98.5 65.7319 89 75.7319" stroke="white" stroke-opacity="0.43" stroke-width="13" stroke-linecap="round"/>
<path d="M31.5 23.7319C30 24.2319 27 26.7319 27 29.2319" stroke="white" stroke-opacity="0.43" stroke-width="14" stroke-linecap="round"/>
<path d="M17.4998 43.7319C11.4997 57.2319 14.4999 73.7319 27 84.2319" stroke="white" stroke-opacity="0.43" stroke-width="14" stroke-linecap="round"/>
</svg>
