<svg width="111" height="111" viewBox="0 0 111 111" fill="none" xmlns="http://www.w3.org/2000/svg">
<path d="M54.5107 2.09277H55.123V2.09375C69.8075 2.14833 82.9431 8.0105 93.3496 18.2842V18.2852C96.6567 21.6356 99.6509 25.1692 101.653 29.1992L101.659 29.2119L101.666 29.2236C101.859 29.5993 102.052 29.9754 102.245 30.3506V30.3496C102.559 30.9618 102.868 31.5773 103.174 32.1963L104.087 34.0674L104.091 34.0752C104.224 34.3473 104.357 34.6207 104.494 34.9004C106.401 39.1213 107.737 44.0572 108.174 48.6592L108.175 48.6758L108.177 48.6934C108.209 48.9775 108.241 49.2616 108.273 49.5537V49.5547C108.962 56.6949 108.494 63.9667 106.345 70.7012L106.131 71.3516L106.129 71.3594C106.061 71.5632 105.993 71.7668 105.923 71.9766C104.04 77.5384 101.254 83.0358 97.6133 87.5322L97.5986 87.5498L97.585 87.5684C97.4001 87.8079 97.2147 88.0474 97.0244 88.2939C95.5035 90.223 93.8132 91.9795 92.0068 93.7588L91.2256 94.5234L91.2188 94.5303C90.771 94.9705 90.3357 95.4166 89.916 95.8496C89.4258 96.3205 89.143 96.535 88.665 96.7695L88.6338 96.7852L88.6035 96.8018C87.6394 97.3171 87.0663 97.7579 86.2988 98.5254C85.8178 99.0064 85.3011 99.3479 84.6045 99.748L83.8428 100.176L83.8076 100.195C83.4735 100.389 83.1391 100.583 82.7949 100.783L81.7676 101.378L81.7646 101.379C81.4352 101.57 81.1056 101.761 80.7666 101.958C78.1846 103.4 75.6074 104.582 72.8486 105.528L72.293 105.714L72.2891 105.716L71.2256 106.067C68.5543 106.926 65.8735 107.568 63.1162 108.013L61.9297 108.192H61.9238C61.7163 108.222 61.5085 108.252 61.2949 108.282C55.4541 109.026 49.5165 108.561 43.6914 107.302L43.666 107.296L43.0312 107.167H43.0303C37.3833 106.002 31.8772 103.432 26.9434 100.245L26.9199 100.23L26.8975 100.217L26.1631 99.7695C21.1936 96.6576 16.6076 92.3268 13.1084 87.6006L13.1035 87.5938L13.0986 87.5879L12.4521 86.7285C11.3682 85.2668 10.4155 83.8685 9.59766 82.3457L9.58105 82.3145L9.56348 82.2842L9.2373 81.7256C2.34085 69.7949 0.134348 55.3863 3.65332 42.0449C5.85858 34.2431 9.45767 27.2055 14.6436 21.0498L15.1504 20.4561L15.1553 20.4502C15.3809 20.1879 15.6067 19.9252 15.8389 19.6553C17.175 18.1338 18.5605 16.7808 20.1113 15.4912L20.1289 15.4766L20.1465 15.4609C20.4126 15.2291 20.679 14.9967 20.9531 14.7578L20.9521 14.7568C22.3548 13.5516 23.7768 12.4378 25.2734 11.3984L25.9209 10.9561L25.9238 10.9541C26.0935 10.8399 26.263 10.7248 26.4375 10.6074L26.4385 10.6084C34.4836 5.3303 44.0033 2.27375 53.584 2.10059L54.5107 2.09277Z" fill="#B9FFF3" stroke="#FDFFFE" stroke-width="4"/>
<path d="M21 63.897L24.9528 56.0322C28.1151 59.1781 30.4868 57.343 31.2774 56.0322L49.4605 23L60.5285 30.0783L38.3925 68.6159C36.4952 71.7618 32.8585 70.451 31.2774 69.4023L21 63.897Z" fill="#3A66FD"/>
<path d="M44.7171 68.6159L49.4605 59.9646L59.7379 65.4699C58.6838 66.5186 56.4175 69.4023 55.785 72.5483C55.1526 75.6942 57.6297 75.9563 58.9473 75.6942C59.7379 74.9077 61.6353 72.8629 62.9002 70.9753C64.1651 69.0878 63.4272 67.0429 62.9002 66.2564C57.8405 60.5938 56.0486 53.4106 55.785 50.5268C56.0486 47.6431 57.3662 41.2463 60.5285 38.7296C63.6907 36.2129 66.5895 35.0594 67.6436 34.7972C69.2247 34.0107 73.1776 34.7972 80.2927 38.7296C85.9848 41.8755 86.3537 48.4295 85.8267 51.3133L81.8738 58.3916L71.5964 52.8863L74.7587 48.1674C75.0222 47.3809 75.0749 45.4933 73.1776 44.235C70.8059 42.662 69.2247 49.7403 68.4342 49.7403C67.6436 49.7403 74.1818 62.9 74.7587 63.897C75.4643 65.1165 75.8128 69.9267 75.5493 72.5483C74.4952 75.9563 71.2802 83.2444 66.853 85.132C62.4258 87.0195 57.6297 85.3941 55.785 84.3455C54.731 83.8212 51.6741 81.986 47.8794 78.8401C44.0846 75.6942 44.19 70.7131 44.7171 68.6159Z" fill="#3A66FD"/>
<path d="M95 43.5928C96.5 48.5928 98.5 65.0928 89 75.0928" stroke="white" stroke-opacity="0.43" stroke-width="13" stroke-linecap="round"/>
<path d="M31.5 23.0928C30 23.5928 27 26.0928 27 28.5928" stroke="white" stroke-opacity="0.43" stroke-width="14" stroke-linecap="round"/>
<path d="M17.4998 43.0928C11.4997 56.5928 14.4999 73.0928 27 83.5928" stroke="white" stroke-opacity="0.43" stroke-width="14" stroke-linecap="round"/>
</svg>
