<svg width="111" height="111" viewBox="0 0 111 111" fill="none" xmlns="http://www.w3.org/2000/svg">
<path d="M54.5107 2.27832H55.123V2.2793C69.8075 2.33388 82.9431 8.19604 93.3496 18.4697V18.4707C96.6567 21.8211 99.6509 25.3547 101.653 29.3848L101.659 29.3975L101.666 29.4092C101.859 29.7848 102.052 30.161 102.245 30.5361V30.5352C102.559 31.1474 102.868 31.7629 103.174 32.3818L104.087 34.2529L104.091 34.2607C104.224 34.5328 104.357 34.8062 104.494 35.0859C106.401 39.3069 107.737 44.2428 108.174 48.8447L108.175 48.8613L108.177 48.8789C108.209 49.163 108.241 49.4471 108.273 49.7393V49.7402C108.962 56.8804 108.494 64.1522 106.345 70.8867L106.131 71.5371L106.129 71.5449C106.061 71.7487 105.993 71.9523 105.923 72.1621C104.04 77.7239 101.254 83.2213 97.6133 87.7178L97.5986 87.7354L97.585 87.7539C97.4001 87.9935 97.2147 88.233 97.0244 88.4795C95.5035 90.4086 93.8132 92.165 92.0068 93.9443L91.2256 94.709L91.2188 94.7158C90.771 95.156 90.3357 95.6022 89.916 96.0352C89.4258 96.506 89.143 96.7206 88.665 96.9551L88.6338 96.9707L88.6035 96.9873C87.6394 97.5026 87.0663 97.9435 86.2988 98.7109C85.8178 99.192 85.3011 99.5335 84.6045 99.9336L83.8428 100.361L83.8076 100.381C83.4735 100.575 83.1391 100.769 82.7949 100.969L81.7676 101.563L81.7646 101.564C81.4352 101.756 81.1056 101.947 80.7666 102.144C78.1846 103.585 75.6074 104.768 72.8486 105.714L72.293 105.899L72.2891 105.901L71.2256 106.253C68.5543 107.112 65.8735 107.753 63.1162 108.198L61.9297 108.378H61.9238C61.7163 108.408 61.5085 108.437 61.2949 108.468C55.4541 109.212 49.5165 108.747 43.6914 107.487L43.666 107.481L43.0312 107.353H43.0303C37.3833 106.188 31.8772 103.617 26.9434 100.431L26.9199 100.416L26.8975 100.402L26.1631 99.9551C21.1936 96.8432 16.6076 92.5124 13.1084 87.7861L13.1035 87.7793L13.0986 87.7734L12.4521 86.9141C11.3682 85.4524 10.4155 84.054 9.59766 82.5312L9.58105 82.5L9.56348 82.4697L9.2373 81.9111C2.34085 69.9804 0.134348 55.5719 3.65332 42.2305C5.85858 34.4287 9.45767 27.3911 14.6436 21.2354L15.1504 20.6416L15.1553 20.6357C15.3809 20.3735 15.6067 20.1108 15.8389 19.8408C17.175 18.3193 18.5605 16.9664 20.1113 15.6768L20.1289 15.6621L20.1465 15.6465C20.4126 15.4146 20.679 15.1822 20.9531 14.9434L20.9521 14.9424C22.3548 13.7371 23.7768 12.6234 25.2734 11.584L25.9209 11.1416L25.9238 11.1396C26.0935 11.0255 26.263 10.9104 26.4375 10.793L26.4385 10.7939C34.4836 5.51584 44.0033 2.4593 53.584 2.28613L54.5107 2.27832Z" fill="#B9FFF3" stroke="#FDFFFE" stroke-width="4"/>
<path d="M58.8166 45L57.2096 39.3125L59.2183 38.9062L56.8079 33.625L66.4498 32L68.4585 36.875L70.869 36.0625L72.8777 41.75L70.0655 42.9688C72.3153 45.5688 75.556 59.2188 76.8952 65.7188L79.7074 64.5V70.5938C77.9665 71.2708 73.9223 72.625 71.6725 72.625C68.8603 72.625 68.0568 70.5938 68.0568 69.375C68.0568 68.4 63.5036 52.4479 61.2271 44.5938L58.8166 45Z" fill="#3A66FD"/>
<path fill-rule="evenodd" clip-rule="evenodd" d="M39.131 58.4063L47.5677 56.375C47.5033 56.1518 47.4357 55.9193 47.3659 55.6796C46.4203 52.4295 45.0925 47.8656 46.3624 47.4375C47.5677 47.0313 48.3712 47.4375 50.3799 55.1563L42.7467 62.4688C42.2111 62.875 41.2201 64.4188 41.5415 67.3438C41.9432 71 43.5502 76.6875 44.3537 77.5C45.1572 78.3125 46.7642 79.5313 48.3712 79.5313C49.9782 79.5313 55.2009 77.0938 55.2009 74.6563C55.2009 72.7063 55.7365 75.7396 56.0044 77.5L64.8428 75.0625C63.5036 66.2604 59.8611 47.7625 56.0044 44.1875C52.1476 40.6125 48.2373 40.2604 46.7642 40.5313C45.6929 40.8021 43.1485 41.5875 41.5415 42.5625C39.5328 43.7812 36.3188 47.4375 37.1223 50.6875C37.7651 53.2875 38.7293 56.9167 39.131 58.4063ZM50.3799 66.5312C50.0585 63.6063 51.3173 61.5208 51.9869 60.8438C52.4035 61.265 52.8202 63.2155 53.2368 65.1659C53.6236 66.9771 54.0105 68.7882 54.3974 69.375C55.2009 70.5938 53.5939 72.625 52.7904 72.2188C51.9869 71.8125 50.7817 70.1875 50.3799 66.5312Z" fill="#3A66FD"/>
<path fill-rule="evenodd" clip-rule="evenodd" d="M76.8952 48.25L85.7336 45.8125C84.6623 43.2396 82.841 38.175 84.1266 38.5C85.7336 38.9062 87.7424 40.9375 88.1441 44.1875C88.4655 46.7875 85.064 48.7917 83.3231 49.4688C81.9245 50.0127 80.5109 51.9062 79.7074 53.5312C78.4498 56.0748 81.7162 66.125 82.1179 66.9375C82.1844 67.0719 82.2288 67.2397 82.2768 67.4206C82.5187 68.3332 82.8491 69.5796 86.5371 68.5625C90.0725 67.5875 91.7598 64.3646 92.1616 62.875V65.7188L101 62.4688C100.866 59.2188 100.518 52.2313 100.197 50.2812C99.7948 47.8438 96.179 38.5 94.9738 37.2812C94.8998 37.2064 94.8198 37.124 94.7334 37.035C93.4127 35.6742 90.611 32.7876 85.3319 32.4062C79.7074 32 74.4847 36.4688 74.8865 40.125C75.2079 43.05 76.3595 46.7604 76.8952 48.25ZM88.5459 53.125C88.5459 52.475 89.6172 50.6875 90.1528 49.875C91.3581 51.5 91.7598 59.2188 91.7598 60.0312C91.7598 60.8438 89.7511 60.8438 89.3493 60.4375C88.9476 60.0312 88.5459 53.9375 88.5459 53.125Z" fill="#3A66FD"/>
<path fill-rule="evenodd" clip-rule="evenodd" d="M9 47.8438C12.0801 56.6458 18.4009 76.2 19.0437 84L33.5065 81.9688C35.5153 81.6979 39.6131 79.775 39.9345 74.25C40.2559 68.725 34.1761 51.9063 31.0961 44.1875C30.5604 42.8333 28.3642 40.3688 23.8646 41.3438C19.3651 42.3188 12.0801 46.0833 9 47.8438ZM27.0786 74.6563L19.8472 51.0938C19.8472 50.5521 20.1686 49.4688 21.4541 49.4688C22.7397 49.4688 23.329 50.5521 23.4629 51.0938C25.4716 57.8646 29.4891 71.65 29.4891 72.625C29.4891 72.8228 29.4997 73.0313 29.5105 73.2452C29.5666 74.3498 29.6301 75.6006 28.2838 76.2813C26.9983 76.9313 26.9447 75.4688 27.0786 74.6563Z" fill="#3A66FD"/>
<path d="M95 43.7783C96.5 48.7783 98.5 65.2783 89 75.2783" stroke="white" stroke-opacity="0.43" stroke-width="13" stroke-linecap="round"/>
<path d="M31.5 23.2783C30 23.7783 27 26.2783 27 28.7783" stroke="white" stroke-opacity="0.43" stroke-width="14" stroke-linecap="round"/>
<path d="M17.4998 43.2783C11.4997 56.7783 14.4999 73.2783 27 83.7783" stroke="white" stroke-opacity="0.43" stroke-width="14" stroke-linecap="round"/>
</svg>
