<svg width="111" height="112" viewBox="0 0 111 112" fill="none" xmlns="http://www.w3.org/2000/svg">
<path d="M54.5107 2.63916H55.123V2.64014C69.8075 2.69472 82.9431 8.55688 93.3496 18.8306V18.8315C96.6567 22.1819 99.6509 25.7155 101.653 29.7456L101.659 29.7583L101.666 29.77C101.859 30.1456 102.052 30.5218 102.245 30.897V30.896C102.559 31.5082 102.868 32.1237 103.174 32.7427L104.087 34.6138L104.091 34.6216C104.224 34.8937 104.357 35.1671 104.494 35.4468C106.401 39.6677 107.737 44.6036 108.174 49.2056L108.175 49.2222L108.177 49.2397C108.209 49.5238 108.241 49.808 108.273 50.1001V50.1011C108.962 57.2412 108.494 64.5131 106.345 71.2476L106.131 71.8979L106.129 71.9058C106.061 72.1096 105.993 72.3132 105.923 72.5229C104.04 78.0848 101.254 83.5822 97.6133 88.0786L97.5986 88.0962L97.585 88.1147C97.4001 88.3543 97.2147 88.5938 97.0244 88.8403C95.5035 90.7694 93.8132 92.5259 92.0068 94.3052L91.2256 95.0698L91.2188 95.0767C90.771 95.5169 90.3357 95.963 89.916 96.396C89.4258 96.8669 89.143 97.0814 88.665 97.3159L88.6338 97.3315L88.6035 97.3481C87.6394 97.8635 87.0663 98.3043 86.2988 99.0718C85.8178 99.5528 85.3011 99.8943 84.6045 100.294L83.8428 100.722L83.8076 100.742C83.4735 100.936 83.1391 101.13 82.7949 101.33L81.7676 101.924L81.7646 101.925C81.4352 102.117 81.1056 102.308 80.7666 102.504C78.1846 103.946 75.6074 105.129 72.8486 106.075L72.293 106.26L72.2891 106.262L71.2256 106.614C68.5543 107.472 65.8735 108.114 63.1162 108.559L61.9297 108.739H61.9238C61.7163 108.769 61.5085 108.798 61.2949 108.829C55.4541 109.573 49.5165 109.108 43.6914 107.848L43.666 107.842L43.0312 107.713H43.0303C37.3833 106.549 31.8772 103.978 26.9434 100.792L26.9199 100.777L26.8975 100.763L26.1631 100.316C21.1936 97.204 16.6076 92.8732 13.1084 88.147L13.1035 88.1401L13.0986 88.1343L12.4521 87.2749C11.3682 85.8132 10.4155 84.4149 9.59766 82.8921L9.58105 82.8608L9.56348 82.8306L9.2373 82.272C2.34085 70.3413 0.134348 55.9327 3.65332 42.5913C5.85858 34.7895 9.45767 27.7519 14.6436 21.5962L15.1504 21.0024L15.1553 20.9966C15.3809 20.7343 15.6067 20.4716 15.8389 20.2017C17.175 18.6802 18.5605 17.3272 20.1113 16.0376L20.1289 16.0229L20.1465 16.0073C20.4126 15.7755 20.679 15.5431 20.9531 15.3042L20.9521 15.3032C22.3548 14.098 23.7768 12.9842 25.2734 11.9448L25.9209 11.5024L25.9238 11.5005C26.0935 11.3863 26.263 11.2712 26.4375 11.1538L26.4385 11.1548C34.4836 5.87668 44.0033 2.82014 53.584 2.64697L54.5107 2.63916Z" fill="#B9FFF3" stroke="#FDFFFE" stroke-width="4"/>
<path d="M95 44.1392C96.5 49.1392 98.5 65.6392 89 75.6392" stroke="white" stroke-opacity="0.43" stroke-width="13" stroke-linecap="round"/>
<path d="M31.5 23.6392C30 24.1392 27 26.6392 27 29.1392" stroke="white" stroke-opacity="0.43" stroke-width="14" stroke-linecap="round"/>
<path d="M17.4998 43.6392C11.4997 57.1392 14.4999 73.6392 27 84.1392" stroke="white" stroke-opacity="0.43" stroke-width="14" stroke-linecap="round"/>
<path d="M49.3638 67.4706V23.8824C49.3638 20.0813 52.4164 17 56.1819 17C59.9474 17 63 20.0813 63 23.8824V67.4706C63 71.2716 59.9474 74.3529 56.1819 74.3529C52.4164 74.3529 49.3638 71.2716 49.3638 67.4706Z" fill="#3A66FD"/>
<path d="M61.6362 88.1176C61.6362 91.9187 58.5836 95 54.8181 95C51.0526 95 48 91.9187 48 88.1176C48 84.3166 51.0526 81.2353 54.8181 81.2353C58.5836 81.2353 61.6362 84.3166 61.6362 88.1176Z" fill="#3A66FD"/>
</svg>
